<mxfile host="Electron" modified="2024-07-19T14:02:39.654Z" agent="Mozilla/5.0 (Macintosh; Intel Mac OS X 10_15_7) AppleWebKit/537.36 (KHTML, like Gecko) draw.io/22.0.3 Chrome/114.0.5735.289 Electron/25.8.4 Safari/537.36" etag="gx94X_BHTy8LeffrOKWZ" version="22.0.3" type="device">
  <diagram id="8iADfTE4ITBbc02DFnRz" name="Page-1">
    <mxGraphModel dx="2821" dy="2532" grid="0" gridSize="10" guides="1" tooltips="1" connect="1" arrows="1" fold="1" page="1" pageScale="1" pageWidth="1169" pageHeight="827" math="0" shadow="0">
      <root>
        <object label="" author="lionel.mace@fr.ibm.com" version="1.1" id="0">
          <mxCell />
        </object>
        <mxCell id="aBM-zXdnnbqDNFdNqjh6-2" value="IBM Cloud Account" parent="0" />
        <mxCell id="pEGuMoAMFqIg68gzwtf1-29" value="" style="rounded=0;whiteSpace=wrap;html=1;fontFamily=IBM Plex Sans;fontSource=fonts%2FIBMPlexSans-Regular.woff;fontSize=14;spacingBottom=-28;spacingTop=0;labelPosition=-100;verticalLabelPosition=top;align=center;verticalAlign=bottom;spacingLeft=9;spacing=0;expand=0;recursiveResize=0;spacingRight=0;container=1;collapsible=0;strokeColor=#1192E8;fillColor=#ECF5FF;" parent="aBM-zXdnnbqDNFdNqjh6-2" vertex="1">
          <mxGeometry x="10" y="-1640" width="1243" height="800" as="geometry">
            <mxRectangle width="670" as="alternateBounds" />
          </mxGeometry>
        </mxCell>
        <mxCell id="pEGuMoAMFqIg68gzwtf1-30" value="" style="rounded=0;whiteSpace=wrap;html=1;strokeColor=none;fillColor=#1192E8;" parent="pEGuMoAMFqIg68gzwtf1-29" vertex="1">
          <mxGeometry width="7" height="37" as="geometry" />
        </mxCell>
        <mxCell id="pEGuMoAMFqIg68gzwtf1-31" value="IBM Cloud" style="text;html=1;strokeColor=none;fillColor=none;align=left;verticalAlign=middle;whiteSpace=wrap;rounded=0;fontFamily=IBM Plex Sans;fontSource=fonts%2FIBMPlexSans-Regular.woff;fontSize=14;" parent="pEGuMoAMFqIg68gzwtf1-29" vertex="1">
          <mxGeometry x="51" y="8" width="163" height="20" as="geometry" />
        </mxCell>
        <mxCell id="pEGuMoAMFqIg68gzwtf1-32" value="" style="shape=image;aspect=fixed;image=data:image/svg+xml,PD94bWwgdmVyc2lvbj0iMS4wIiBlbmNvZGluZz0iVVRGLTgiPz4KPHN2ZyB3aWR0aD0iMzNweCIgaGVpZ2h0PSIzMXB4IiB2aWV3Qm94PSIwIDAgMzMgMzEiIHZlcnNpb249IjEuMSIgeG1sbnM9Imh0dHA6Ly93d3cudzMub3JnLzIwMDAvc3ZnIiB4bWxuczp4bGluaz0iaHR0cDovL3d3dy53My5vcmcvMTk5OS94bGluayI+CiAgICA8IS0tIEdlbmVyYXRvcjogU2tldGNoIDUzICg3MjUyMCkgLSBodHRwczovL3NrZXRjaGFwcC5jb20gLS0+CiAgICA8dGl0bGU+SUJNIENsb3VkIEJsYWNrPC90aXRsZT4KICAgIDxkZXNjPkNyZWF0ZWQgd2l0aCBTa2V0Y2guPC9kZXNjPgogICAgPGcgaWQ9IlBhZ2UtMSIgc3Ryb2tlPSJub25lIiBzdHJva2Utd2lkdGg9IjEiIGZpbGw9Im5vbmUiIGZpbGwtcnVsZT0iZXZlbm9kZCI+CiAgICAgICAgPGcgaWQ9IklCTS1DbG91ZC1CbGFjayIgdHJhbnNmb3JtPSJ0cmFuc2xhdGUoMC43ODQ3MjIsIDAuNTAwMTI1KSIgZmlsbD0iIzAwMDAwMCI+CiAgICAgICAgICAgIDxwYXRoIGQ9Ik0yNy4xMDIxLDI3LjAxMDYgQzI1Ljg3MDEsMjcuODc5NiAyNC4zNjExLDI4LjI2NzYgMjIuODUzMSwyOC4yNjc2IEw3LjAwNDEsMjguMjY3NiBDNC4xMTIxLDI4LjI3NDYgMS43NjIxLDI1LjkzNDYgMS43NTUxLDIzLjA0MjYgQzEuNzQ5MSwyMC40MTA2IDMuNjk3MSwxOC4xODM2IDYuMzA1MSwxNy44Mzg2IEM2LjQxMTEsMTkuMTYxNiA2Ljc4NzEsMjAuNDQ5NiA3LjQwOTEsMjEuNjIxNiBDNy41OTUxLDIxLjk5MTYgOC4wNDYxLDIyLjE0MDYgOC40MTYxLDIxLjk1NDYgQzguNzg2MSwyMS43Njc2IDguOTM1MSwyMS4zMTc2IDguNzQ4MSwyMC45NDc2IEw4LjczMDEsMjAuOTEyNiBDNy4xMzIxLDE3LjkzNTYgNy40MjkxLDE0LjIxNzYgOS42NzIxLDExLjY4OTYgQzEzLjQ4NjEsNy4zOTI2IDE5Ljc4NzEsOC4wNTI2IDIyLjc1NzEsMTIuMjgxNiBDMjAuMzM0MSwxMi4zNDc2IDE4LjA0NzEsMTMuNDE1NiAxNi40NDExLDE1LjIzMDYgQzE2LjE2MTEsMTUuNTM1NiAxNi4xODExLDE2LjAxMDYgMTYuNDg1MSwxNi4yOTA2IEMxNi43ODkxLDE2LjU3MTYgMTcuMjY0MSwxNi41NTI2IDE3LjU0NTEsMTYuMjQ3NiBMMTcuNTY2MSwxNi4yMjI2IEMxOS41OTUxLDEzLjkyMzYgMjIuODg0MSwxMy4wNTI2IDI1LjcwMzEsMTQuMjYzNiBDMzEuMTY1MSwxNi42MDk2IDMxLjgxMDEsMjMuNjkyNiAyNy4xMDIxLDI3LjAxMDYgTTI0LjU4NTEsMTIuOTE3NiBDMjIuMDU0MSw4LjE3NTYgMTYuMTU5MSw2LjM4MjYgMTEuNDE2MSw4LjkxMzYgQzguNDY1MSwxMC40ODg2IDYuNTI5MSwxMy40Njg2IDYuMjkwMSwxNi44MDY2IEMyLjU4NDEsMTcuMjA0NiAtMC4wOTc5LDIwLjUzMjYgMC4zMDExLDI0LjIzOTYgQzAuNjY5MSwyNy42NjU2IDMuNTU5MSwzMC4yNjM2IDcuMDA0MSwzMC4yNjc2IEwyMy4wMDQxLDMwLjI2NzYgQzI3LjgzNTEsMzAuMjcwNiAzMS43NTMxLDI2LjM1NzYgMzEuNzU2MSwyMS41MjY2IEMzMS43NTkxLDE3LjMwMTYgMjguNzQxMSwxMy42Nzg2IDI0LjU4NTEsMTIuOTE3NiIgaWQ9IkZpbGwtMSI+PC9wYXRoPgogICAgICAgICAgICA8ZyBpZD0iR3JvdXAtNSIgdHJhbnNmb3JtPSJ0cmFuc2xhdGUoMjcuMDAwMDAwLCA4LjI2NzcwMCkiPgogICAgICAgICAgICAgICAgPHBhdGggZD0iTTQuOTAyOCwwLjkxOTcgQzQuNjkzOCwwLjU1NjcgNC4yMjk4LDAuNDMyNyAzLjg2NjgsMC42NDE3IEMzLjg2NjgsMC42NDE3IDMuODY2OCwwLjY0MTcgMy44NjY4LDAuNjQyNyBMMC44NDY4LDIuMzg1NyBDMC40Nzg4LDIuNTg2NyAwLjM0MzgsMy4wNDc3IDAuNTQ0OCwzLjQxNTcgQzAuNzQ1OCwzLjc4MzcgMS4yMDY4LDMuOTE4NyAxLjU3NDgsMy43MTc3IEMxLjU4NDgsMy43MTE3IDEuNTk0OCwzLjcwNTcgMS42MDQ4LDMuNjk5NyBMNC42MjQ4LDEuOTU2NyBDNC45ODc4LDEuNzQ2NyA1LjExMTgsMS4yODI3IDQuOTAyOCwwLjkxOTciIGlkPSJGaWxsLTMiPjwvcGF0aD4KICAgICAgICAgICAgPC9nPgogICAgICAgICAgICA8cGF0aCBkPSJNMjIuNjgxMiw2LjgwMjYgQzIzLjA0MzIsNy4wMTI2IDIzLjUwNzIsNi44ODg2IDIzLjcxNzIsNi41MjU2IEwyMy43MTcyLDYuNTI1NiBMMjUuNDYxMiwzLjUwNTYgQzI1LjY2ODIsMy4xNDA2IDI1LjU0MDIsMi42Nzc2IDI1LjE3NjIsMi40NzA2IEMyNC44MTUyLDIuMjY2NiAyNC4zNTcyLDIuMzg4NiAyNC4xNDcyLDIuNzQ2NiBMMjIuNDAzMiw1Ljc2NjYgQzIyLjE5NDIsNi4xMjk2IDIyLjMxODIsNi41OTM2IDIyLjY4MTIsNi44MDI2IiBpZD0iRmlsbC02Ij48L3BhdGg+CiAgICAgICAgICAgIDxwYXRoIGQ9Ik0xNi4wMDQ0LDUuMDE0MSBDMTYuNDIzNCw1LjAxNDEgMTYuNzYzNCw0LjY3NDEgMTcuMzM1NCw0LjI1NTEgTDE3LjMzNTQsMC43NjcxIEMxNi43Njg0LDAuMzQ4MSAxNi40MzI0LDAuMDA1MSAxNi4wMTM0LDAuMDAwMSBDMTUuNTk0NCwtMC4wMDQ5IDE1LjI1MTQsMC4zMzExIDE1LjMzNTQsMC43NTAxIEwxNS4zMzU0LDAuNzY3MSBMMTUuMzM1NCw0LjI1NTEgQzE1LjI0NjQsNC42NzQxIDE1LjU4NTQsNS4wMTQxIDE2LjAwNDQsNS4wMTQxIiBpZD0iRmlsbC04Ij48L3BhdGg+CiAgICAgICAgICAgIDxwYXRoIGQ9Ik04LjI5Miw2LjUyNDggQzguNTA0LDYuODg1OCA4Ljk2OSw3LjAwNjggOS4zMzEsNi43OTQ4IEM5LjY4OCw2LjU4NDggOS44MTEsNi4xMjY4IDkuNjA2LDUuNzY1OCBMNy44NjIsMi43NDU4IEM3LjY1NSwyLjM4MTggNy4xOTIsMi4yNTM4IDYuODI4LDIuNDYwOCBDNi40NjMsMi42Njc4IDYuMzM1LDMuMTMwOCA2LjU0MiwzLjQ5NDggQzYuNTQ0LDMuNDk4OCA2LjU0NiwzLjUwMTggNi41NDgsMy41MDQ4IEw4LjI5Miw2LjUyNDggWiIgaWQ9IkZpbGwtMTAiPjwvcGF0aD4KICAgICAgICAgICAgPGcgaWQ9Ikdyb3VwLTE0IiB0cmFuc2Zvcm09InRyYW5zbGF0ZSgwLjAwMDAwMCwgOC4yNjc3MDApIj4KICAgICAgICAgICAgICAgIDxwYXRoIGQ9Ik00LjE2MzEsMi4zODYgTDEuMTQzMSwwLjY0MiBDMC43ODIxLDAuNDMgMC4zMTcxLDAuNTUxIDAuMTA0MSwwLjkxMiBDLTAuMTA3OSwxLjI3MyAwLjAxMzEsMS43MzkgMC4zNzQxLDEuOTUgQzAuMzc4MSwxLjk1MiAwLjM4MTEsMS45NTQgMC4zODQxLDEuOTU2IEwzLjQwNTEsMy43IEMzLjc2NjEsMy45MTIgNC4yMzExLDMuNzkxIDQuNDQzMSwzLjQzIEM0LjY1NTEsMy4wNjkgNC41MzUxLDIuNjA0IDQuMTczMSwyLjM5MiBDNC4xNzAxLDIuMzkgNC4xNjYxLDIuMzg4IDQuMTYzMSwyLjM4NiBaIiBpZD0iRmlsbC0xMiI+PC9wYXRoPgogICAgICAgICAgICA8L2c+CiAgICAgICAgPC9nPgogICAgPC9nPgo8L3N2Zz4=;" parent="pEGuMoAMFqIg68gzwtf1-29" vertex="1">
          <mxGeometry x="20" y="7" width="21" height="19.73" as="geometry" />
        </mxCell>
        <mxCell id="G9iv7065l-6P10pQh_sO-2" value="Region" style="" parent="0" />
        <mxCell id="pEGuMoAMFqIg68gzwtf1-0" value="" style="rounded=0;whiteSpace=wrap;html=1;fontFamily=IBM Plex Sans;fontSource=fonts%2FIBMPlexSans-Regular.woff;fontSize=14;spacingBottom=-28;spacingTop=0;labelPosition=-100;verticalLabelPosition=top;align=center;verticalAlign=bottom;spacingLeft=9;spacing=0;expand=0;recursiveResize=0;spacingRight=0;container=1;collapsible=0;strokeColor=#666666;fillColor=#f5f5f5;fontColor=#333333;" parent="G9iv7065l-6P10pQh_sO-2" vertex="1">
          <mxGeometry x="150" y="-1620" width="1093" height="760" as="geometry">
            <mxRectangle width="670" as="alternateBounds" />
          </mxGeometry>
        </mxCell>
        <mxCell id="pEGuMoAMFqIg68gzwtf1-1" value="" style="rounded=0;whiteSpace=wrap;html=1;strokeColor=none;fillColor=#878d96;" parent="pEGuMoAMFqIg68gzwtf1-0" vertex="1">
          <mxGeometry width="7" height="37" as="geometry" />
        </mxCell>
        <mxCell id="pEGuMoAMFqIg68gzwtf1-2" value="MZR - Multi Zone Region" style="text;html=1;strokeColor=none;fillColor=none;align=left;verticalAlign=middle;whiteSpace=wrap;rounded=0;fontFamily=IBM Plex Sans;fontSource=fonts%2FIBMPlexSans-Regular.woff;fontSize=14;" parent="pEGuMoAMFqIg68gzwtf1-0" vertex="1">
          <mxGeometry x="51" y="8" width="168" height="20" as="geometry" />
        </mxCell>
        <mxCell id="pEGuMoAMFqIg68gzwtf1-3" style="edgeStyle=orthogonalEdgeStyle;rounded=0;orthogonalLoop=1;jettySize=auto;html=1;exitX=0;exitY=0.5;exitDx=0;exitDy=0;entryX=1.009;entryY=0.22;entryDx=0;entryDy=0;entryPerimeter=0;fontFamily=IBM Plex Sans;fontSource=fonts%2FIBMPlexSans-Regular.woff;fontSize=14;startArrow=oval;startFill=1;strokeColor=#198038;" parent="pEGuMoAMFqIg68gzwtf1-0" edge="1">
          <mxGeometry relative="1" as="geometry" />
        </mxCell>
        <mxCell id="pEGuMoAMFqIg68gzwtf1-4" value="" style="shape=image;aspect=fixed;image=data:image/svg+xml,PD94bWwgdmVyc2lvbj0iMS4wIiBlbmNvZGluZz0iVVRGLTgiPz4KPHN2ZyB3aWR0aD0iMjNweCIgaGVpZ2h0PSIyOHB4IiB2aWV3Qm94PSIwIDAgMjMgMjgiIHZlcnNpb249IjEuMSIgeG1sbnM9Imh0dHA6Ly93d3cudzMub3JnLzIwMDAvc3ZnIiB4bWxuczp4bGluaz0iaHR0cDovL3d3dy53My5vcmcvMTk5OS94bGluayI+CiAgICA8IS0tIEdlbmVyYXRvcjogU2tldGNoIDUzICg3MjUyMCkgLSBodHRwczovL3NrZXRjaGFwcC5jb20gLS0+CiAgICA8dGl0bGU+UmVnaW9uIEJsYWNrPC90aXRsZT4KICAgIDxkZXNjPkNyZWF0ZWQgd2l0aCBTa2V0Y2guPC9kZXNjPgogICAgPGcgaWQ9IlBhZ2UtMSIgc3Ryb2tlPSJub25lIiBzdHJva2Utd2lkdGg9IjEiIGZpbGw9Im5vbmUiIGZpbGwtcnVsZT0iZXZlbm9kZCI+CiAgICAgICAgPGcgaWQ9IlJlZ2lvbi1CbGFjayIgdHJhbnNmb3JtPSJ0cmFuc2xhdGUoMC4xMjUwMDAsIDAuMDAwMDAwKSIgZmlsbD0iIzAwMDAwMCI+CiAgICAgICAgICAgIDxwYXRoIGQ9Ik0xMS4wMDAyLDggQzkuMzQzMiw4IDguMDAwMiw5LjM0MyA4LjAwMDIsMTEgQzguMDAwMiwxMi42NTcgOS4zNDMyLDE0IDExLjAwMDIsMTQgQzEyLjY1NzIsMTQgMTQuMDAwMiwxMi42NTcgMTQuMDAwMiwxMSBDMTMuOTk4Miw5LjM0NCAxMi42NTYyLDguMDAyIDExLjAwMDIsOCBNMTEuMDAwMiwxNiBDOC4yMzgyLDE2IDYuMDAwMiwxMy43NjEgNi4wMDAyLDExIEM2LjAwMDIsOC4yMzkgOC4yMzgyLDYgMTEuMDAwMiw2IEMxMy43NjEyLDYgMTYuMDAwMiw4LjIzOSAxNi4wMDAyLDExIEMxNS45OTcyLDEzLjc2IDEzLjc2MDIsMTUuOTk3IDExLjAwMDIsMTYiIGlkPSJGaWxsLTEiPjwvcGF0aD4KICAgICAgICAgICAgPGcgaWQ9Ikdyb3VwLTUiPgogICAgICAgICAgICAgICAgPHBhdGggZD0iTTMuODEyNywxNi4zOTUgQzMuODEzNywxNi4zOTUgNC4wNDU3LDE2LjcwMyA0LjA5ODcsMTYuNzcgTDEwLjk5OTcsMjQuOTA4IEwxNy45MTA3LDE2Ljc1OCBDMTcuOTU0NywxNi43MDMgMTguMTg4NywxNi4zOTMgMTguMTg4NywxNi4zOTIgQzE5LjM2NjcsMTQuODQxIDIwLjAwMTcsMTIuOTQ3IDE5Ljk5OTcsMTEgQzE5Ljk5OTcsNi4wMjkgMTUuOTcwNywyIDEwLjk5OTcsMiBDNi4wMjk3LDIgMi4wMDA3LDYuMDI5IDIuMDAwNywxMSBDMS45OTc3LDEyLjk0OCAyLjYzNDcsMTQuODQzIDMuODEyNywxNi4zOTUgTDMuODEyNywxNi4zOTUgWiBNMTAuOTk5NywyOCBMMi41NjQ3LDE4LjA1MSBDMi41MTY3LDE3Ljk5NCAyLjIxNjcsMTcuNiAyLjIxNjcsMTcuNiBDMC43NzQ3LDE1LjcwMiAtMC4wMDMzLDEzLjM4MyAtMC4wMDAzLDExIEMtMC4wMDAzLDQuOTI1IDQuOTI0NywwIDEwLjk5OTcsMCBDMTcuMDc1NywwIDIxLjk5OTcsNC45MjUgMjEuOTk5NywxMSBDMjIuMDAyNywxMy4zODIgMjEuMjI1NywxNS43IDE5Ljc4NTcsMTcuNTk3IEwxOS43ODM3LDE3LjYgQzE5Ljc4MzcsMTcuNiAxOS40ODM3LDE3Ljk5NCAxOS40Mzg3LDE4LjA0NyBMMTAuOTk5NywyOCBaIiBpZD0iRmlsbC0zIj48L3BhdGg+CiAgICAgICAgICAgIDwvZz4KICAgICAgICA8L2c+CiAgICA8L2c+Cjwvc3ZnPg==;" parent="pEGuMoAMFqIg68gzwtf1-0" vertex="1">
          <mxGeometry x="22.66" y="6" width="17" height="20.69" as="geometry" />
        </mxCell>
        <mxCell id="_2cv4UtvErxWG1yDXugS-5" value="Resource Group" parent="0" />
        <mxCell id="pEGuMoAMFqIg68gzwtf1-10" value="" style="rounded=0;whiteSpace=wrap;html=1;fontFamily=IBM Plex Sans;fontSource=fonts%2FIBMPlexSans-Regular.woff;fontSize=14;fillColor=none;spacingBottom=-28;spacingTop=0;labelPosition=-100;verticalLabelPosition=top;align=center;verticalAlign=bottom;spacingLeft=9;spacing=0;expand=0;recursiveResize=0;spacingRight=0;container=1;collapsible=0;strokeColor=#FA4D56;strokeWidth=1;" parent="_2cv4UtvErxWG1yDXugS-5" vertex="1">
          <mxGeometry x="30" y="-1568" width="1204" height="718" as="geometry">
            <mxRectangle width="670" as="alternateBounds" />
          </mxGeometry>
        </mxCell>
        <mxCell id="pEGuMoAMFqIg68gzwtf1-11" value="" style="rounded=0;whiteSpace=wrap;html=1;strokeColor=none;fillColor=#FA4D56;" parent="pEGuMoAMFqIg68gzwtf1-10" vertex="1">
          <mxGeometry width="7" height="37" as="geometry" />
        </mxCell>
        <mxCell id="pEGuMoAMFqIg68gzwtf1-12" value="Resource&lt;br&gt;Group" style="text;html=1;strokeColor=none;fillColor=none;align=left;verticalAlign=middle;whiteSpace=wrap;rounded=0;fontFamily=IBM Plex Sans;fontSource=fonts%2FIBMPlexSans-Regular.woff;fontSize=14;" parent="pEGuMoAMFqIg68gzwtf1-10" vertex="1">
          <mxGeometry x="50.33" y="8" width="170" height="20" as="geometry" />
        </mxCell>
        <mxCell id="pEGuMoAMFqIg68gzwtf1-13" value="" style="shape=image;aspect=fixed;image=data:image/svg+xml,PD94bWwgdmVyc2lvbj0iMS4wIiBlbmNvZGluZz0iVVRGLTgiPz4KPHN2ZyB3aWR0aD0iMjlweCIgaGVpZ2h0PSIyOHB4IiB2aWV3Qm94PSIwIDAgMjkgMjgiIHZlcnNpb249IjEuMSIgeG1sbnM9Imh0dHA6Ly93d3cudzMub3JnLzIwMDAvc3ZnIiB4bWxuczp4bGluaz0iaHR0cDovL3d3dy53My5vcmcvMTk5OS94bGluayI+CiAgICA8IS0tIEdlbmVyYXRvcjogU2tldGNoIDUzICg3MjUyMCkgLSBodHRwczovL3NrZXRjaGFwcC5jb20gLS0+CiAgICA8dGl0bGU+UmVzb3VyY2UgR3JvdXAgQmxhY2s8L3RpdGxlPgogICAgPGRlc2M+Q3JlYXRlZCB3aXRoIFNrZXRjaC48L2Rlc2M+CiAgICA8ZGVmcz4KICAgICAgICA8cG9seWdvbiBpZD0icGF0aC0xIiBwb2ludHM9IjAgMCAyOCAwIDI4IDI4IDAgMjgiPjwvcG9seWdvbj4KICAgIDwvZGVmcz4KICAgIDxnIGlkPSJQYWdlLTEiIHN0cm9rZT0ibm9uZSIgc3Ryb2tlLXdpZHRoPSIxIiBmaWxsPSJub25lIiBmaWxsLXJ1bGU9ImV2ZW5vZGQiPgogICAgICAgIDxnIGlkPSJSZXNvdXJjZS1Hcm91cC1CbGFjayIgdHJhbnNmb3JtPSJ0cmFuc2xhdGUoMC4zNzUwMDAsIDAuMDAwMDAwKSI+CiAgICAgICAgICAgIDxtYXNrIGlkPSJtYXNrLTIiIGZpbGw9IndoaXRlIj4KICAgICAgICAgICAgICAgIDx1c2UgeGxpbms6aHJlZj0iI3BhdGgtMSI+PC91c2U+CiAgICAgICAgICAgIDwvbWFzaz4KICAgICAgICAgICAgPGcgaWQ9IkNsaXAtMiI+PC9nPgogICAgICAgICAgICA8cGF0aCBkPSJNOCwyMCBMMjAsMjAgTDIwLDggTDgsOCBMOCwyMCBaIE0yMCwyMiBMOCwyMiBDNi44OTYsMjEuOTk5IDYuMDAxLDIxLjEwNCA2LDIwIEw2LDggQzYuMDAxLDYuODk2IDYuODk2LDYuMDAxIDgsNiBMMjAsNiBDMjEuMTA0LDYuMDAxIDIxLjk5OSw2Ljg5NiAyMiw4IEwyMiwyMCBDMjEuOTk5LDIxLjEwNCAyMS4xMDQsMjEuOTk5IDIwLDIyIEwyMCwyMiBaIiBpZD0iRmlsbC0xIiBmaWxsPSIjMDAwMDAwIiBtYXNrPSJ1cmwoI21hc2stMikiPjwvcGF0aD4KICAgICAgICAgICAgPHBhdGggZD0iTTUuOTk5OCwyOCBMMS45OTk4LDI4IEMwLjg5NTgsMjcuOTk5IDAuMDAwOCwyNy4xMDQgLTAuMDAwMiwyNiBMLTAuMDAwMiwyIEMwLjAwMDgsMC44OTYgMC44OTU4LDAuMDAxIDEuOTk5OCwwIEw1Ljk5OTgsMCBMNS45OTk4LDIgTDEuOTk5OCwyIEwxLjk5OTgsMjYgTDUuOTk5OCwyNiBMNS45OTk4LDI4IFoiIGlkPSJGaWxsLTMiIGZpbGw9IiMwMDAwMDAiIG1hc2s9InVybCgjbWFzay0yKSI+PC9wYXRoPgogICAgICAgICAgICA8cGF0aCBkPSJNMjYuMDAwMywyOCBMMjIuMDAwMywyOCBMMjIuMDAwMywyNiBMMjYuMDAwMywyNiBMMjYuMDAwMywyIEwyMi4wMDAzLDIgTDIyLjAwMDMsMCBMMjYuMDAwMywwIEMyNy4xMDQzLDAuMDAxIDI3Ljk5OTMsMC44OTYgMjguMDAwMywyIEwyOC4wMDAzLDI2IEMyNy45OTkzLDI3LjEwNCAyNy4xMDQzLDI3Ljk5OSAyNi4wMDAzLDI4IiBpZD0iRmlsbC00IiBmaWxsPSIjMDAwMDAwIiBtYXNrPSJ1cmwoI21hc2stMikiPjwvcGF0aD4KICAgICAgICA8L2c+CiAgICA8L2c+Cjwvc3ZnPg==;" parent="pEGuMoAMFqIg68gzwtf1-10" vertex="1">
          <mxGeometry x="20" y="8.840000000000055" width="20" height="19.31" as="geometry" />
        </mxCell>
        <mxCell id="fpsseA4Z9fjPV2AbE0Nl-0" value="cp.icr.io/cp/cp4a/odm" style="shape=image;aspect=fixed;image=data:image/svg+xml,PD94bWwgdmVyc2lvbj0iMS4wIiBlbmNvZGluZz0iVVRGLTgiPz4KPHN2ZyB3aWR0aD0iNjI4cHgiIGhlaWdodD0iNjE0cHgiIHZpZXdCb3g9IjAgMCA2MjggNjE0IiB2ZXJzaW9uPSIxLjEiIHhtbG5zPSJodHRwOi8vd3d3LnczLm9yZy8yMDAwL3N2ZyIgeG1sbnM6eGxpbms9Imh0dHA6Ly93d3cudzMub3JnLzE5OTkveGxpbmsiPgogICAgPCEtLSBHZW5lcmF0b3I6IFNrZXRjaCA1MyAoNzI1MjApIC0gaHR0cHM6Ly9za2V0Y2hhcHAuY29tIC0tPgogICAgPHRpdGxlPkRvY2tlcjwvdGl0bGU+CiAgICA8ZGVzYz5DcmVhdGVkIHdpdGggU2tldGNoLjwvZGVzYz4KICAgIDxnIGlkPSJQYWdlLTEiIHN0cm9rZT0ibm9uZSIgc3Ryb2tlLXdpZHRoPSIxIiBmaWxsPSJub25lIiBmaWxsLXJ1bGU9ImV2ZW5vZGQiPgogICAgICAgIDxnIGlkPSJEb2NrZXIiIHRyYW5zZm9ybT0idHJhbnNsYXRlKDcuMjMxNjY5LCA3LjAwMDAwMCkiPgogICAgICAgICAgICA8ZyBpZD0iQmlnLUZpeC1Db3B5IiBmaWxsPSIjRkZGRkZGIiBzdHJva2U9IiM3ODc3NzgiIHN0cm9rZS13aWR0aD0iMTQiPgogICAgICAgICAgICAgICAgPGcgaWQ9IlRoeWNvdGljLUNvcHkiPgogICAgICAgICAgICAgICAgICAgIDxnIGlkPSJHcm91cC04My1Db3B5Ij4KICAgICAgICAgICAgICAgICAgICAgICAgPGcgaWQ9IldhdHNvbi1TZXJ2aWNlcy1Db3B5Ij4KICAgICAgICAgICAgICAgICAgICAgICAgICAgIDxnIGlkPSJDbG91ZC1Gb3VuZGFyeS0tQ29weSI+CiAgICAgICAgICAgICAgICAgICAgICAgICAgICAgICAgPGcgaWQ9IkNsb3VkLUZvdW5kYXJ5Ij4KICAgICAgICAgICAgICAgICAgICAgICAgICAgICAgICAgICAgPHBhdGggZD0iTTQ5NC45ODYsNjAwIEwxMTguMDEzLDYwMCBDNTMuMTA2LDYwMCAwLDU0Ni44OTQgMCw0ODEuOTg2IEwwLDExOC4wMTQgQzAsNTMuMTA2IDUzLjEwNiwwIDExOC4wMTMsMCBMNDk0Ljk4NiwwIEM1NTkuODkzLDAgNjEzLDUzLjEwNiA2MTMsMTE4LjAxNCBMNjEzLDQ4MS45ODYgQzYxMyw1NDYuODk0IDU1OS44OTMsNjAwIDQ5NC45ODYsNjAwIiBpZD0iUmVjdGFuZ2xlIj48L3BhdGg+CiAgICAgICAgICAgICAgICAgICAgICAgICAgICAgICAgPC9nPgogICAgICAgICAgICAgICAgICAgICAgICAgICAgPC9nPgogICAgICAgICAgICAgICAgICAgICAgICA8L2c+CiAgICAgICAgICAgICAgICAgICAgPC9nPgogICAgICAgICAgICAgICAgPC9nPgogICAgICAgICAgICA8L2c+CiAgICAgICAgICAgIDxnIGlkPSJMb2dvLWRvY2tlciIgdHJhbnNmb3JtPSJ0cmFuc2xhdGUoMTI4LjUwMDAwMCwgMTM2LjAwMDAwMCkiPgogICAgICAgICAgICAgICAgPHBhdGggZD0iTTI2My41MTMyMTIsMjc5Ljk4NDU2NyBDMjcxLjUyMTEwOSwyNzMuMTIyNjg5IDI3OS41MjkwMDYsMjY2LjI1MzY5MiAyODcuNTA4NDMxLDI1OS4zNjMzNDEgQzI5MC4yMzQ2NzYsMjU3LjAwNzI0IDI5My4yMzE0MDksMjU0LjU2NTcyMSAyOTUuOTM2Mjk5LDI1Mi4wOTU3MjkgQzI5My43NjUyNjksMjQ5LjM2MjM2NyAyOTAuMTM1MDIyLDI0Ny4zODM1MjcgMjg3LjA1Mjg3MSwyNDYuMjA5MDM1IEMyODAuODMxNjI0LDI0My44Mzg2OTcgMjc0LjY5NTc5NiwyNDQuNjM1OTI4IDI2OC45OTQxNzMsMjQ3LjkzMTYyMyBDMjYxLjUyNzI1MywyNTIuMjQ1MjEgMjU4LjM0NTQ0OCwyNTkuMTE0MjA3IDI1OC42MjMwNTYsMjY3LjY1NTk2NCBDMjU4LjcyOTgyOCwyNzEuMDIyODQgMjU5LjY0MDk0OCwyNzQuMjYxNTkgMjYxLjQyNzU5OSwyNzcuMTMwMTk2IEMyNjIuMDUzOTk1LDI3OC4xMzM4NTMgMjYyLjc1MTU3MiwyNzkuMDgwNTY0IDI2My41MTMyMTIsMjc5Ljk4NDU2NyBMMjYzLjUxMzIxMiwyNzkuOTg0NTY3IFogTTI3Mi43NzM5LDI4Ni40OTA1MzkgQzI3Ni42OTU5OSwyODcuODU3MjIgMjgxLjE3MzI5NSwyODcuNjY1MDMgMjg1LjIwMjE1NywyODYuOTYwMzM1IEMyODcuMjU5Mjk3LDI4Ni4wODQ4MDUgMjkyLjUyNjcxNCwyODMuNzg1NjQ5IDI5NC40Njk5NjQsMjg0LjEyNzMxOSBMMjk0Ljc3NjA0MywyODQuMTc3MTQ2IEwyOTUuMDUzNjUsMjg0LjMxMjM5MSBDMjk2LjIzNTI2LDI4NC44ODg5NTkgMjk3LjM2NzA0MywyODUuNzAwNDI2IDI5Ny45NzIwODQsMjg2Ljg5NjI3MiBDMjk5LjM4MTQ3NCwyODkuNzIyMTcgMjk4LjcwNTI1MiwyOTIuNTU1MTg2IDI5NS45MzYyOTksMjk0LjE1Njc2NiBMMjk1LjAxMDk0MiwyOTQuNjkwNjI2IEMyODQuNzgyMTg3LDMwMC41OTg2NzQgMjczLjg5ODU2NSwyOTkuNzgwMDg5IDI2My42OTgyODMsMjk0LjI2MzUzOCBDMjU4LjgyMjM2MywyOTEuNjI5ODI5IDI1NS4wOTI0NjMsMjg3LjcxNDg1NyAyNTIuMzM3NzQ2LDI4Mi45NDU3MDkgTDI1MS42OTcxMTQsMjgxLjgyODE2MyBDMjQ1LjEyNzA3OSwyNzAuNDUzMzg5IDI0Ni4wMTY4NDUsMjU4LjQ4NzgxMSAyNTMuNDE5NzAyLDI0Ny42NjgyNTIgQzI1NS45NzUxMTEsMjQzLjkzMTIzMyAyNTkuMzIwNjMyLDI0MS4wNDEyNzIgMjYzLjIyODQ4NiwyMzguNzg0ODI0IEwyNjQuNzA5MDU4LDIzNy45MzA2NDkgQzI3NC4zNDcwMDcsMjMyLjM3MTM4OCAyODQuNjY4Mjk3LDIzMi43NDg2NDkgMjk0LjU2OTYxNywyMzcuNjMxNjg3IEMyOTkuODg2ODYxLDI0MC4yNTgyNzcgMzA0LjIwMDQ0OSwyNDQuMTczMjUgMzA3LjE2ODcwOSwyNDkuMzE5NjU4IEwzMDcuNzAyNTY5LDI1MC4yNDUwMTUgQzMwOS44NTkzNjMsMjUzLjk4MjAzNCAzMDcuMDYxOTM3LDI1Ny4yNDIxMzggMzA0LjE3OTA5NCwyNTkuNDcwMTEzIEMzMDAuODMzNTczLDI2Mi4wNTM5OTUgMjk3LjQ1MjQ2LDI2NS4xNjQ2MTggMjk0LjIzNTA2NSwyNjcuOTMzNTcxIEMyODcuMDc0MjI1LDI3NC4xMTIxMDkgMjc5LjkyNzYyMiwyODAuMzA0ODgzIDI3Mi43NzM5LDI4Ni40OTA1MzkgWiBNMzQ5LjQ0MzI5LDIzNC43NDE3MjYgTDM1MC41MTEwMDksMjM0Ljc0MTcyNiBDMzUzLjc0OTc1OSwyMzQuNzQxNzI2IDM1NS45MDY1NTMsMjM2LjkxOTg3NCAzNTUuOTA2NTUzLDI0MC4xMzcyNjkgQzM1NS45MDY1NTMsMjQ0LjYwMDMzNyAzNTEuNjM1Njc0LDI0NS43NDYzNTcgMzQ3Ljk0MTM2NCwyNDUuNzQ2MzU3IEMzNDMuMDkzOTE3LDI0NS43NDYzNTcgMzM4LjQ3NDI1LDI0OC42NzkwMjcgMzM1LjEzNTg0NiwyNTEuOTY3NjAzIEMzMzAuOTcxNzQsMjU2LjA3NDc2NSAzMjkuMTQ5NDk4LDI2MS4zMjc5NDUgMzI5LjE0OTQ5OCwyNjcuMTA3ODY4IEwzMjkuMTQ5NDk4LDI5My4yMjQyOTEgQzMyOS4xNDk0OTgsMjk2LjIyMTAyNCAzMjcuMjg0NTQ4LDI5OC42MTk4MzQgMzI0LjE4MTA0MywyOTguNjE5ODM0IEwzMjMuMzMzOTg1LDI5OC42MTk4MzQgQzMyMC4yMzA0OCwyOTguNjE5ODM0IDMxOC4zNjU1MywyOTYuMjEzOTA2IDMxOC4zNjU1MywyOTMuMjI0MjkxIEwzMTguMzY1NTMsMjY1LjYxMzA2IEMzMTguMzY1NTMsMjU1LjAwNzA0NSAzMjMuNTI2MTc1LDI0Ni4zNTg1MTYgMzMyLjEzMTk5NSwyNDAuMjg2NzUgQzMzNy4yNjQxNjcsMjM2LjY1NjUwMyAzNDMuMTUwODYyLDIzNC43NDE3MjYgMzQ5LjQ0MzI5LDIzNC43NDE3MjYgWiBNMjE1LjAwMzE0OCwyNTMuMjc3MzM5IEMyMTkuMTk1NzI4LDI0OS4wODQ3NiAyMjMuMzk1NDI1LDI0NC44OTIxODEgMjI3LjY1MjA2NywyNDAuNzcwNzgzIEMyMjguODQwNzk1LDIzOS42MTc2NDYgMjMzLjMyNTIxOCwyMzQuNzQ4ODQ0IDIzNS4wOTA1MTQsMjM0Ljc0ODg0NCBMMjM3LjAxOTUyOCwyMzQuNzQ4ODQ0IEwyMzcuMjQwMTksMjM0Ljc5MTU1MyBDMjM5LjcwMzA2MywyMzUuMzA0MDU4IDI0MS41NDY2NTksMjM2Ljg2MjkyOSAyNDEuNTQ2NjU5LDIzOS41MDM3NTYgTDI0MS41NDY2NTksMjQwLjU3MTQ3NSBDMjQxLjU0NjY1OSwyNDIuMzcyMzYyIDIzOS40MzI1NzQsMjQ0LjQ3MjIxMSAyMzguMjcyMzE5LDI0NS43MDM2NDggQzIzNS43OTUyMDksMjQ4LjMzMDIzOCAyMzMuMTgyODU1LDI1MC44NzE0MTEgMjMwLjY0ODgwMSwyNTMuNDQxMDU2IEwyMTcuNjE1NTAzLDI2Ni42NjY1NDQgQzIyMy4yMjQ1OSwyNzIuMjg5ODY3IDIyOC44MzM2NzcsMjc3LjkyMDMwOSAyMzQuNDAwMDU2LDI4My41ODYzNDEgQzIzNS45Mzc1NzIsMjg1LjE1MjMzIDIzNy40ODIyMDYsMjg2LjcyNTQzNyAyMzguOTk4MzY4LDI4OC4zMTI3OCBDMjM5LjUzMjIyOCwyODguODc1MTEzIDI0MC4zMjIzNDEsMjg5LjU3OTgwOCAyNDAuNzc3OTAxLDI5MC4zNjI4MDIgQzI0MS4yNjE5MzQsMjkxLjA5NTk2OSAyNDEuNTUzNzc3LDI5MS45MjE2NzMgMjQxLjU1Mzc3NywyOTIuNzk3MjAzIEwyNDEuNTUzNzc3LDI5My45MTQ3NDkgTDI0MS40ODk3MTQsMjk0LjE3MTAwMiBDMjQwLjg4NDY3MywyOTYuNjMzODc1IDIzOS4zMTg2ODQsMjk4LjYxOTgzNCAyMzYuNTkyNDQsMjk4LjYxOTgzNCBMMjM1LjczODI2NCwyOTguNjE5ODM0IEMyMzMuOTUxNjEzLDI5OC42MTk4MzQgMjMxLjkzNzE4MiwyOTYuNTk4Mjg1IDIzMC43MTI4NjQsMjk1LjQ0NTE0OCBDMjI4LjE5MzA0NSwyOTMuMDY3NjkyIDIyNS43NjU3NjMsMjkwLjU3NjM0NiAyMjMuMjk1NzcxLDI4OC4xNDkwNjMgTDIxNS4wMTczODUsMjgwLjAyMDE1OCBMMjE1LjAxNzM4NSwyOTMuMDEwNzQ3IEMyMTUuMDE3Mzg1LDI5Ni4wMDAzNjIgMjEzLjE0NTMxNiwyOTguNDA2MjkgMjEwLjA0ODkyOSwyOTguNDA2MjkgTDIwOS4yMDE4NzIsMjk4LjQwNjI5IEMyMDYuMTA1NDg1LDI5OC40MDYyOSAyMDQuMjMzNDE2LDI5Ni4wMDAzNjIgMjA0LjIzMzQxNiwyOTMuMDEwNzQ3IEwyMDQuMjMzNDE2LDIxOS44MDA3NjkgQzIwNC4yMzM0MTYsMjE2LjgwNDAzNiAyMDYuMTA1NDg1LDIxNC40MTIzNDQgMjA5LjIwMTg3MiwyMTQuNDEyMzQ0IEwyMTAuMDQ4OTI5LDIxNC40MTIzNDQgQzIxMy4xNDUzMTYsMjE0LjQxMjM0NCAyMTUuMDE3Mzg1LDIxNi44MDQwMzYgMjE1LjAxNzM4NSwyMTkuODAwNzY5IEwyMTUuMDE3Mzg1LDI1My4yNzczMzkgTDIxNS4wMDMxNDgsMjUzLjI3NzMzOSBaIE0xODAuMDE3NTM0LDI0NS45NzQxMzcgQzE3OC4zODc0ODIsMjQ1LjIxMjQ5NyAxNzUuMzQwOTIyLDI0NC45NTYyNDQgMTczLjU4Mjc0NCwyNDQuODkyMTgxIEMxNjQuNTcxMTksMjQ0LjU1MDUxIDE1OC4wNTA5ODIsMjQ5LjYyNTczOCAxNTQuMjI4NTQ2LDI1Ny41NzY2OSBDMTUyLjkwNDU3MywyNjAuMzE3MTcxIDE1Mi4zMDY2NSwyNjMuMjIxMzY4IDE1Mi4zMDY2NSwyNjYuMjUzNjkyIEMxNTIuMzA2NjUsMjc1LjQ5MzAyNiAxNTcuMTU0MDk3LDI4MS45NjM0MDcgMTY1LjQwNDAxMSwyODUuOTA2ODUyIEMxNjguNDE0OTgxLDI4Ny4zNDQ3MTQgMTcyLjMwODU5OCwyODcuNjIyMzIyIDE3NS41OTcxNzUsMjg3LjYyMjMyMiBDMTc4LjQ5NDI1NCwyODcuNjIyMzIyIDE4Mi41ODcxOCwyODUuODQ5OTA3IDE4NS4xNTY4MjUsMjg0LjYyNTU4OCBMMTg1LjYwNTI2NywyODQuNDEyMDQ0IEwxODcuNTk4MzQ0LDI4NC40MTIwNDQgTDE4Ny44MTkwMDYsMjg0LjQ1NDc1MyBDMTkwLjI3NDc2MSwyODQuOTY3MjU5IDE5Mi4xMjU0NzUsMjg2LjUxOTAxMSAxOTIuMTI1NDc1LDI4OS4xNTk4MzggTDE5Mi4xMjU0NzUsMjkwLjIyNzU1NyBDMTkyLjEyNTQ3NSwyOTYuNzk3NTkyIDE4MC4xMjQzMDYsMjk4LjI5OTUxOCAxNzUuNTQwMjMsMjk4LjYxOTgzNCBDMTU5LjM4MjA3MiwyOTkuNzM3MzgxIDE0Ny4yOTU0ODYsMjkwLjg2MTA3MSAxNDIuNjgyOTM3LDI3NS40NTAzMTcgQzE0MS44Nzg1ODgsMjcyLjc3MzkgMTQxLjUyMjY4MiwyNzAuMTExNzE5IDE0MS41MjI2ODIsMjY3LjMyODUzIEwxNDEuNTIyNjgyLDI2NS4xOTMwOTEgQzE0MS41MjI2ODIsMjUzLjQ5ODAwMSAxNDcuMzIzOTU4LDI0NC4yMzAxOTUgMTU3LjM2MDUyMywyMzguMjcyMzE5IEMxNjIuMDIyODk5LDIzNS41MDMzNjYgMTY3LjE4MzU0NCwyMzQuMTA4MjEyIDE3Mi42MDc1NiwyMzQuMTA4MjEyIEwxNzQuNzQyOTk5LDIzNC4xMDgyMTIgQzE4MC40OTQ0NDksMjM0LjEwODIxMiAxODUuNzkwMzM5LDIzNS43MzgyNjQgMTkwLjUzMTAxNCwyMzguOTg0MTMyIEwxOTAuOTIyNTExLDIzOS4yNTQ2MjEgTDE5MS4xNzE2NDYsMjM5LjY2MDM1NCBDMTkxLjY4NDE1MSwyNDAuNTA3NDEyIDE5Mi4xMjU0NzUsMjQxLjQ4OTcxNCAxOTIuMTI1NDc1LDI0Mi41MDc2MDcgTDE5Mi4xMjU0NzUsMjQzLjU3NTMyNyBDMTkyLjEyNTQ3NSwyNDYuMzMwMDQzIDE5MC4wNjgzMzUsMjQ3LjgxMDYxNSAxODcuNTc2OTksMjQ4LjI4NzUyOSBMMTg3LjM3MDU2NCwyNDguMzIzMTIgTDE4Ni43Mjk5MzIsMjQ4LjMyMzEyIEMxODUuMTE0MTE2LDI0OC4zMTYwMDIgMTgxLjQ1NTM5NywyNDYuNjQzMjQxIDE4MC4wMTc1MzQsMjQ1Ljk3NDEzNyBaIE04MS42NjYzMTc2LDI2Ni40NzQzNTQgQzgxLjY2NjMxNzYsMjc0LjY3NDQ0MSA4NS42ODgwNjE2LDI4MC43MDM0OTggOTIuNjE0MDAzMSwyODQuOTQ1OTA0IEM5NS44NjY5ODksMjg2LjkzODk4MSA5OS40NDc0MDksMjg3LjgzNTg2NSAxMDMuMjQ4NDkxLDI4Ny44MzU4NjUgQzExMS4zNDg5MjQsMjg3LjgzNTg2NSAxMTcuMzM1MjcyLDI4My43Mjg3MDQgMTIxLjUwNjQ5NywyNzYuODg4MTggQzEyMy40OTI0NTYsMjczLjYyODA3NiAxMjQuMzg5MzQsMjcwLjA0NzY1NiAxMjQuMzg5MzQsMjY2LjI1MzY5MiBDMTI0LjM4OTM0LDI1OC42MzAxNzQgMTIwLjcxNjM4NSwyNTIuODA3NTQzIDExNC40MzgxOTMsMjQ4LjU4NjQ5MSBDMTExLjAwMDEzNiwyNDYuMjczMDk4IDEwNy4xNzA1ODEsMjQ1LjExMjg0MyAxMDMuMDI3ODI5LDI0NS4xMTI4NDMgQzkzLjk5NDkyMDYsMjQ1LjExMjg0MyA4Ny40ODg5NDg4LDI0OS42NzU1NjUgODMuNTg4MjEzLDI1Ny43OTAyMzQgQzgyLjI2NDI0MDYsMjYwLjUyMzU5NyA4MS42NjYzMTc2LDI2My40MzQ5MTIgODEuNjY2MzE3NiwyNjYuNDc0MzU0IFogTTEwMS45NjAxMDksMjM0LjMxNDYzOCBMMTAzLjQ1NDkxNywyMzQuMzE0NjM4IEMxMTUuOTU0MzU1LDIzNC4zMTQ2MzggMTI1LjQ1NzA2LDI0MC4zNzkyODYgMTMxLjQ3ODk5OSwyNTEuMjg0MjYyIEMxMzMuODg0OTI3LDI1NS42NDc2NzcgMTM1LjE3MzMwOSwyNjAuNDA5NzA2IDEzNS4xNzMzMDksMjY1LjM5OTUxNiBMMTM1LjE3MzMwOSwyNjcuNTM0OTU2IEMxMzUuMTczMzA5LDI3OS4yMzAwNDUgMTI5LjQwNzYyMywyODguNTQ3Njc5IDExOS4zMjgzNDksMjk0LjQ2Mjg0NSBDMTE0LjY1ODg1NSwyOTcuMjAzMzI2IDEwOS41MDUzMjgsMjk4LjYxOTgzNCAxMDQuMDk1NTQ5LDI5OC42MTk4MzQgTDEwMS45NjAxMDksMjk4LjYxOTgzNCBDOTAuMjY1MDE5OSwyOTguNjE5ODM0IDgwLjk2ODc0MDcsMjkyLjgzOTkxMiA3NS4wMzkzMzc2LDI4Mi43NzQ4NzQgQzcyLjI4NDYyMDksMjc4LjEwNTM4IDcwLjg4MjM0OSwyNzIuOTUxODUzIDcwLjg4MjM0OSwyNjcuNTM0OTU2IEw3MC44ODIzNDksMjY1LjM5OTUxNiBDNzAuODgyMzQ5LDI1My43MDQ0MjcgNzYuNjgzNjI1OCwyNDQuNDM2NjIgODYuNzIwMTkwNiwyMzguNDcxNjI3IEM5MS4zODI1NjY1LDIzNS43MDI2NzQgOTYuNTQzMjExNSwyMzQuMzE0NjM4IDEwMS45NjAxMDksMjM0LjMxNDYzOCBaIE0xMS4wMzMxMDMxLDI2Ni40NzQzNTQgQzExLjAzMzEwMzEsMjc0LjkyMzU3NiAxNS4xMjYwMjg1LDI4MS4yNzI5NDkgMjIuNTI4ODg0OCwyODUuMzIzMTY1IEMyNS41MTg0OTk4LDI4Ni45NjAzMzUgMjguNzcxNDg1NywyODcuODQyOTg0IDMyLjE4ODE4ODYsMjg3Ljg0Mjk4NCBDNDAuNDgwODExMywyODcuODQyOTg0IDQ2LjYzMDg3NjUsMjgzLjkzNTEzIDUwLjg2NjE2NDUsMjc2LjkwOTUzNCBDNTIuODM3ODg2OCwyNzMuNjQyMzEyIDUzLjc1NjEyNTcsMjcwLjA2OTAxIDUzLjc1NjEyNTcsMjY2LjI2MDgxIEM1My43NTYxMjU3LDI1OC45MzYyNTMgNTAuMjg5NTk1OSwyNTMuMjI3NTEyIDQ0LjM4ODY2NTMsMjQ4Ljk3Nzk4OCBDNDAuODA4MjQ1MywyNDYuNDA4MzQzIDM2Ljc4NjUwMTMsMjQ1LjExMjg0MyAzMi4zOTQ2MTQ0LDI0NS4xMTI4NDMgQzIzLjM2MTcwNjEsMjQ1LjExMjg0MyAxNi44NTU3MzQzLDI0OS42NzU1NjUgMTIuOTU0OTk4NSwyNTcuNzkwMjM0IEMxMS42MzEwMjYxLDI2MC41MjM1OTcgMTEuMDMzMTAzMSwyNjMuNDM0OTEyIDExLjAzMzEwMzEsMjY2LjQ3NDM1NCBaIE01My43NTYxMjU3LDI0Mi4zNjUyNDQgTDUzLjc1NjEyNTcsMjE5LjU4NzIyNSBDNTMuNzU2MTI1NywyMTYuNTk3NjEgNTUuNjI4MTk0MiwyMTQuMTkxNjgyIDU4LjcyNDU4MTIsMjE0LjE5MTY4MiBMNTkuNTc4NzU2OSwyMTQuMTkxNjgyIEM2Mi42NzUxNDM5LDIxNC4xOTE2ODIgNjQuNTQwMDk0MywyMTYuNTk3NjEgNjQuNTQwMDk0MywyMTkuNTg3MjI1IEw2NC41NDAwOTQzLDI2Ny41MzQ5NTYgQzY0LjU0MDA5NDMsMjc5LjIzMDA0NSA1OC43NjAxNzE5LDI4OC41MzM0NDIgNDguNjk1MTM0NSwyOTQuNDU1NzI3IEM0NC4wMjU2NDA2LDI5Ny4yMDMzMjYgMzguODcyMTEzNywyOTguNjEyNzE2IDMzLjQ2MjMzNDEsMjk4LjYxMjcxNiBMMzEuMzE5Nzc2NiwyOTguNjEyNzE2IEMxOS42MjQ2ODczLDI5OC42MTI3MTYgMTAuMzM1NTI2MywyOTIuODMyNzkzIDQuMzk5MDA0OTksMjgyLjc2Nzc1NiBDMS42NDQyODgyNywyNzguMDk4MjYyIDAuMjQyMDE2NDU2LDI3Mi45NDQ3MzUgMC4yNDIwMTY0NTYsMjY3LjUyNzgzOCBMMC4yNDIwMTY0NTYsMjY1LjM5MjM5OCBDMC4yNDIwMTY0NTYsMjUzLjY5NzMwOSA2LjAyMTkzODg3LDI0NC4zOTM5MTIgMTYuMDc5ODU4MSwyMzguNDU3MzkgQzIwLjc0OTM1MiwyMzUuNzAyNjc0IDI1LjkwMjg3ODksMjM0LjMwMDQwMiAzMS4zMTk3NzY2LDIzNC4zMDA0MDIgTDMzLjQ2MjMzNDEsMjM0LjMwMDQwMiBDNDEuMzc3Njk1OCwyMzQuMzE0NjM4IDQ4LjA5MDA5MzQsMjM3LjM4MjU1MyA1My43NTYxMjU3LDI0Mi4zNjUyNDQgWiIgaWQ9ImRvY2tlcl8yXyIgZmlsbD0iIzM5NEQ1NCI+PC9wYXRoPgogICAgICAgICAgICAgICAgPHBhdGggZD0iTTIwNS4zMDExMzYsNjMuODQyNTE3NCBMMjM3LjEzMzQxOCw2My44NDI1MTc0IEwyMzcuMTMzNDE4LDk2LjM3OTQ5NDUgTDI1My4yMjc1MTIsOTYuMzc5NDk0NSBDMjYwLjY1ODg0MSw5Ni4zNzk0OTQ1IDI2OC4zMDM3MTQsOTUuMDU1NTIyMSAyNzUuMzQzNTQ1LDkyLjY3MDk0ODIgQzI3OC44MDI5NTcsOTEuNDk2NDU2NiAyODIuNjgyMzM5LDg5Ljg2NjQwNDYgMjg2LjA5MTkyMyw4Ny44MTYzODI4IEMyODEuNjAwMzgzLDgxLjk1MTA0MjggMjc5LjMwODM0NCw3NC41NDEwNjg0IDI3OC42MzIxMjIsNjcuMjQ0OTg0MSBDMjc3LjcxMzg4Myw1Ny4zMTUxOTEyIDI3OS43MjExOTYsNDQuMzg4NjY1MyAyODYuNDQwNzEyLDM2LjYxNTY2NjEgTDI4OS43ODYyMzMsMzIuNzQzNDAyOCBMMjkzLjc3MjM4NywzNS45NDY1NjE4IEMzMDMuODA4OTUyLDQ0LjAxMTQwNDMgMzEyLjI1MTA1NSw1NS4yNzk0MDU4IDMxMy43Mzg3NDQsNjguMTI3NjMyMyBDMzI1LjgyNTMzMSw2NC41NzU2ODQ5IDM0MC4wMTg4ODQsNjUuNDE1NjI0NCAzNTAuNjY3NjA4LDcxLjU2NTY4OTYgTDM1NS4wMzgxNDEsNzQuMDg1NTA4IEwzNTIuNzM4OTg0LDc4LjU3NzA0ODcgQzM0My43Mjc0Myw5Ni4xNTg4MzI0IDMyNC44OTI4NTYsMTAxLjYxMTMyMSAzMDYuNDc4MjUxLDEwMC42NDMyNTUgQzI3OC45MjM5NjUsMTY5LjI4MzM5MyAyMTguOTI1MjM5LDIwMS43Nzc2NjEgMTQ2LjE3NzkzOSwyMDEuNzc3NjYxIEMxMDguNTk0MjA3LDIwMS43Nzc2NjEgNzQuMTEzOTgwNSwxODcuNzI2NDcgNTQuNDgyMTc1MSwxNTQuMzg1MTQ0IEw1NC4xNjE4NTkyLDE1My44MzcwNDggTDUxLjMwMDM3MDUsMTQ4LjAxNDQxNyBDNDQuNjY2MjcyNCwxMzMuMzM2ODMxIDQyLjQ1OTY1MTcsMTE3LjI1Njk3MyA0My45NTQ0NTkzLDEwMS4xOTEzNTEgTDQ0LjQwMjkwMTUsOTYuMzc5NDk0NSBMNzEuNjIyNjM0Nyw5Ni4zNzk0OTQ1IEw3MS42MjI2MzQ3LDYzLjg0MjUxNzQgTDEwMy40NDc3OTksNjMuODQyNTE3NCBMMTAzLjQ0Nzc5OSwzMi4wMTAyMzU0IEwxNjcuMTA1MjQ1LDMyLjAxMDIzNTQgTDE2Ny4xMDUyNDUsMC4xODUwNzE0MDcgTDIwNS4zMDExMzYsMC4xODUwNzE0MDcgTDIwNS4zMDExMzYsNjMuODQyNTE3NCBaIiBpZD0ib3V0bGluZV80XyIgZmlsbD0iIzM5NEQ1NCI+PC9wYXRoPgogICAgICAgICAgICAgICAgPHBhdGggZD0iTTMwOC40Mjg2MTksNzUuODc5Mjc3IEMzMTAuNTY0MDU4LDU5LjI5NDAzMTcgMjk4LjE1MDAzNyw0Ni4yNjc4NTE5IDI5MC40NTUzMzgsNDAuMDgyMTk2IEMyODEuNTg2MTQ2LDUwLjMzOTQyMjggMjgwLjIwNTIyOSw3Ny4yMTc0ODU3IDI5NC4xMjExNzUsODguNTM1MzE0MSBDMjg2LjM1NTI5NCw5NS40MzI3ODMgMjY5Ljk5MDcxMSwxMDEuNjg5NjIgMjUzLjIyNzUxMiwxMDEuNjg5NjIgTDQ5LjIzNjExMjUsMTAxLjY4OTYyIEM0Ny42MDYwNjA1LDExOS4xODU5ODYgNTAuNjgxMDkzMSwxMzUuMjk0MzE3IDU3LjY5MjQ1MjIsMTQ5LjA4MjEzNyBMNjAuMDEyOTYyOSwxNTMuMzI0NTQzIEM2MS40NzkyOTc5LDE1NS44MTU4ODkgNjMuMDg3OTk1NSwxNTguMjIxODE3IDY0LjgyNDgxOTUsMTYwLjU0MjMyOCBMNjQuODI0ODE5NSwxNjAuNTQyMzI4IEM3My4yMDk5Nzc5LDE2MS4wODMzMDYgODAuOTQwMjY4MiwxNjEuMjY4Mzc3IDg4LjAxNTY5MDUsMTYxLjExMTc3OCBDODguMDE1NjkwNSwxNjEuMTExNzc4IDg4LjAxNTY5MDUsMTYxLjExMTc3OCA4OC4wMjI4MDg2LDE2MS4xMTE3NzggQzEwMS45MjQ1MTksMTYwLjgwNTY5OSAxMTMuMjcwODE5LDE1OS4xNjE0MSAxMjEuODYyNDA0LDE1Ni4xODYwMzIgQzEyMy4xNDM2NjcsMTU1Ljc0NDcwNyAxMjQuNTM4ODIxLDE1Ni40MjA5MyAxMjQuOTgwMTQ1LDE1Ny42OTUwNzUgQzEyNS40MjE0NjksMTU4Ljk3NjMzOSAxMjQuNzQ1MjQ3LDE2MC4zNzE0OTMgMTIzLjQ2Mzk4MywxNjAuODEyODE3IEMxMjIuMzE3OTY0LDE2MS4yMTE0MzIgMTIxLjEyOTIzNiwxNjEuNTgxNTc1IDExOS44OTc3OTksMTYxLjkzMDM2MyBDMTE5Ljg5Nzc5OSwxNjEuOTMwMzYzIDExOS44OTc3OTksMTYxLjkzMDM2MyAxMTkuODkwNjgxLDE2MS45MzAzNjMgQzExMy4xMjEzMzksMTYzLjg1OTM3NyAxMDUuODYwODQ1LDE2NS4xNjE5OTUgOTYuNTAwNTAyNywxNjUuNzQ1NjgyIEM5Ny4wNTU3MTY5LDE2NS43NTI4IDk1LjkyMzkzNDEsMTY1LjgzMTA5OSA5NS45MTY4MTYsMTY1LjgzMTA5OSBDOTUuNTk2NTAwMSwxNjUuODUyNDU0IDk1LjE5Nzg4NDcsMTY1Ljg5NTE2MiA5NC44Nzc1Njg4LDE2NS45MTY1MTcgQzkxLjE5MDM3NjksMTY2LjEyMjk0MyA4Ny4yMTEzNDE3LDE2Ni4xNjU2NTEgODMuMTQ2ODg4OCwxNjYuMTY1NjUxIEM3OC42OTgwNTY5LDE2Ni4xNjU2NTEgNzQuMzEzMjg4MiwxNjYuMDgwMjM0IDY5LjQxNjAxNCwxNjUuODMxMDk5IEw2OS4yODc4ODc3LDE2NS45MTY1MTcgQzg2LjI4NTk4NDYsMTg1LjAyMTU4IDExMi44NTc5NjgsMTk2LjQ3NDY1MyAxNDYuMTcwODIxLDE5Ni40NzQ2NTMgQzIxNi42NzU5MDksMTk2LjQ3NDY1MyAyNzYuNDc1MzI4LDE2NS4yMTg5NCAzMDIuOTU0Nzc2LDk1LjA1NTUyMjEgQzMyMS43Mzk1MjQsOTYuOTg0NTM1NiAzMzkuNzk4MjIyLDkyLjE5NDAzMzQgMzQ4LjAxMjU0NSw3Ni4xNTY4ODQxIEMzMzQuOTM2NTM5LDY4LjYwNDU0NzEgMzE4LjExNjM5NSw3MS4wMTA0NzU0IDMwOC40Mjg2MTksNzUuODc5Mjc3IFoiIGlkPSJQYXRoIiBmaWxsPSIjMDBBQURBIiBmaWxsLXJ1bGU9Im5vbnplcm8iPjwvcGF0aD4KICAgICAgICAgICAgICAgIDxwYXRoIGQ9Ik0zMDguNDI4NjE5LDc1Ljg3OTI3NyBDMzEwLjU2NDA1OCw1OS4yOTQwMzE3IDI5OC4xNTAwMzcsNDYuMjY3ODUxOSAyOTAuNDU1MzM4LDQwLjA4MjE5NiBDMjgxLjU4NjE0Niw1MC4zMzk0MjI4IDI4MC4yMDUyMjksNzcuMjE3NDg1NyAyOTQuMTIxMTc1LDg4LjUzNTMxNDEgQzI4Ni4zNTUyOTQsOTUuNDMyNzgzIDI2OS45OTA3MTEsMTAxLjY4OTYyIDI1My4yMjc1MTIsMTAxLjY4OTYyIEw2MS4zMTU1ODA5LDEwMS42ODk2MiBDNjAuNDgyNzU5NiwxMjguNDgyMjY2IDcwLjQyNjc4ODYsMTQ4LjgxODc2NiA4OC4wMTU2OTA1LDE2MS4xMTE3NzggQzg4LjAxNTY5MDUsMTYxLjExMTc3OCA4OC4wMTU2OTA1LDE2MS4xMTE3NzggODguMDIyODA4NiwxNjEuMTExNzc4IEMxMDEuOTI0NTE5LDE2MC44MDU2OTkgMTEzLjI3MDgxOSwxNTkuMTYxNDEgMTIxLjg2MjQwNCwxNTYuMTg2MDMyIEMxMjMuMTQzNjY3LDE1NS43NDQ3MDcgMTI0LjUzODgyMSwxNTYuNDIwOTMgMTI0Ljk4MDE0NSwxNTcuNjk1MDc1IEMxMjUuNDIxNDY5LDE1OC45NzYzMzkgMTI0Ljc0NTI0NywxNjAuMzcxNDkzIDEyMy40NjM5ODMsMTYwLjgxMjgxNyBDMTIyLjMxNzk2NCwxNjEuMjExNDMyIDEyMS4xMjkyMzYsMTYxLjU4MTU3NSAxMTkuODk3Nzk5LDE2MS45MzAzNjMgQzExOS44OTc3OTksMTYxLjkzMDM2MyAxMTkuODk3Nzk5LDE2MS45MzAzNjMgMTE5Ljg5MDY4MSwxNjEuOTMwMzYzIEMxMTMuMTIxMzM5LDE2My44NTkzNzcgMTA1LjI0MTU2OCwxNjUuMzMyODMgOTUuODc0MTA3MiwxNjUuOTA5Mzk5IEM5NS44NzQxMDcyLDE2NS45MDkzOTkgOTUuNjQ2MzI3LDE2NS42OTU4NTUgOTUuNjQ2MzI3LDE2NS42OTU4NTUgQzExOS42NDE1NDcsMTc4LjAwMzEwMyAxNTQuNDI3ODUzLDE3Ny45NjAzOTQgMTk0LjMxNzg2LDE2Mi42MzUwNTggQzIzOS4wNDEwNzcsMTQ1LjQ1MTg5IDI4MC42NjA3ODksMTEyLjcxNTYwNSAzMDkuNzAyNzY0LDc1LjI3NDIzNTkgQzMwOS4yNjE0NCw3NS40NjY0MjU0IDMwOC44MzQzNTIsNzUuNjcyODUxMiAzMDguNDI4NjE5LDc1Ljg3OTI3NyBaIiBpZD0iUGF0aCIgZmlsbD0iIzI0QjhFQiIgZmlsbC1ydWxlPSJub256ZXJvIj48L3BhdGg+CiAgICAgICAgICAgICAgICA8cGF0aCBkPSJNNDkuNjIwNDkxNiwxMjIuOTM3MjQxIEM1MC44ODc1MTg5LDEzMi4zMDQ3MDIgNTMuNjI3OTk5NCwxNDEuMDgxMzU3IDU3LjY5MjQ1MjIsMTQ5LjA3NTAxOSBMNjAuMDEyOTYyOSwxNTMuMzE3NDI1IEM2MS40NzkyOTc5LDE1NS44MDg3NzEgNjMuMDg3OTk1NSwxNTguMjE0Njk5IDY0LjgyNDgxOTUsMTYwLjUzNTIxIEM3My4yMDk5Nzc5LDE2MS4wNzYxODggODAuOTQ3Mzg2MywxNjEuMjYxMjU5IDg4LjAyMjgwODYsMTYxLjEwNDY2IEMxMDEuOTI0NTE5LDE2MC43OTg1ODEgMTEzLjI3MDgxOSwxNTkuMTU0MjkyIDEyMS44NjI0MDQsMTU2LjE3ODkxMyBDMTIzLjE0MzY2NywxNTUuNzM3NTg5IDEyNC41Mzg4MjEsMTU2LjQxMzgxMiAxMjQuOTgwMTQ1LDE1Ny42ODc5NTcgQzEyNS40MjE0NjksMTU4Ljk2OTIyMSAxMjQuNzQ1MjQ3LDE2MC4zNjQzNzUgMTIzLjQ2Mzk4MywxNjAuODA1Njk5IEMxMjIuMzE3OTY0LDE2MS4yMDQzMTQgMTIxLjEyOTIzNiwxNjEuNTc0NDU3IDExOS44OTc3OTksMTYxLjkyMzI0NSBDMTE5Ljg5Nzc5OSwxNjEuOTIzMjQ1IDExOS44OTc3OTksMTYxLjkyMzI0NSAxMTkuODkwNjgxLDE2MS45MjMyNDUgQzExMy4xMjEzMzksMTYzLjg1MjI1OSAxMDUuMjc3MTU4LDE2NS4yNDAyOTQgOTUuOTE2ODE2LDE2NS44MTY4NjMgQzk1LjU5NjUwMDEsMTY1LjgzODIxNyA5NS4wMzQxNjc3LDE2NS44MzgyMTcgOTQuNzEzODUxOCwxNjUuODU5NTcyIEM5MS4wMjY2NTk5LDE2Ni4wNjU5OTcgODcuMDkwMzMzNCwxNjYuMTk0MTI0IDgzLjAyNTg4MDYsMTY2LjE5NDEyNCBDNzguNTc3MDQ4NywxNjYuMTk0MTI0IDc0LjAyODU2MywxNjYuMTA4NzA2IDY5LjEzMTI4ODgsMTY1Ljg1OTU3MiBDODYuMTI5Mzg1OCwxODQuOTY0NjM1IDExMi44NzIyMDQsMTk2LjQ2MDQxNyAxNDYuMTg1MDU3LDE5Ni40NjA0MTcgQzIwNi41Mzk2OTEsMTk2LjQ2MDQxNyAyNTkuMDUwMTQzLDE3My41NDcxNTMgMjg5LjUyOTk4MSwxMjIuOTMwMTIzIEw0OS42MjA0OTE2LDEyMi45MzAxMjMgTDQ5LjYyMDQ5MTYsMTIyLjkzNzI0MSBaIiBpZD0iUGF0aCIgZmlsbD0iIzAwOEJCOCIgZmlsbC1ydWxlPSJub256ZXJvIj48L3BhdGg+CiAgICAgICAgICAgICAgICA8cGF0aCBkPSJNNjMuMTUyMDU4NywxMjIuOTM3MjQxIEM2Ni43NjA5NTEyLDEzOS4zODcyNDIgNzUuNDMwODM0OCwxNTIuMzA2NjUgODguMDE1NjkwNSwxNjEuMTA0NjYgQzEwMS45MTc0LDE2MC43OTg1ODEgMTEzLjI2MzcwMSwxNTkuMTU0MjkyIDEyMS44NTUyODYsMTU2LjE3ODkxMyBDMTIzLjEzNjU0OSwxNTUuNzM3NTg5IDEyNC41MzE3MDMsMTU2LjQxMzgxMiAxMjQuOTczMDI3LDE1Ny42ODc5NTcgQzEyNS40MTQzNTEsMTU4Ljk2OTIyMSAxMjQuNzM4MTI5LDE2MC4zNjQzNzUgMTIzLjQ1Njg2NSwxNjAuODA1Njk5IEMxMjIuMzEwODQ2LDE2MS4yMDQzMTQgMTIxLjEyMjExOCwxNjEuNTc0NDU3IDExOS44OTA2ODEsMTYxLjkyMzI0NSBDMTE5Ljg5MDY4MSwxNjEuOTIzMjQ1IDExOS44OTA2ODEsMTYxLjkyMzI0NSAxMTkuODgzNTYzLDE2MS45MjMyNDUgQzExMy4xMTQyMjEsMTYzLjg1MjI1OSAxMDUuMTA2MzIzLDE2NS4yNDAyOTQgOTUuNzM4ODYyNywxNjUuODE2ODYzIEMxMTkuNzI2OTY0LDE3OC4xMjQxMTEgMTU0LjQyMDczNSwxNzcuOTQ2MTU4IDE5NC4zMDM2MjMsMTYyLjYyNzk0IEMyMTguNDM0MDg4LDE1My4zNjAxMzQgMjQxLjY1MzQzMSwxMzkuNTU4MDc3IDI2Mi40ODgyMDEsMTIyLjkzNzI0MSBMNjMuMTUyMDU4NywxMjIuOTM3MjQxIFoiIGlkPSJQYXRoIiBmaWxsPSIjMDM5QkM2IiBmaWxsLXJ1bGU9Im5vbnplcm8iPjwvcGF0aD4KICAgICAgICAgICAgICAgIDxwYXRoIGQ9Ik0xMDAuMDMxMDk2LDcxLjQ0NDY4MTQgTDEwMi4yMDkyNDQsNzEuNDQ0NjgxNCBMMTAyLjIwOTI0NCw5NC40MzYyNDQ3IEwxMDAuMDMxMDk2LDk0LjQzNjI0NDcgTDEwMC4wMzEwOTYsNzEuNDQ0NjgxNCBaIE05NS44NTI3NTI4LDcxLjQ0NDY4MTQgTDk4LjExNjMxODUsNzEuNDQ0NjgxNCBMOTguMTE2MzE4NSw5NC40MzYyNDQ3IEw5NS44NTI3NTI4LDk0LjQzNjI0NDcgTDk1Ljg1Mjc1MjgsNzEuNDQ0NjgxNCBaIE05MS42NzQ0MDk4LDcxLjQ0NDY4MTQgTDkzLjkzNzk3NTUsNzEuNDQ0NjgxNCBMOTMuOTM3OTc1NSw5NC40MzYyNDQ3IEw5MS42NzQ0MDk4LDk0LjQzNjI0NDcgTDkxLjY3NDQwOTgsNzEuNDQ0NjgxNCBaIE04Ny40ODg5NDg4LDcxLjQ0NDY4MTQgTDg5Ljc1MjUxNDUsNzEuNDQ0NjgxNCBMODkuNzUyNTE0NSw5NC40MzYyNDQ3IEw4Ny40ODg5NDg4LDk0LjQzNjI0NDcgTDg3LjQ4ODk0ODgsNzEuNDQ0NjgxNCBaIE04My4zMTA2MDU5LDcxLjQ0NDY4MTQgTDg1LjU3NDE3MTUsNzEuNDQ0NjgxNCBMODUuNTc0MTcxNSw5NC40MzYyNDQ3IEw4My4zMTA2MDU5LDk0LjQzNjI0NDcgTDgzLjMxMDYwNTksNzEuNDQ0NjgxNCBaIE03OS4yMTc2ODA1LDcxLjQ0NDY4MTQgTDgxLjM5NTgyODYsNzEuNDQ0NjgxNCBMODEuMzk1ODI4Niw5NC40MzYyNDQ3IEw3OS4yMTc2ODA1LDk0LjQzNjI0NDcgTDc5LjIxNzY4MDUsNzEuNDQ0NjgxNCBaIE03Ni45MjU2NDIzLDY5LjE0NTUyNTEgTDEwNC41MDg0LDY5LjE0NTUyNTEgTDEwNC41MDg0LDk2LjczNTQwMSBMNzYuOTI1NjQyMyw5Ni43MzU0MDEgTDc2LjkyNTY0MjMsNjkuMTQ1NTI1MSBaIiBpZD0iU2hhcGUiIGZpbGw9IiMwMEFDRDMiPjwvcGF0aD4KICAgICAgICAgICAgICAgIDxwYXRoIGQ9Ik0xMzEuODYzMzc4LDM5LjYxMjM5OTMgTDEzNC4wNDE1MjYsMzkuNjEyMzk5MyBMMTM0LjA0MTUyNiw2Mi42MDM5NjI2IEwxMzEuODYzMzc4LDYyLjYwMzk2MjYgTDEzMS44NjMzNzgsMzkuNjEyMzk5MyBaIE0xMjcuNjg1MDM1LDM5LjYxMjM5OTMgTDEyOS45NDg2MDEsMzkuNjEyMzk5MyBMMTI5Ljk0ODYwMSw2Mi42MDM5NjI2IEwxMjcuNjg1MDM1LDYyLjYwMzk2MjYgTDEyNy42ODUwMzUsMzkuNjEyMzk5MyBaIE0xMjMuNDk5NTc0LDM5LjYxMjM5OTMgTDEyNS43NjMxMzksMzkuNjEyMzk5MyBMMTI1Ljc2MzEzOSw2Mi42MDM5NjI2IEwxMjMuNDk5NTc0LDYyLjYwMzk2MjYgTDEyMy40OTk1NzQsMzkuNjEyMzk5MyBaIE0xMTkuMzIxMjMxLDM5LjYxMjM5OTMgTDEyMS41ODQ3OTcsMzkuNjEyMzk5MyBMMTIxLjU4NDc5Nyw2Mi42MDM5NjI2IEwxMTkuMzIxMjMxLDYyLjYwMzk2MjYgTDExOS4zMjEyMzEsMzkuNjEyMzk5MyBaIE0xMTUuMTQyODg4LDM5LjYxMjM5OTMgTDExNy40MDY0NTQsMzkuNjEyMzk5MyBMMTE3LjQwNjQ1NCw2Mi42MDM5NjI2IEwxMTUuMTQyODg4LDYyLjYwMzk2MjYgTDExNS4xNDI4ODgsMzkuNjEyMzk5MyBaIE0xMTEuMDQ5OTYzLDM5LjYxMjM5OTMgTDExMy4yMjgxMTEsMzkuNjEyMzk5MyBMMTEzLjIyODExMSw2Mi42MDM5NjI2IEwxMTEuMDQ5OTYzLDYyLjYwMzk2MjYgTDExMS4wNDk5NjMsMzkuNjEyMzk5MyBaIE0xMDguNzUwODA2LDM3LjMxMzI0MyBMMTM2LjM0MDY4MiwzNy4zMTMyNDMgTDEzNi4zNDA2ODIsNjQuODk2MDAwOCBMMTA4Ljc1MDgwNiw2NC44OTYwMDA4IEwxMDguNzUwODA2LDM3LjMxMzI0MyBaIiBpZD0iU2hhcGUiIGZpbGw9IiMwMEFDRDMiPjwvcGF0aD4KICAgICAgICAgICAgICAgIDxwYXRoIGQ9Ik0xMzEuODYzMzc4LDcxLjQ0NDY4MTQgTDEzNC4wNDE1MjYsNzEuNDQ0NjgxNCBMMTM0LjA0MTUyNiw5NC40MzYyNDQ3IEwxMzEuODYzMzc4LDk0LjQzNjI0NDcgTDEzMS44NjMzNzgsNzEuNDQ0NjgxNCBaIE0xMjcuNjg1MDM1LDcxLjQ0NDY4MTQgTDEyOS45NDg2MDEsNzEuNDQ0NjgxNCBMMTI5Ljk0ODYwMSw5NC40MzYyNDQ3IEwxMjcuNjg1MDM1LDk0LjQzNjI0NDcgTDEyNy42ODUwMzUsNzEuNDQ0NjgxNCBaIE0xMjMuNDk5NTc0LDcxLjQ0NDY4MTQgTDEyNS43NjMxMzksNzEuNDQ0NjgxNCBMMTI1Ljc2MzEzOSw5NC40MzYyNDQ3IEwxMjMuNDk5NTc0LDk0LjQzNjI0NDcgTDEyMy40OTk1NzQsNzEuNDQ0NjgxNCBaIE0xMTkuMzIxMjMxLDcxLjQ0NDY4MTQgTDEyMS41ODQ3OTcsNzEuNDQ0NjgxNCBMMTIxLjU4NDc5Nyw5NC40MzYyNDQ3IEwxMTkuMzIxMjMxLDk0LjQzNjI0NDcgTDExOS4zMjEyMzEsNzEuNDQ0NjgxNCBaIE0xMTUuMTQyODg4LDcxLjQ0NDY4MTQgTDExNy40MDY0NTQsNzEuNDQ0NjgxNCBMMTE3LjQwNjQ1NCw5NC40MzYyNDQ3IEwxMTUuMTQyODg4LDk0LjQzNjI0NDcgTDExNS4xNDI4ODgsNzEuNDQ0NjgxNCBaIE0xMTEuMDQ5OTYzLDcxLjQ0NDY4MTQgTDExMy4yMjgxMTEsNzEuNDQ0NjgxNCBMMTEzLjIyODExMSw5NC40MzYyNDQ3IEwxMTEuMDQ5OTYzLDk0LjQzNjI0NDcgTDExMS4wNDk5NjMsNzEuNDQ0NjgxNCBaIE0xMDguNzUwODA2LDY5LjE0NTUyNTEgTDEzNi4zNDA2ODIsNjkuMTQ1NTI1MSBMMTM2LjM0MDY4Miw5Ni43MzU0MDEgTDEwOC43NTA4MDYsOTYuNzM1NDAxIEwxMDguNzUwODA2LDY5LjE0NTUyNTEgWiIgaWQ9IlNoYXBlIiBmaWxsPSIjMjBDMkVGIj48L3BhdGg+CiAgICAgICAgICAgICAgICA8cGF0aCBkPSJNMTYzLjY5NTY2LDcxLjQ0NDY4MTQgTDE2NS44NzM4MDgsNzEuNDQ0NjgxNCBMMTY1Ljg3MzgwOCw5NC40MzYyNDQ3IEwxNjMuNjk1NjYsOTQuNDM2MjQ0NyBMMTYzLjY5NTY2LDcxLjQ0NDY4MTQgWiBNMTU5LjUxMDE5OSw3MS40NDQ2ODE0IEwxNjEuNzczNzY0LDcxLjQ0NDY4MTQgTDE2MS43NzM3NjQsOTQuNDM2MjQ0NyBMMTU5LjUxMDE5OSw5NC40MzYyNDQ3IEwxNTkuNTEwMTk5LDcxLjQ0NDY4MTQgWiBNMTU1LjMzMTg1Niw3MS40NDQ2ODE0IEwxNTcuNTk1NDIyLDcxLjQ0NDY4MTQgTDE1Ny41OTU0MjIsOTQuNDM2MjQ0NyBMMTU1LjMzMTg1Niw5NC40MzYyNDQ3IEwxNTUuMzMxODU2LDcxLjQ0NDY4MTQgWiBNMTUxLjE1MzUxMyw3MS40NDQ2ODE0IEwxNTMuNDE3MDc5LDcxLjQ0NDY4MTQgTDE1My40MTcwNzksOTQuNDM2MjQ0NyBMMTUxLjE1MzUxMyw5NC40MzYyNDQ3IEwxNTEuMTUzNTEzLDcxLjQ0NDY4MTQgWiBNMTQ2Ljk3NTE3LDcxLjQ0NDY4MTQgTDE0OS4yMzg3MzYsNzEuNDQ0NjgxNCBMMTQ5LjIzODczNiw5NC40MzYyNDQ3IEwxNDYuOTc1MTcsOTQuNDM2MjQ0NyBMMTQ2Ljk3NTE3LDcxLjQ0NDY4MTQgWiBNMTQyLjg4MjI0NSw3MS40NDQ2ODE0IEwxNDUuMDYwMzkzLDcxLjQ0NDY4MTQgTDE0NS4wNjAzOTMsOTQuNDM2MjQ0NyBMMTQyLjg4MjI0NSw5NC40MzYyNDQ3IEwxNDIuODgyMjQ1LDcxLjQ0NDY4MTQgWiBNMTQwLjU4MzA4OCw2OS4xNDU1MjUxIEwxNjguMTcyOTY0LDY5LjE0NTUyNTEgTDE2OC4xNzI5NjQsOTYuNzM1NDAxIEwxNDAuNTgzMDg4LDk2LjczNTQwMSBMMTQwLjU4MzA4OCw2OS4xNDU1MjUxIFoiIGlkPSJTaGFwZSIgZmlsbD0iIzAwQUNEMyI+PC9wYXRoPgogICAgICAgICAgICAgICAgPHBhdGggZD0iTTE2My42OTU2NiwzOS42MTIzOTkzIEwxNjUuODczODA4LDM5LjYxMjM5OTMgTDE2NS44NzM4MDgsNjIuNjAzOTYyNiBMMTYzLjY5NTY2LDYyLjYwMzk2MjYgTDE2My42OTU2NiwzOS42MTIzOTkzIFogTTE1OS41MTAxOTksMzkuNjEyMzk5MyBMMTYxLjc3Mzc2NCwzOS42MTIzOTkzIEwxNjEuNzczNzY0LDYyLjYwMzk2MjYgTDE1OS41MTAxOTksNjIuNjAzOTYyNiBMMTU5LjUxMDE5OSwzOS42MTIzOTkzIFogTTE1NS4zMzE4NTYsMzkuNjEyMzk5MyBMMTU3LjU5NTQyMiwzOS42MTIzOTkzIEwxNTcuNTk1NDIyLDYyLjYwMzk2MjYgTDE1NS4zMzE4NTYsNjIuNjAzOTYyNiBMMTU1LjMzMTg1NiwzOS42MTIzOTkzIFogTTE1MS4xNTM1MTMsMzkuNjEyMzk5MyBMMTUzLjQxNzA3OSwzOS42MTIzOTkzIEwxNTMuNDE3MDc5LDYyLjYwMzk2MjYgTDE1MS4xNTM1MTMsNjIuNjAzOTYyNiBMMTUxLjE1MzUxMywzOS42MTIzOTkzIFogTTE0Ni45NzUxNywzOS42MTIzOTkzIEwxNDkuMjM4NzM2LDM5LjYxMjM5OTMgTDE0OS4yMzg3MzYsNjIuNjAzOTYyNiBMMTQ2Ljk3NTE3LDYyLjYwMzk2MjYgTDE0Ni45NzUxNywzOS42MTIzOTkzIFogTTE0Mi44ODIyNDUsMzkuNjEyMzk5MyBMMTQ1LjA2MDM5MywzOS42MTIzOTkzIEwxNDUuMDYwMzkzLDYyLjYwMzk2MjYgTDE0Mi44ODIyNDUsNjIuNjAzOTYyNiBMMTQyLjg4MjI0NSwzOS42MTIzOTkzIFogTTE0MC41ODMwODgsMzcuMzEzMjQzIEwxNjguMTcyOTY0LDM3LjMxMzI0MyBMMTY4LjE3Mjk2NCw2NC44OTYwMDA4IEwxNDAuNTgzMDg4LDY0Ljg5NjAwMDggTDE0MC41ODMwODgsMzcuMzEzMjQzIFoiIGlkPSJTaGFwZSIgZmlsbD0iIzIwQzJFRiI+PC9wYXRoPgogICAgICAgICAgICAgICAgPHBhdGggZD0iTTE5NS41MjA4MjQsNzEuNDQ0NjgxNCBMMTk3LjY5ODk3Miw3MS40NDQ2ODE0IEwxOTcuNjk4OTcyLDk0LjQzNjI0NDcgTDE5NS41MjA4MjQsOTQuNDM2MjQ0NyBMMTk1LjUyMDgyNCw3MS40NDQ2ODE0IFogTTE5MS4zNDI0ODEsNzEuNDQ0NjgxNCBMMTkzLjYwNjA0Nyw3MS40NDQ2ODE0IEwxOTMuNjA2MDQ3LDk0LjQzNjI0NDcgTDE5MS4zNDI0ODEsOTQuNDM2MjQ0NyBMMTkxLjM0MjQ4MSw3MS40NDQ2ODE0IFogTTE4Ny4xNjQxMzgsNzEuNDQ0NjgxNCBMMTg5LjQyNzcwNCw3MS40NDQ2ODE0IEwxODkuNDI3NzA0LDk0LjQzNjI0NDcgTDE4Ny4xNjQxMzgsOTQuNDM2MjQ0NyBMMTg3LjE2NDEzOCw3MS40NDQ2ODE0IFogTTE4Mi45ODU3OTUsNzEuNDQ0NjgxNCBMMTg1LjI0OTM2MSw3MS40NDQ2ODE0IEwxODUuMjQ5MzYxLDk0LjQzNjI0NDcgTDE4Mi45ODU3OTUsOTQuNDM2MjQ0NyBMMTgyLjk4NTc5NSw3MS40NDQ2ODE0IFogTTE3OC44MDAzMzQsNzEuNDQ0NjgxNCBMMTgxLjA2MzksNzEuNDQ0NjgxNCBMMTgxLjA2MzksOTQuNDM2MjQ0NyBMMTc4LjgwMDMzNCw5NC40MzYyNDQ3IEwxNzguODAwMzM0LDcxLjQ0NDY4MTQgWiBNMTc0LjcwNzQwOSw3MS40NDQ2ODE0IEwxNzYuODg1NTU3LDcxLjQ0NDY4MTQgTDE3Ni44ODU1NTcsOTQuNDM2MjQ0NyBMMTc0LjcwNzQwOSw5NC40MzYyNDQ3IEwxNzQuNzA3NDA5LDcxLjQ0NDY4MTQgWiBNMTcyLjQwODI1Miw2OS4xNDU1MjUxIEwxOTkuOTk4MTI4LDY5LjE0NTUyNTEgTDE5OS45OTgxMjgsOTYuNzM1NDAxIEwxNzIuNDA4MjUyLDk2LjczNTQwMSBMMTcyLjQwODI1Miw2OS4xNDU1MjUxIFoiIGlkPSJTaGFwZSIgZmlsbD0iIzIwQzJFRiI+PC9wYXRoPgogICAgICAgICAgICAgICAgPHBhdGggZD0iTTE5NS41MjA4MjQsMzkuNjEyMzk5MyBMMTk3LjY5ODk3MiwzOS42MTIzOTkzIEwxOTcuNjk4OTcyLDYyLjYwMzk2MjYgTDE5NS41MjA4MjQsNjIuNjAzOTYyNiBMMTk1LjUyMDgyNCwzOS42MTIzOTkzIFogTTE5MS4zNDI0ODEsMzkuNjEyMzk5MyBMMTkzLjYwNjA0NywzOS42MTIzOTkzIEwxOTMuNjA2MDQ3LDYyLjYwMzk2MjYgTDE5MS4zNDI0ODEsNjIuNjAzOTYyNiBMMTkxLjM0MjQ4MSwzOS42MTIzOTkzIFogTTE4Ny4xNjQxMzgsMzkuNjEyMzk5MyBMMTg5LjQyNzcwNCwzOS42MTIzOTkzIEwxODkuNDI3NzA0LDYyLjYwMzk2MjYgTDE4Ny4xNjQxMzgsNjIuNjAzOTYyNiBMMTg3LjE2NDEzOCwzOS42MTIzOTkzIFogTTE4Mi45ODU3OTUsMzkuNjEyMzk5MyBMMTg1LjI0OTM2MSwzOS42MTIzOTkzIEwxODUuMjQ5MzYxLDYyLjYwMzk2MjYgTDE4Mi45ODU3OTUsNjIuNjAzOTYyNiBMMTgyLjk4NTc5NSwzOS42MTIzOTkzIFogTTE3OC44MDAzMzQsMzkuNjEyMzk5MyBMMTgxLjA2MzksMzkuNjEyMzk5MyBMMTgxLjA2MzksNjIuNjAzOTYyNiBMMTc4LjgwMDMzNCw2Mi42MDM5NjI2IEwxNzguODAwMzM0LDM5LjYxMjM5OTMgWiBNMTc0LjcwNzQwOSwzOS42MTIzOTkzIEwxNzYuODg1NTU3LDM5LjYxMjM5OTMgTDE3Ni44ODU1NTcsNjIuNjAzOTYyNiBMMTc0LjcwNzQwOSw2Mi42MDM5NjI2IEwxNzQuNzA3NDA5LDM5LjYxMjM5OTMgWiBNMTcyLjQwODI1MiwzNy4zMTMyNDMgTDE5OS45OTgxMjgsMzcuMzEzMjQzIEwxOTkuOTk4MTI4LDY0Ljg5NjAwMDggTDE3Mi40MDgyNTIsNjQuODk2MDAwOCBMMTcyLjQwODI1MiwzNy4zMTMyNDMgWiIgaWQ9IlNoYXBlIiBmaWxsPSIjMDBBQ0QzIj48L3BhdGg+CiAgICAgICAgICAgICAgICA8cGF0aCBkPSJNMTk1LjUyMDgyNCw3Ljc4NzIzNTM3IEwxOTcuNjk4OTcyLDcuNzg3MjM1MzcgTDE5Ny42OTg5NzIsMzAuNzc4Nzk4NyBMMTk1LjUyMDgyNCwzMC43Nzg3OTg3IEwxOTUuNTIwODI0LDcuNzg3MjM1MzcgWiBNMTkxLjM0MjQ4MSw3Ljc4NzIzNTM3IEwxOTMuNjA2MDQ3LDcuNzg3MjM1MzcgTDE5My42MDYwNDcsMzAuNzc4Nzk4NyBMMTkxLjM0MjQ4MSwzMC43Nzg3OTg3IEwxOTEuMzQyNDgxLDcuNzg3MjM1MzcgWiBNMTg3LjE2NDEzOCw3Ljc4NzIzNTM3IEwxODkuNDI3NzA0LDcuNzg3MjM1MzcgTDE4OS40Mjc3MDQsMzAuNzc4Nzk4NyBMMTg3LjE2NDEzOCwzMC43Nzg3OTg3IEwxODcuMTY0MTM4LDcuNzg3MjM1MzcgWiBNMTgyLjk4NTc5NSw3Ljc4NzIzNTM3IEwxODUuMjQ5MzYxLDcuNzg3MjM1MzcgTDE4NS4yNDkzNjEsMzAuNzc4Nzk4NyBMMTgyLjk4NTc5NSwzMC43Nzg3OTg3IEwxODIuOTg1Nzk1LDcuNzg3MjM1MzcgWiBNMTc4LjgwMDMzNCw3Ljc4NzIzNTM3IEwxODEuMDYzOSw3Ljc4NzIzNTM3IEwxODEuMDYzOSwzMC43Nzg3OTg3IEwxNzguODAwMzM0LDMwLjc3ODc5ODcgTDE3OC44MDAzMzQsNy43ODcyMzUzNyBaIE0xNzQuNzA3NDA5LDcuNzg3MjM1MzcgTDE3Ni44ODU1NTcsNy43ODcyMzUzNyBMMTc2Ljg4NTU1NywzMC43Nzg3OTg3IEwxNzQuNzA3NDA5LDMwLjc3ODc5ODcgTDE3NC43MDc0MDksNy43ODcyMzUzNyBaIE0xNzIuNDA4MjUyLDUuNDg4MDc5MDQgTDE5OS45OTgxMjgsNS40ODgwNzkwNCBMMTk5Ljk5ODEyOCwzMy4wNzc5NTUgTDE3Mi40MDgyNTIsMzMuMDc3OTU1IEwxNzIuNDA4MjUyLDUuNDg4MDc5MDQgWiIgaWQ9IlNoYXBlIiBmaWxsPSIjMjBDMkVGIj48L3BhdGg+CiAgICAgICAgICAgICAgICA8cGF0aCBkPSJNMjI3LjM1MzEwNiw3MS40NDQ2ODE0IEwyMjkuNTMxMjU0LDcxLjQ0NDY4MTQgTDIyOS41MzEyNTQsOTQuNDM2MjQ0NyBMMjI3LjM1MzEwNiw5NC40MzYyNDQ3IEwyMjcuMzUzMTA2LDcxLjQ0NDY4MTQgWiBNMjIzLjE3NDc2Myw3MS40NDQ2ODE0IEwyMjUuNDM4MzI5LDcxLjQ0NDY4MTQgTDIyNS40MzgzMjksOTQuNDM2MjQ0NyBMMjIzLjE3NDc2Myw5NC40MzYyNDQ3IEwyMjMuMTc0NzYzLDcxLjQ0NDY4MTQgWiBNMjE4Ljk4OTMwMiw3MS40NDQ2ODE0IEwyMjEuMjUyODY4LDcxLjQ0NDY4MTQgTDIyMS4yNTI4NjgsOTQuNDM2MjQ0NyBMMjE4Ljk4OTMwMiw5NC40MzYyNDQ3IEwyMTguOTg5MzAyLDcxLjQ0NDY4MTQgWiBNMjE0LjgxMDk1OSw3MS40NDQ2ODE0IEwyMTcuMDc0NTI1LDcxLjQ0NDY4MTQgTDIxNy4wNzQ1MjUsOTQuNDM2MjQ0NyBMMjE0LjgxMDk1OSw5NC40MzYyNDQ3IEwyMTQuODEwOTU5LDcxLjQ0NDY4MTQgWiBNMjEwLjYzMjYxNiw3MS40NDQ2ODE0IEwyMTIuODk2MTgyLDcxLjQ0NDY4MTQgTDIxMi44OTYxODIsOTQuNDM2MjQ0NyBMMjEwLjYzMjYxNiw5NC40MzYyNDQ3IEwyMTAuNjMyNjE2LDcxLjQ0NDY4MTQgWiBNMjA2LjUzOTY5MSw3MS40NDQ2ODE0IEwyMDguNzE3ODM5LDcxLjQ0NDY4MTQgTDIwOC43MTc4MzksOTQuNDM2MjQ0NyBMMjA2LjUzOTY5MSw5NC40MzYyNDQ3IEwyMDYuNTM5NjkxLDcxLjQ0NDY4MTQgWiBNMjA0LjI0MDUzNCw2OS4xNDU1MjUxIEwyMzEuODMwNDEsNjkuMTQ1NTI1MSBMMjMxLjgzMDQxLDk2LjczNTQwMSBMMjA0LjI0MDUzNCw5Ni43MzU0MDEgTDIwNC4yNDA1MzQsNjkuMTQ1NTI1MSBaIiBpZD0iU2hhcGUiIGZpbGw9IiMwMEFDRDMiPjwvcGF0aD4KICAgICAgICAgICAgICAgIDxwYXRoIGQ9Ik0xMzQuNjEwOTc2LDE0MS40NTg2MTggQzEzOC44MTA2NzQsMTQxLjQ1ODYxOCAxNDIuMjIwMjU4LDE0NC44NjgyMDMgMTQyLjIyMDI1OCwxNDkuMDY3OTAxIEMxNDIuMjIwMjU4LDE1My4yNjc1OTggMTM4LjgxMDY3NCwxNTYuNjc3MTgzIDEzNC42MTA5NzYsMTU2LjY3NzE4MyBDMTMwLjQwNDE2MSwxNTYuNjc3MTgzIDEyNy4wMDE2OTQsMTUzLjI2NzU5OCAxMjcuMDAxNjk0LDE0OS4wNjc5MDEgQzEyNy4wMDE2OTQsMTQ0Ljg2ODIwMyAxMzAuNDExMjc5LDE0MS40NTg2MTggMTM0LjYxMDk3NiwxNDEuNDU4NjE4IiBpZD0iUGF0aCIgZmlsbD0iI0Q0RURGMSI+PC9wYXRoPgogICAgICAgICAgICAgICAgPHBhdGggZD0iTTEzNC42MTA5NzYsMTQzLjYxNTQxMiBDMTM1LjMwODU1MywxNDMuNjE1NDEyIDEzNS45NzA1MzksMTQzLjc0MzUzOSAxMzYuNTgyNjk5LDE0My45ODU1NTUgQzEzNS45MjA3MTIsMTQ0LjM2OTkzNCAxMzUuNDcyMjcsMTQ1LjA4ODg2NSAxMzUuNDcyMjcsMTQ1LjkxNDU2OCBDMTM1LjQ3MjI3LDE0Ny4xNDYwMDUgMTM2LjQ2ODgwOSwxNDguMTM1NDI1IDEzNy43MDAyNDUsMTQ4LjEzNTQyNSBDMTM4LjU0MDE4NSwxNDguMTM1NDI1IDEzOS4yNzMzNTIsMTQ3LjY2NTYyOSAxMzkuNjUwNjEzLDE0Ni45NzUxNyBDMTM5LjkxMzk4NCwxNDcuNjE1ODAyIDE0MC4wNjM0NjUsMTQ4LjMyNzYxNSAxNDAuMDYzNDY1LDE0OS4wNjc5MDEgQzE0MC4wNjM0NjUsMTUyLjA3ODg3IDEzNy42MjE5NDYsMTU0LjUyMDM4OSAxMzQuNjEwOTc2LDE1NC41MjAzODkgQzEzMS42MDAwMDcsMTU0LjUyMDM4OSAxMjkuMTU4NDg4LDE1Mi4wNzg4NyAxMjkuMTU4NDg4LDE0OS4wNjc5MDEgQzEyOS4xNTg0ODgsMTQ2LjA1NjkzMSAxMzEuNjAwMDA3LDE0My42MTU0MTIgMTM0LjYxMDk3NiwxNDMuNjE1NDEyIiBpZD0iUGF0aCIgZmlsbD0iIzM5NEQ1NCI+PC9wYXRoPgogICAgICAgICAgICAgICAgPHBhdGggZD0iTTAsMTI1LjY4NDg0IEwxNjYuNzA2NjI5LDEyNS42ODQ4NCBMMTg3LjMyNzg1NSwxMjUuNjg0ODQgTDM1NC4wMjczNjYsMTI1LjY4NDg0IEMzNDYuMzE4NDMsMTIzLjcyNzM1NCAzMjkuNjQwNjQ5LDEyMS4wODY1MjcgMzMyLjM4ODI0OCwxMTAuOTg1ODk5IEMzMTguMzcyNjQ4LDEyNy4yMDgxMiAyODQuNTY4NjQzLDEyMi4zNjc3OTEgMjc2LjA0MTEyMiwxMTQuMzY3MDEyIEMyNjYuNTM4NDE3LDEyOC4xNDc3MTMgMjExLjIzNzY1NywxMjIuOTA4NzY5IDIwNy4zNzk2MywxMTIuMTc0NjI3IEMxOTUuNDcwOTk3LDEyNi4xNTQ2MzcgMTU4LjU2MzQ4NywxMjYuMTU0NjM3IDE0Ni42NTQ4NTQsMTEyLjE3NDYyNyBDMTQyLjc5NjgyNywxMjIuOTA4NzY5IDg3LjQ5NjA2NjksMTI4LjE0NzcxMyA3Ny45OTMzNjIsMTE0LjM2NzAxMiBDNjkuNDY1ODQxLDEyMi4zNjc3OTEgMzUuNjYxODM2NiwxMjcuMjA4MTIgMjEuNjQ2MjM2NSwxMTAuOTg1ODk5IEMyNC4zOTM4MzUxLDEyMS4wOTM2NDUgNy43MDg5MzU5MywxMjMuNzM0NDcyIDAsMTI1LjY4NDg0IiBpZD0iUGF0aCIgZmlsbD0iIzM5NEQ1NCI+PC9wYXRoPgogICAgICAgICAgICAgICAgPHBhdGggZD0iTTE1NC44NDA3MDUsMTk2LjI5NjcgQzEzNS45OTE4OTQsMTg3LjM1NjMyNyAxMjUuNjQ5MjQ5LDE3NS4xOTg1NiAxMTkuODkwNjgxLDE2MS45MjMyNDUgQzExMi44ODY0NCwxNjMuOTIzNDQgMTA0LjQ3MjgwOSwxNjUuMTk3NTg2IDk0LjY5OTYxNTUsMTY1Ljc0NTY4MiBDOTEuMDEyNDIzNywxNjUuOTUyMTA3IDg3LjE0MDE2MDQsMTY2LjA1ODg3OSA4My4wNzU3MDc1LDE2Ni4wNTg4NzkgQzc4LjM5MTk3NzMsMTY2LjA1ODg3OSA3My40NDQ4NzYyLDE2NS45MjM2MzUgNjguMjYyODc2OCwxNjUuNjQ2MDI4IEM4NS41NDU2OTksMTgyLjkyMTczMiAxMDYuODA3NTU2LDE5Ni4yMTg0MDEgMTQ2LjE3NzkzOSwxOTYuNDYwNDE3IEMxNDkuMDgyMTM3LDE5Ni40Njc1MzUgMTUxLjk3MjA5OCwxOTYuNDEwNTkgMTU0Ljg0MDcwNSwxOTYuMjk2NyBaIiBpZD0iUGF0aCIgZmlsbD0iI0JGREJFMCIgZmlsbC1ydWxlPSJub256ZXJvIj48L3BhdGg+CiAgICAgICAgICAgICAgICA8cGF0aCBkPSJNMTI2Ljg5NDkyMiwxNzQuMTczNTQ5IEMxMjQuMjg5Njg2LDE3MC42MzU4MzggMTIxLjc1NTYzMiwxNjYuMTg3MDA2IDExOS44OTc3OTksMTYxLjkyMzI0NSBDMTEyLjg5MzU1OSwxNjMuOTIzNDQgMTA0LjQ3OTkyOCwxNjUuMTk3NTg2IDk0LjY5OTYxNTUsMTY1Ljc1MjggQzEwMS40MTkxMzEsMTY5LjM5NzI4MyAxMTEuMDIxNDksMTcyLjc3MTI3NyAxMjYuODk0OTIyLDE3NC4xNzM1NDkgWiIgaWQ9IlBhdGgiIGZpbGw9IiNENEVERjEiIGZpbGwtcnVsZT0ibm9uemVybyI+PC9wYXRoPgogICAgICAgICAgICA8L2c+CiAgICAgICAgPC9nPgogICAgPC9nPgo8L3N2Zz4=;fontSize=14;labelPosition=center;verticalLabelPosition=bottom;align=center;verticalAlign=top;fontFamily=IBM Plex Sans;fontSource=fonts%2FIBMPlexSans-Regular.woff;spacingTop=-7;fontColor=#000000;" parent="pEGuMoAMFqIg68gzwtf1-10" vertex="1">
          <mxGeometry x="202" y="602" width="48" height="46.93" as="geometry" />
        </mxCell>
        <mxCell id="_2cv4UtvErxWG1yDXugS-19" style="edgeStyle=orthogonalEdgeStyle;rounded=0;orthogonalLoop=1;jettySize=auto;html=1;exitX=1;exitY=0.5;exitDx=0;exitDy=0;startArrow=open;startFill=0;" parent="_2cv4UtvErxWG1yDXugS-5" edge="1">
          <mxGeometry relative="1" as="geometry" />
        </mxCell>
        <mxCell id="G9iv7065l-6P10pQh_sO-19" value="VPC" parent="0" />
        <UserObject label="" link="https://cloud.ibm.com/vpc-ext/network/vpcs" linkTarget="_blank" id="j9GXgACKSNPuvCItniIa-12">
          <mxCell style="rounded=0;whiteSpace=wrap;html=1;fontFamily=IBM Plex Sans;fontSource=fonts%2FIBMPlexSans-Regular.woff;fontSize=14;spacingBottom=-28;spacingTop=0;labelPosition=-100;verticalLabelPosition=top;align=center;verticalAlign=bottom;spacingLeft=9;spacing=0;expand=0;recursiveResize=0;spacingRight=0;container=1;collapsible=0;" parent="G9iv7065l-6P10pQh_sO-19" vertex="1">
            <mxGeometry x="170" y="-1540" width="904" height="460" as="geometry">
              <mxRectangle width="670" as="alternateBounds" />
            </mxGeometry>
          </mxCell>
        </UserObject>
        <mxCell id="j9GXgACKSNPuvCItniIa-13" value="" style="rounded=0;whiteSpace=wrap;html=1;strokeColor=none;fillColor=#1192E8;" parent="j9GXgACKSNPuvCItniIa-12" vertex="1">
          <mxGeometry width="7" height="37" as="geometry" />
        </mxCell>
        <mxCell id="j9GXgACKSNPuvCItniIa-14" value="VPC" style="text;html=1;strokeColor=none;fillColor=none;align=left;verticalAlign=middle;whiteSpace=wrap;rounded=0;fontFamily=IBM Plex Sans;fontSource=fonts%2FIBMPlexSans-Regular.woff;fontSize=14;" parent="j9GXgACKSNPuvCItniIa-12" vertex="1">
          <mxGeometry x="51" y="8" width="163" height="20" as="geometry" />
        </mxCell>
        <mxCell id="j9GXgACKSNPuvCItniIa-15" value="" style="shape=image;aspect=fixed;image=data:image/svg+xml,PD94bWwgdmVyc2lvbj0iMS4wIiBlbmNvZGluZz0iVVRGLTgiPz4KPHN2ZyB3aWR0aD0iMjlweCIgaGVpZ2h0PSIyOHB4IiB2aWV3Qm94PSIwIDAgMjkgMjgiIHZlcnNpb249IjEuMSIgeG1sbnM9Imh0dHA6Ly93d3cudzMub3JnLzIwMDAvc3ZnIiB4bWxuczp4bGluaz0iaHR0cDovL3d3dy53My5vcmcvMTk5OS94bGluayI+CiAgICA8IS0tIEdlbmVyYXRvcjogU2tldGNoIDUzICg3MjUyMCkgLSBodHRwczovL3NrZXRjaGFwcC5jb20gLS0+CiAgICA8dGl0bGU+SUJNIFZQQyBCbGFjazwvdGl0bGU+CiAgICA8ZGVzYz5DcmVhdGVkIHdpdGggU2tldGNoLjwvZGVzYz4KICAgIDxnIGlkPSJQYWdlLTEiIHN0cm9rZT0ibm9uZSIgc3Ryb2tlLXdpZHRoPSIxIiBmaWxsPSJub25lIiBmaWxsLXJ1bGU9ImV2ZW5vZGQiPgogICAgICAgIDxnIGlkPSJJQk0tVlBDLUJsYWNrIiB0cmFuc2Zvcm09InRyYW5zbGF0ZSgwLjc1MDAwMCwgLTEuMDAwMDAwKSIgZmlsbD0iIzAwMDAwMCI+CiAgICAgICAgICAgIDxwYXRoIGQ9Ik0wLjAwMDksMS4wMDAyIEwwLjAwMDksOS4wMDAyIEw2LjU4NjksOS4wMDAyIEwyMC4wMDA5LDIyLjQxNDIgTDIwLjAwMDksMjkuMDAwMiBMMjguMDAwOSwyOS4wMDAyIEwyOC4wMDA5LDIxLjAwMDIgTDIxLjQxNTksMjEuMDAwMiBMOC4wMDA5LDcuNTg1MiBMOC4wMDA5LDEuMDAwMiBMMC4wMDA5LDEuMDAwMiBaIE0yLjAwMDksNy4wMDAyIEw2LjAwMDksNy4wMDAyIEw2LjAwMDksMy4wMDAyIEwyLjAwMDksMy4wMDAyIEwyLjAwMDksNy4wMDAyIFogTTIyLjAwMDksMjcuMDAxMiBMMjYuMDAxOSwyNy4wMDEyIEwyNi4wMDE5LDIzLjAwMDIgTDIyLjAwMDksMjMuMDAwMiBMMjIuMDAwOSwyNy4wMDEyIFoiIGlkPSJGaWxsLTEiPjwvcGF0aD4KICAgICAgICAgICAgPGcgaWQ9Ikdyb3VwLTgiIHRyYW5zZm9ybT0idHJhbnNsYXRlKDAuMDAwMDAwLCAwLjAwMTkwMCkiPgogICAgICAgICAgICAgICAgPGcgaWQ9Ikdyb3VwLTQiIHRyYW5zZm9ybT0idHJhbnNsYXRlKDExLjAwMDAwMCwgMC4wMDAwMDApIj4KICAgICAgICAgICAgICAgICAgICA8cGF0aCBkPSJNMTIuNjQ2Nyw2LjgxNzkgQzExLjU0MjcsNi44MTc5IDEwLjY0NjcsNS45MjI5IDEwLjY0NjcsNC44MTc5IEMxMC42NDY3LDMuNzEzOSAxMS41NDI3LDIuODE3OSAxMi42NDY3LDIuODE3OSBDMTMuNzUwNywyLjgxNzkgMTQuNjQ2NywzLjcxMzkgMTQuNjQ2Nyw0LjgxNzkgQzE0LjY0NTcsNS45MjE5IDEzLjc1MDcsNi44MTY5IDEyLjY0NjcsNi44MTc5IE0xNi43MzM3LDMuNTE4OSBDMTYuMzU2NywyLjQ5ODkgMTUuNTMxNywxLjY2NzkgMTQuNTE1NywxLjI4MDkgQzEyLjEyNzcsMC4zNzA5IDkuNzE3NywxLjc1NTkgOS4xNDI3LDMuOTk3OSBMMC4wMDA3LDMuOTk3OSBMMC4wMDA3LDUuOTk3OSBMOS4xNDI3LDUuOTk3OSBDOS41MDc3LDcuMzk3OSAxMC42MDE3LDguNDkwOSAxMi4wMDA3LDguODU1OSBMMTIuMDAwNywxNy45OTc5IEwxNC4wMDA3LDE3Ljk5NzkgTDE0LjAwMDcsOC44NTU5IEMxNi4yMjk3LDguMjgxOSAxNy42MTE3LDUuODk2OSAxNi43MzM3LDMuNTE4OSIgaWQ9IkZpbGwtMiI+PC9wYXRoPgogICAgICAgICAgICAgICAgPC9nPgogICAgICAgICAgICAgICAgPGcgaWQ9Ikdyb3VwLTciIHRyYW5zZm9ybT0idHJhbnNsYXRlKDAuMDAwMDAwLCAxMS4wMDAwMDApIj4KICAgICAgICAgICAgICAgICAgICA8cGF0aCBkPSJNMy42NDY3LDE1LjgxNzkgQzIuNTQyNywxNS44MTc5IDEuNjQ2NywxNC45MjI5IDEuNjQ2NywxMy44MTc5IEMxLjY0NjcsMTIuNzEzOSAyLjU0MjcsMTEuODE3OSAzLjY0NjcsMTEuODE3OSBDNC43NTA3LDExLjgxNzkgNS42NDY3LDEyLjcxMzkgNS42NDY3LDEzLjgxNzkgQzUuNjQ1NywxNC45MjE5IDQuNzUwNywxNS44MTY5IDMuNjQ2NywxNS44MTc5IEwzLjY0NjcsMTUuODE3OSBaIE0xNy4wMDA3LDEyLjk5NzkgTDcuODU4NywxMi45OTc5IEM3LjQ5MzcsMTEuNTk3OSA2LjQwMDcsMTAuNTA0OSA1LjAwMDcsMTAuMTM5OSBMNS4wMDA3LDAuOTk3OSBMMy4wMDA3LDAuOTk3OSBMMy4wMDA3LDEwLjEzOTkgQzAuNDg3NywxMC43ODQ5IC0wLjg1MTMsMTMuNjgzOSAwLjU5NDcsMTYuMTE5OSBDMS4xNTA3LDE3LjA1NTkgMi4xMTE3LDE3LjcyODkgMy4xODI3LDE3LjkyNjkgQzUuNDAyNywxOC4zMzc5IDcuMzUzNywxNi45Njk5IDcuODU4NywxNC45OTc5IEwxNy4wMDA3LDE0Ljk5NzkgTDE3LjAwMDcsMTIuOTk3OSBaIiBpZD0iRmlsbC01Ij48L3BhdGg+CiAgICAgICAgICAgICAgICA8L2c+CiAgICAgICAgICAgIDwvZz4KICAgICAgICA8L2c+CiAgICA8L2c+Cjwvc3ZnPg==;" parent="j9GXgACKSNPuvCItniIa-12" vertex="1">
          <mxGeometry x="20" y="6.849999999999909" width="20" height="19.31" as="geometry" />
        </mxCell>
        <mxCell id="G9iv7065l-6P10pQh_sO-0" value="AZs" parent="0" />
        <mxCell id="pEGuMoAMFqIg68gzwtf1-57" value="" style="rounded=0;whiteSpace=wrap;html=1;fontFamily=IBM Plex Sans;fontSource=fonts%2FIBMPlexSans-Regular.woff;fontSize=14;spacingBottom=-28;spacingTop=0;labelPosition=-100;verticalLabelPosition=top;align=center;verticalAlign=bottom;spacingLeft=9;spacing=0;expand=0;recursiveResize=0;spacingRight=0;container=1;collapsible=0;strokeColor=#666666;fillColor=#f5f5f5;fontColor=#333333;" parent="G9iv7065l-6P10pQh_sO-0" vertex="1">
          <mxGeometry x="809" y="-1431.9999999999995" width="200" height="340" as="geometry">
            <mxRectangle width="670" as="alternateBounds" />
          </mxGeometry>
        </mxCell>
        <mxCell id="pEGuMoAMFqIg68gzwtf1-58" value="" style="rounded=0;whiteSpace=wrap;html=1;strokeColor=none;fillColor=#878d96;" parent="pEGuMoAMFqIg68gzwtf1-57" vertex="1">
          <mxGeometry width="7" height="37" as="geometry" />
        </mxCell>
        <mxCell id="pEGuMoAMFqIg68gzwtf1-59" value="AZ 3&lt;br&gt;10.243.128.0/18" style="text;html=1;strokeColor=none;fillColor=none;align=left;verticalAlign=middle;whiteSpace=wrap;rounded=0;fontFamily=IBM Plex Sans;fontSource=fonts%2FIBMPlexSans-Regular.woff;fontSize=14;" parent="pEGuMoAMFqIg68gzwtf1-57" vertex="1">
          <mxGeometry x="51" y="8" width="168" height="20" as="geometry" />
        </mxCell>
        <mxCell id="pEGuMoAMFqIg68gzwtf1-60" value="" style="shape=image;aspect=fixed;image=data:image/svg+xml,PD94bWwgdmVyc2lvbj0iMS4wIiBlbmNvZGluZz0iVVRGLTgiPz4KPHN2ZyB3aWR0aD0iMjlweCIgaGVpZ2h0PSIyNnB4IiB2aWV3Qm94PSIwIDAgMjkgMjYiIHZlcnNpb249IjEuMSIgeG1sbnM9Imh0dHA6Ly93d3cudzMub3JnLzIwMDAvc3ZnIiB4bWxuczp4bGluaz0iaHR0cDovL3d3dy53My5vcmcvMTk5OS94bGluayI+CiAgICA8IS0tIEdlbmVyYXRvcjogU2tldGNoIDUzICg3MjUyMCkgLSBodHRwczovL3NrZXRjaGFwcC5jb20gLS0+CiAgICA8dGl0bGU+Wm9uZSBCbGFjazwvdGl0bGU+CiAgICA8ZGVzYz5DcmVhdGVkIHdpdGggU2tldGNoLjwvZGVzYz4KICAgIDxnIGlkPSJQYWdlLTEiIHN0cm9rZT0ibm9uZSIgc3Ryb2tlLXdpZHRoPSIxIiBmaWxsPSJub25lIiBmaWxsLXJ1bGU9ImV2ZW5vZGQiPgogICAgICAgIDxnIGlkPSJab25lLUJsYWNrIiB0cmFuc2Zvcm09InRyYW5zbGF0ZSgwLjEyNTAwMCwgMC4wMDAwMDApIiBmaWxsPSIjMDAwMDAwIj4KICAgICAgICAgICAgPGcgaWQ9Ikdyb3VwLTMiPgogICAgICAgICAgICAgICAgPHBhdGggZD0iTTI2LjAwMDEsMjQuMDAwMSBMMjEuMDAwMSwyNC4wMDAxIEwyMS4wMDAxLDIwLjAwMDEgTDIzLjAwMDEsMjAuMDAwMSBMMjMuMDAwMSwxOC4wMDAxIEwyMS4wMDAxLDE4LjAwMDEgTDIxLjAwMDEsMTYuMDAwMSBMMjMuMDAwMSwxNi4wMDAxIEwyMy4wMDAxLDE0LjAwMDEgTDIxLjAwMDEsMTQuMDAwMSBMMjEuMDAwMSwxMi4wMDAxIEwyMy4wMDAxLDEyLjAwMDEgTDIzLjAwMDEsMTAuMDAwMSBMMjEuMDAwMSwxMC4wMDAxIEwyMS4wMDAxLDguMDAwMSBMMjYuMDAwMSw4LjAwMDEgTDI2LjAwMDEsMjQuMDAwMSBaIE05LjAwMDEsMjQuMDAwMSBMMTkuMDAwMSwyNC4wMDAxIEwxOS4wMDAxLDIuMDAwMSBMOS4wMDAxLDIuMDAwMSBMOS4wMDAxLDI0LjAwMDEgWiBNMi4wMDAxLDI0LjAwMDEgTDIuMDAwMSw4LjAwMDEgTDcuMDAwMSw4LjAwMDEgTDcuMDAwMSwxMC4wMDAxIEw1LjAwMDEsMTAuMDAwMSBMNS4wMDAxLDEyLjAwMDEgTDcuMDAwMSwxMi4wMDAxIEw3LjAwMDEsMTQuMDAwMSBMNS4wMDAxLDE0LjAwMDEgTDUuMDAwMSwxNi4wMDAxIEw3LjAwMDEsMTYuMDAwMSBMNy4wMDAxLDE4LjAwMDEgTDUuMDAwMSwxOC4wMDAxIEw1LjAwMDEsMjAuMDAwMSBMNy4wMDAxLDIwLjAwMDEgTDcuMDAwMSwyNC4wMDAxIEwyLjAwMDEsMjQuMDAwMSBaIE0yNi4wMDAxLDYuMDAwMSBMMjEuMDAwMSw2LjAwMDEgTDIxLjAwMDEsMi4wMDAxIEMyMC45OTkxLDAuODk2MSAyMC4xMDQxLDAuMDAxMSAxOS4wMDAxLDAuMDAwMSBMOS4wMDAxLDAuMDAwMSBDNy44OTYxLDAuMDAxMSA3LjAwMTEsMC44OTYxIDcuMDAwMSwyLjAwMDEgTDcuMDAwMSw2LjAwMDEgTDIuMDAwMSw2LjAwMDEgQzAuODk2MSw2LjAwMTEgMC4wMDExLDYuODk2MSAwLjAwMDEsOC4wMDAxIEwwLjAwMDEsMjQuMDAwMSBDMC4wMDExLDI1LjEwNDEgMC44OTYxLDI1Ljk5OTEgMi4wMDAxLDI2LjAwMDEgTDI2LjAwMDEsMjYuMDAwMSBDMjcuMTA0MSwyNS45OTkxIDI3Ljk5OTEsMjUuMTA0MSAyOC4wMDAxLDI0LjAwMDEgTDI4LjAwMDEsOC4wMDAxIEMyNy45OTkxLDYuODk2MSAyNy4xMDQxLDYuMDAxMSAyNi4wMDAxLDYuMDAwMSBMMjYuMDAwMSw2LjAwMDEgWiIgaWQ9IkZpbGwtMSI+PC9wYXRoPgogICAgICAgICAgICA8L2c+CiAgICAgICAgICAgIDxwb2x5Z29uIGlkPSJGaWxsLTQiIHBvaW50cz0iMTIgNiAxNiA2IDE2IDQgMTIgNCI+PC9wb2x5Z29uPgogICAgICAgICAgICA8cG9seWdvbiBpZD0iRmlsbC02IiBwb2ludHM9IjEyIDEwIDE2IDEwIDE2IDggMTIgOCI+PC9wb2x5Z29uPgogICAgICAgICAgICA8cG9seWdvbiBpZD0iRmlsbC03IiBwb2ludHM9IjEyIDE0IDE2IDE0IDE2IDEyIDEyIDEyIj48L3BvbHlnb24+CiAgICAgICAgPC9nPgogICAgPC9nPgo8L3N2Zz4=;" parent="pEGuMoAMFqIg68gzwtf1-57" vertex="1">
          <mxGeometry x="20" y="8.07" width="20" height="17.93" as="geometry" />
        </mxCell>
        <mxCell id="pEGuMoAMFqIg68gzwtf1-61" style="edgeStyle=orthogonalEdgeStyle;rounded=0;orthogonalLoop=1;jettySize=auto;html=1;exitX=0;exitY=0.5;exitDx=0;exitDy=0;entryX=1.009;entryY=0.22;entryDx=0;entryDy=0;entryPerimeter=0;fontFamily=IBM Plex Sans;fontSource=fonts%2FIBMPlexSans-Regular.woff;fontSize=14;startArrow=oval;startFill=1;strokeColor=#198038;" parent="pEGuMoAMFqIg68gzwtf1-57" edge="1">
          <mxGeometry relative="1" as="geometry" />
        </mxCell>
        <mxCell id="pEGuMoAMFqIg68gzwtf1-52" value="" style="rounded=0;whiteSpace=wrap;html=1;fontFamily=IBM Plex Sans;fontSource=fonts%2FIBMPlexSans-Regular.woff;fontSize=14;spacingBottom=-28;spacingTop=0;labelPosition=-100;verticalLabelPosition=top;align=center;verticalAlign=bottom;spacingLeft=9;spacing=0;expand=0;recursiveResize=0;spacingRight=0;container=1;collapsible=0;strokeColor=#666666;fillColor=#f5f5f5;fontColor=#333333;" parent="G9iv7065l-6P10pQh_sO-0" vertex="1">
          <mxGeometry x="554" y="-1430.9999999999995" width="200" height="340" as="geometry">
            <mxRectangle width="670" as="alternateBounds" />
          </mxGeometry>
        </mxCell>
        <mxCell id="pEGuMoAMFqIg68gzwtf1-53" value="" style="rounded=0;whiteSpace=wrap;html=1;strokeColor=none;fillColor=#878d96;" parent="pEGuMoAMFqIg68gzwtf1-52" vertex="1">
          <mxGeometry width="7" height="37" as="geometry" />
        </mxCell>
        <mxCell id="pEGuMoAMFqIg68gzwtf1-54" value="AZ 2&lt;br&gt;10.243.64.0/18" style="text;html=1;strokeColor=none;fillColor=none;align=left;verticalAlign=middle;whiteSpace=wrap;rounded=0;fontFamily=IBM Plex Sans;fontSource=fonts%2FIBMPlexSans-Regular.woff;fontSize=14;" parent="pEGuMoAMFqIg68gzwtf1-52" vertex="1">
          <mxGeometry x="51" y="8" width="168" height="20" as="geometry" />
        </mxCell>
        <mxCell id="pEGuMoAMFqIg68gzwtf1-55" value="" style="shape=image;aspect=fixed;image=data:image/svg+xml,PD94bWwgdmVyc2lvbj0iMS4wIiBlbmNvZGluZz0iVVRGLTgiPz4KPHN2ZyB3aWR0aD0iMjlweCIgaGVpZ2h0PSIyNnB4IiB2aWV3Qm94PSIwIDAgMjkgMjYiIHZlcnNpb249IjEuMSIgeG1sbnM9Imh0dHA6Ly93d3cudzMub3JnLzIwMDAvc3ZnIiB4bWxuczp4bGluaz0iaHR0cDovL3d3dy53My5vcmcvMTk5OS94bGluayI+CiAgICA8IS0tIEdlbmVyYXRvcjogU2tldGNoIDUzICg3MjUyMCkgLSBodHRwczovL3NrZXRjaGFwcC5jb20gLS0+CiAgICA8dGl0bGU+Wm9uZSBCbGFjazwvdGl0bGU+CiAgICA8ZGVzYz5DcmVhdGVkIHdpdGggU2tldGNoLjwvZGVzYz4KICAgIDxnIGlkPSJQYWdlLTEiIHN0cm9rZT0ibm9uZSIgc3Ryb2tlLXdpZHRoPSIxIiBmaWxsPSJub25lIiBmaWxsLXJ1bGU9ImV2ZW5vZGQiPgogICAgICAgIDxnIGlkPSJab25lLUJsYWNrIiB0cmFuc2Zvcm09InRyYW5zbGF0ZSgwLjEyNTAwMCwgMC4wMDAwMDApIiBmaWxsPSIjMDAwMDAwIj4KICAgICAgICAgICAgPGcgaWQ9Ikdyb3VwLTMiPgogICAgICAgICAgICAgICAgPHBhdGggZD0iTTI2LjAwMDEsMjQuMDAwMSBMMjEuMDAwMSwyNC4wMDAxIEwyMS4wMDAxLDIwLjAwMDEgTDIzLjAwMDEsMjAuMDAwMSBMMjMuMDAwMSwxOC4wMDAxIEwyMS4wMDAxLDE4LjAwMDEgTDIxLjAwMDEsMTYuMDAwMSBMMjMuMDAwMSwxNi4wMDAxIEwyMy4wMDAxLDE0LjAwMDEgTDIxLjAwMDEsMTQuMDAwMSBMMjEuMDAwMSwxMi4wMDAxIEwyMy4wMDAxLDEyLjAwMDEgTDIzLjAwMDEsMTAuMDAwMSBMMjEuMDAwMSwxMC4wMDAxIEwyMS4wMDAxLDguMDAwMSBMMjYuMDAwMSw4LjAwMDEgTDI2LjAwMDEsMjQuMDAwMSBaIE05LjAwMDEsMjQuMDAwMSBMMTkuMDAwMSwyNC4wMDAxIEwxOS4wMDAxLDIuMDAwMSBMOS4wMDAxLDIuMDAwMSBMOS4wMDAxLDI0LjAwMDEgWiBNMi4wMDAxLDI0LjAwMDEgTDIuMDAwMSw4LjAwMDEgTDcuMDAwMSw4LjAwMDEgTDcuMDAwMSwxMC4wMDAxIEw1LjAwMDEsMTAuMDAwMSBMNS4wMDAxLDEyLjAwMDEgTDcuMDAwMSwxMi4wMDAxIEw3LjAwMDEsMTQuMDAwMSBMNS4wMDAxLDE0LjAwMDEgTDUuMDAwMSwxNi4wMDAxIEw3LjAwMDEsMTYuMDAwMSBMNy4wMDAxLDE4LjAwMDEgTDUuMDAwMSwxOC4wMDAxIEw1LjAwMDEsMjAuMDAwMSBMNy4wMDAxLDIwLjAwMDEgTDcuMDAwMSwyNC4wMDAxIEwyLjAwMDEsMjQuMDAwMSBaIE0yNi4wMDAxLDYuMDAwMSBMMjEuMDAwMSw2LjAwMDEgTDIxLjAwMDEsMi4wMDAxIEMyMC45OTkxLDAuODk2MSAyMC4xMDQxLDAuMDAxMSAxOS4wMDAxLDAuMDAwMSBMOS4wMDAxLDAuMDAwMSBDNy44OTYxLDAuMDAxMSA3LjAwMTEsMC44OTYxIDcuMDAwMSwyLjAwMDEgTDcuMDAwMSw2LjAwMDEgTDIuMDAwMSw2LjAwMDEgQzAuODk2MSw2LjAwMTEgMC4wMDExLDYuODk2MSAwLjAwMDEsOC4wMDAxIEwwLjAwMDEsMjQuMDAwMSBDMC4wMDExLDI1LjEwNDEgMC44OTYxLDI1Ljk5OTEgMi4wMDAxLDI2LjAwMDEgTDI2LjAwMDEsMjYuMDAwMSBDMjcuMTA0MSwyNS45OTkxIDI3Ljk5OTEsMjUuMTA0MSAyOC4wMDAxLDI0LjAwMDEgTDI4LjAwMDEsOC4wMDAxIEMyNy45OTkxLDYuODk2MSAyNy4xMDQxLDYuMDAxMSAyNi4wMDAxLDYuMDAwMSBMMjYuMDAwMSw2LjAwMDEgWiIgaWQ9IkZpbGwtMSI+PC9wYXRoPgogICAgICAgICAgICA8L2c+CiAgICAgICAgICAgIDxwb2x5Z29uIGlkPSJGaWxsLTQiIHBvaW50cz0iMTIgNiAxNiA2IDE2IDQgMTIgNCI+PC9wb2x5Z29uPgogICAgICAgICAgICA8cG9seWdvbiBpZD0iRmlsbC02IiBwb2ludHM9IjEyIDEwIDE2IDEwIDE2IDggMTIgOCI+PC9wb2x5Z29uPgogICAgICAgICAgICA8cG9seWdvbiBpZD0iRmlsbC03IiBwb2ludHM9IjEyIDE0IDE2IDE0IDE2IDEyIDEyIDEyIj48L3BvbHlnb24+CiAgICAgICAgPC9nPgogICAgPC9nPgo8L3N2Zz4=;" parent="pEGuMoAMFqIg68gzwtf1-52" vertex="1">
          <mxGeometry x="20" y="8.07" width="20" height="17.93" as="geometry" />
        </mxCell>
        <mxCell id="pEGuMoAMFqIg68gzwtf1-56" style="edgeStyle=orthogonalEdgeStyle;rounded=0;orthogonalLoop=1;jettySize=auto;html=1;exitX=0;exitY=0.5;exitDx=0;exitDy=0;entryX=1.009;entryY=0.22;entryDx=0;entryDy=0;entryPerimeter=0;fontFamily=IBM Plex Sans;fontSource=fonts%2FIBMPlexSans-Regular.woff;fontSize=14;startArrow=oval;startFill=1;strokeColor=#198038;" parent="pEGuMoAMFqIg68gzwtf1-52" edge="1">
          <mxGeometry relative="1" as="geometry" />
        </mxCell>
        <mxCell id="pEGuMoAMFqIg68gzwtf1-5" value="" style="rounded=0;whiteSpace=wrap;html=1;fontFamily=IBM Plex Sans;fontSource=fonts%2FIBMPlexSans-Regular.woff;fontSize=14;spacingBottom=-28;spacingTop=0;labelPosition=-100;verticalLabelPosition=top;align=center;verticalAlign=bottom;spacingLeft=9;spacing=0;expand=0;recursiveResize=0;spacingRight=0;container=1;collapsible=0;strokeColor=#666666;fillColor=#f5f5f5;fontColor=#333333;" parent="G9iv7065l-6P10pQh_sO-0" vertex="1">
          <mxGeometry x="298" y="-1430" width="200" height="340" as="geometry">
            <mxRectangle width="670" as="alternateBounds" />
          </mxGeometry>
        </mxCell>
        <mxCell id="pEGuMoAMFqIg68gzwtf1-6" value="" style="rounded=0;whiteSpace=wrap;html=1;strokeColor=none;fillColor=#878d96;" parent="pEGuMoAMFqIg68gzwtf1-5" vertex="1">
          <mxGeometry width="7" height="37" as="geometry" />
        </mxCell>
        <mxCell id="pEGuMoAMFqIg68gzwtf1-7" value="AZ 1&lt;br&gt;10.243.0.0/18" style="text;html=1;strokeColor=none;fillColor=none;align=left;verticalAlign=middle;whiteSpace=wrap;rounded=0;fontFamily=IBM Plex Sans;fontSource=fonts%2FIBMPlexSans-Regular.woff;fontSize=14;" parent="pEGuMoAMFqIg68gzwtf1-5" vertex="1">
          <mxGeometry x="51" y="8" width="168" height="20" as="geometry" />
        </mxCell>
        <mxCell id="pEGuMoAMFqIg68gzwtf1-8" value="" style="shape=image;aspect=fixed;image=data:image/svg+xml,PD94bWwgdmVyc2lvbj0iMS4wIiBlbmNvZGluZz0iVVRGLTgiPz4KPHN2ZyB3aWR0aD0iMjlweCIgaGVpZ2h0PSIyNnB4IiB2aWV3Qm94PSIwIDAgMjkgMjYiIHZlcnNpb249IjEuMSIgeG1sbnM9Imh0dHA6Ly93d3cudzMub3JnLzIwMDAvc3ZnIiB4bWxuczp4bGluaz0iaHR0cDovL3d3dy53My5vcmcvMTk5OS94bGluayI+CiAgICA8IS0tIEdlbmVyYXRvcjogU2tldGNoIDUzICg3MjUyMCkgLSBodHRwczovL3NrZXRjaGFwcC5jb20gLS0+CiAgICA8dGl0bGU+Wm9uZSBCbGFjazwvdGl0bGU+CiAgICA8ZGVzYz5DcmVhdGVkIHdpdGggU2tldGNoLjwvZGVzYz4KICAgIDxnIGlkPSJQYWdlLTEiIHN0cm9rZT0ibm9uZSIgc3Ryb2tlLXdpZHRoPSIxIiBmaWxsPSJub25lIiBmaWxsLXJ1bGU9ImV2ZW5vZGQiPgogICAgICAgIDxnIGlkPSJab25lLUJsYWNrIiB0cmFuc2Zvcm09InRyYW5zbGF0ZSgwLjEyNTAwMCwgMC4wMDAwMDApIiBmaWxsPSIjMDAwMDAwIj4KICAgICAgICAgICAgPGcgaWQ9Ikdyb3VwLTMiPgogICAgICAgICAgICAgICAgPHBhdGggZD0iTTI2LjAwMDEsMjQuMDAwMSBMMjEuMDAwMSwyNC4wMDAxIEwyMS4wMDAxLDIwLjAwMDEgTDIzLjAwMDEsMjAuMDAwMSBMMjMuMDAwMSwxOC4wMDAxIEwyMS4wMDAxLDE4LjAwMDEgTDIxLjAwMDEsMTYuMDAwMSBMMjMuMDAwMSwxNi4wMDAxIEwyMy4wMDAxLDE0LjAwMDEgTDIxLjAwMDEsMTQuMDAwMSBMMjEuMDAwMSwxMi4wMDAxIEwyMy4wMDAxLDEyLjAwMDEgTDIzLjAwMDEsMTAuMDAwMSBMMjEuMDAwMSwxMC4wMDAxIEwyMS4wMDAxLDguMDAwMSBMMjYuMDAwMSw4LjAwMDEgTDI2LjAwMDEsMjQuMDAwMSBaIE05LjAwMDEsMjQuMDAwMSBMMTkuMDAwMSwyNC4wMDAxIEwxOS4wMDAxLDIuMDAwMSBMOS4wMDAxLDIuMDAwMSBMOS4wMDAxLDI0LjAwMDEgWiBNMi4wMDAxLDI0LjAwMDEgTDIuMDAwMSw4LjAwMDEgTDcuMDAwMSw4LjAwMDEgTDcuMDAwMSwxMC4wMDAxIEw1LjAwMDEsMTAuMDAwMSBMNS4wMDAxLDEyLjAwMDEgTDcuMDAwMSwxMi4wMDAxIEw3LjAwMDEsMTQuMDAwMSBMNS4wMDAxLDE0LjAwMDEgTDUuMDAwMSwxNi4wMDAxIEw3LjAwMDEsMTYuMDAwMSBMNy4wMDAxLDE4LjAwMDEgTDUuMDAwMSwxOC4wMDAxIEw1LjAwMDEsMjAuMDAwMSBMNy4wMDAxLDIwLjAwMDEgTDcuMDAwMSwyNC4wMDAxIEwyLjAwMDEsMjQuMDAwMSBaIE0yNi4wMDAxLDYuMDAwMSBMMjEuMDAwMSw2LjAwMDEgTDIxLjAwMDEsMi4wMDAxIEMyMC45OTkxLDAuODk2MSAyMC4xMDQxLDAuMDAxMSAxOS4wMDAxLDAuMDAwMSBMOS4wMDAxLDAuMDAwMSBDNy44OTYxLDAuMDAxMSA3LjAwMTEsMC44OTYxIDcuMDAwMSwyLjAwMDEgTDcuMDAwMSw2LjAwMDEgTDIuMDAwMSw2LjAwMDEgQzAuODk2MSw2LjAwMTEgMC4wMDExLDYuODk2MSAwLjAwMDEsOC4wMDAxIEwwLjAwMDEsMjQuMDAwMSBDMC4wMDExLDI1LjEwNDEgMC44OTYxLDI1Ljk5OTEgMi4wMDAxLDI2LjAwMDEgTDI2LjAwMDEsMjYuMDAwMSBDMjcuMTA0MSwyNS45OTkxIDI3Ljk5OTEsMjUuMTA0MSAyOC4wMDAxLDI0LjAwMDEgTDI4LjAwMDEsOC4wMDAxIEMyNy45OTkxLDYuODk2MSAyNy4xMDQxLDYuMDAxMSAyNi4wMDAxLDYuMDAwMSBMMjYuMDAwMSw2LjAwMDEgWiIgaWQ9IkZpbGwtMSI+PC9wYXRoPgogICAgICAgICAgICA8L2c+CiAgICAgICAgICAgIDxwb2x5Z29uIGlkPSJGaWxsLTQiIHBvaW50cz0iMTIgNiAxNiA2IDE2IDQgMTIgNCI+PC9wb2x5Z29uPgogICAgICAgICAgICA8cG9seWdvbiBpZD0iRmlsbC02IiBwb2ludHM9IjEyIDEwIDE2IDEwIDE2IDggMTIgOCI+PC9wb2x5Z29uPgogICAgICAgICAgICA8cG9seWdvbiBpZD0iRmlsbC03IiBwb2ludHM9IjEyIDE0IDE2IDE0IDE2IDEyIDEyIDEyIj48L3BvbHlnb24+CiAgICAgICAgPC9nPgogICAgPC9nPgo8L3N2Zz4=;" parent="pEGuMoAMFqIg68gzwtf1-5" vertex="1">
          <mxGeometry x="20" y="8.07" width="20" height="17.93" as="geometry" />
        </mxCell>
        <mxCell id="pEGuMoAMFqIg68gzwtf1-9" style="edgeStyle=orthogonalEdgeStyle;rounded=0;orthogonalLoop=1;jettySize=auto;html=1;exitX=0;exitY=0.5;exitDx=0;exitDy=0;entryX=1.009;entryY=0.22;entryDx=0;entryDy=0;entryPerimeter=0;fontFamily=IBM Plex Sans;fontSource=fonts%2FIBMPlexSans-Regular.woff;fontSize=14;startArrow=oval;startFill=1;strokeColor=#198038;" parent="pEGuMoAMFqIg68gzwtf1-5" edge="1">
          <mxGeometry relative="1" as="geometry" />
        </mxCell>
        <mxCell id="G9iv7065l-6P10pQh_sO-1" value="VPC Subnet" parent="0" />
        <mxCell id="fpsseA4Z9fjPV2AbE0Nl-2" value="" style="rounded=0;whiteSpace=wrap;html=1;fontFamily=IBM Plex Sans;fontSource=fonts%2FIBMPlexSans-Regular.woff;fontSize=14;spacingBottom=-28;spacingTop=0;labelPosition=-100;verticalLabelPosition=top;align=center;verticalAlign=bottom;spacingLeft=9;spacing=0;expand=0;recursiveResize=0;spacingRight=0;container=1;collapsible=0;" parent="G9iv7065l-6P10pQh_sO-1" vertex="1">
          <mxGeometry x="318" y="-1380" width="160" height="281" as="geometry">
            <mxRectangle width="670" as="alternateBounds" />
          </mxGeometry>
        </mxCell>
        <mxCell id="fpsseA4Z9fjPV2AbE0Nl-3" value="" style="rounded=0;whiteSpace=wrap;html=1;strokeColor=none;fillColor=#1192E8;" parent="fpsseA4Z9fjPV2AbE0Nl-2" vertex="1">
          <mxGeometry width="7" height="37" as="geometry" />
        </mxCell>
        <mxCell id="fpsseA4Z9fjPV2AbE0Nl-4" value="Subnet: ACL&lt;br&gt;10.243.0.0/24" style="text;html=1;strokeColor=none;fillColor=none;align=left;verticalAlign=middle;whiteSpace=wrap;rounded=0;fontFamily=IBM Plex Sans;fontSource=fonts%2FIBMPlexSans-Regular.woff;fontSize=14;" parent="fpsseA4Z9fjPV2AbE0Nl-2" vertex="1">
          <mxGeometry x="51" y="8" width="163" height="20" as="geometry" />
        </mxCell>
        <mxCell id="fpsseA4Z9fjPV2AbE0Nl-5" value="" style="shape=image;aspect=fixed;image=data:image/svg+xml,PD94bWwgdmVyc2lvbj0iMS4wIiBlbmNvZGluZz0iVVRGLTgiPz4KPHN2ZyB3aWR0aD0iMjlweCIgaGVpZ2h0PSIyOXB4IiB2aWV3Qm94PSIwIDAgMjkgMjkiIHZlcnNpb249IjEuMSIgeG1sbnM9Imh0dHA6Ly93d3cudzMub3JnLzIwMDAvc3ZnIiB4bWxuczp4bGluaz0iaHR0cDovL3d3dy53My5vcmcvMTk5OS94bGluayI+CiAgICA8IS0tIEdlbmVyYXRvcjogU2tldGNoIDUzICg3MjUyMCkgLSBodHRwczovL3NrZXRjaGFwcC5jb20gLS0+CiAgICA8dGl0bGU+SUJNIFN1Ym5ldCA6IEFDTCBCbGFjazwvdGl0bGU+CiAgICA8ZGVzYz5DcmVhdGVkIHdpdGggU2tldGNoLjwvZGVzYz4KICAgIDxnIGlkPSJQYWdlLTEiIHN0cm9rZT0ibm9uZSIgc3Ryb2tlLXdpZHRoPSIxIiBmaWxsPSJub25lIiBmaWxsLXJ1bGU9ImV2ZW5vZGQiPgogICAgICAgIDxnIGlkPSJJQk0tU3VibmV0LTotQUNMLUJsYWNrIiB0cmFuc2Zvcm09InRyYW5zbGF0ZSgwLjc1MDAwMCwgMC4wNzQ5NTkpIiBmaWxsPSIjMDAwMDAwIj4KICAgICAgICAgICAgPHBhdGggZD0iTTI0LjAxNjEsMjYuMjIyMSBDMjIuOTEyMSwyNi4yMjIxIDIyLjAxNjEsMjUuMzI2MSAyMi4wMTYxLDI0LjIyMjEgQzIyLjAxNjEsMjMuMTE4MSAyMi45MTIxLDIyLjIyMjEgMjQuMDE2MSwyMi4yMjIxIEMyNS4xMjAxLDIyLjIyMjEgMjYuMDE2MSwyMy4xMTgxIDI2LjAxNjEsMjQuMjIyMSBDMjYuMDEzMSwyNS4zMjUxIDI1LjExOTEsMjYuMjE5MSAyNC4wMTYxLDI2LjIyMjEgTTQuMDE2MSwyNi4yMjIxIEMyLjkxMjEsMjYuMjIyMSAyLjAxNjEsMjUuMzI2MSAyLjAxNjEsMjQuMjIyMSBDMi4wMTYxLDIzLjExODEgMi45MTIxLDIyLjIyMjEgNC4wMTYxLDIyLjIyMjEgQzUuMTIwMSwyMi4yMjIxIDYuMDE2MSwyMy4xMTgxIDYuMDE2MSwyNC4yMjIxIEM2LjAxMzEsMjUuMzI1MSA1LjExOTEsMjYuMjE5MSA0LjAxNjEsMjYuMjIyMSBNNC4wMTYxLDYuMjIyMSBDMi45MTIxLDYuMjIyMSAyLjAxNjEsNS4zMjYxIDIuMDE2MSw0LjIyMjEgQzIuMDE2MSwzLjExODEgMi45MTIxLDIuMjIyMSA0LjAxNjEsMi4yMjIxIEM1LjEyMDEsMi4yMjIxIDYuMDE2MSwzLjExODEgNi4wMTYxLDQuMjIyMSBDNi4wMTMxLDUuMzI1MSA1LjExOTEsNi4yMTkxIDQuMDE2MSw2LjIyMjEgTTI0LjAxNjEsMi4yMjIxIEMyNS4xMjAxLDIuMjIyMSAyNi4wMTYxLDMuMTE4MSAyNi4wMTYxLDQuMjIyMSBDMjYuMDE2MSw1LjMyNjEgMjUuMTIwMSw2LjIyMjEgMjQuMDE2MSw2LjIyMjEgQzIyLjkxMjEsNi4yMjIxIDIyLjAxNjEsNS4zMjYxIDIyLjAxNjEsNC4yMjIxIEMyMi4wMTkxLDMuMTE4MSAyMi45MTMxLDIuMjI1MSAyNC4wMTYxLDIuMjIyMSBNMjQuMDE2MSwyMC4wMDAxIEMyMy4zMDUxLDE5Ljk5ODEgMjIuNjA5MSwyMC4yMDcxIDIyLjAxNjEsMjAuNjAwMSBMMTcuNDMwMSwxNi4wMDAxIEwxNi4wMTYxLDE3LjQxNDEgTDIwLjYxNjEsMjIuMDAwMSBDMjAuNDQwMSwyMi4zMTQxIDIwLjMwNjEsMjIuNjUxMSAyMC4yMTYxLDIzLjAwMDEgTDcuODc0MSwyMy4wMDAxIEM3Ljc3NDEsMjIuNjQ1MSA3LjYyMDEsMjIuMzA3MSA3LjQxNjEsMjIuMDAwMSBMMjIuMDE2MSw3LjQwMDEgQzIzLjgwNzEsOC41ODYxIDI2LjUzNzEsOC4wOTQxIDI3Ljc5NDEsNS4xOTgxIEMyNy45MTAxLDQuOTMyMSAyNy45OTIxLDQuNjQ0MSAyOC4wMTYxLDQuMzU1MSBDMjguMjIxMSwxLjk5NDEgMjYuMzcwMSwwLjAwOTEgMjQuMDQ4MSwwLjAwMDEgQzIyLjIxODEsLTAuMDA2OSAyMC42MTcxLDEuMjI4MSAyMC4xNTkxLDMuMDAwMSBMNy45MTYxLDMuMDAwMSBDNy40MzMxLDEuMjQwMSA1Ljg0MTEsMC4wMTUxIDQuMDE2MSwwLjAwMDEgQzEuNjc0MSwwLjAwMDEgLTAuMTk2OSwyLjAxMjEgMC4wMzYxLDQuNDAyMSBDMC4wNjcxLDQuNzIzMSAwLjE2MzEsNS4wNDExIDAuMjk5MSw1LjMzNTEgQzEuNTgyMSw4LjEwOTEgNC4yNTQxLDguNTY3MSA2LjAxNjEsNy40MDAxIEwxMC42MDIxLDEyLjAwMDEgTDEyLjAxNjEsMTAuNTg2MSBMNy40MTYxLDYuMDAwMSBDNy41OTIxLDUuNjg1MSA3LjcyNjEsNS4zNDkxIDcuODE2MSw1LjAwMDEgTDIwLjE1ODEsNS4wMDAxIEMyMC4yNTgxLDUuMzU1MSAyMC40MTIxLDUuNjkyMSAyMC42MTYxLDYuMDAwMSBMNi4wMTYxLDIwLjYwMDEgQzQuMjI0MSwxOS40MTMxIDEuNDk0MSwxOS45MDcxIDAuMjM3MSwyMi44MDUxIEMwLjEyMjEsMjMuMDcwMSAwLjA0MDEsMjMuMzU3MSAwLjAxNjEsMjMuNjQ1MSBDLTAuMTg3OSwyNi4wMDYxIDEuNjYzMSwyNy45OTExIDMuOTg0MSwyOC4wMDAxIEM1LjgxNDEsMjguMDA3MSA3LjQxNTEsMjYuNzcyMSA3Ljg3MzEsMjUuMDAwMSBMMjAuMTE2MSwyNS4wMDAxIEMyMC43MjkxLDI3LjQxMzEgMjMuNDEyMSwyOC43NTUxIDI1Ljc4NzEsMjcuNjEwMSBDMjcuMTAzMSwyNi45NzUxIDI3Ljk4NzEsMjUuNjA0MSAyOC4wMTgxLDI0LjE0MzEgQzI4LjA2ODEsMjEuNzk1MSAyNi4yMTIxLDIwLjAwNjEgMjQuMDE2MSwyMC4wMDAxIiBpZD0iRmlsbC0xIj48L3BhdGg+CiAgICAgICAgPC9nPgogICAgPC9nPgo8L3N2Zz4=;" parent="fpsseA4Z9fjPV2AbE0Nl-2" vertex="1">
          <mxGeometry x="20" y="7" width="20" height="20" as="geometry" />
        </mxCell>
        <mxCell id="fpsseA4Z9fjPV2AbE0Nl-33" value="" style="rounded=0;whiteSpace=wrap;html=1;fontFamily=IBM Plex Sans;fontSource=fonts%2FIBMPlexSans-Regular.woff;fontSize=14;spacingBottom=-28;spacingTop=0;labelPosition=-100;verticalLabelPosition=top;align=center;verticalAlign=bottom;spacingLeft=9;spacing=0;expand=0;recursiveResize=0;spacingRight=0;container=1;collapsible=0;" parent="G9iv7065l-6P10pQh_sO-1" vertex="1">
          <mxGeometry x="575" y="-1380" width="160" height="280" as="geometry">
            <mxRectangle width="670" as="alternateBounds" />
          </mxGeometry>
        </mxCell>
        <mxCell id="fpsseA4Z9fjPV2AbE0Nl-34" value="" style="rounded=0;whiteSpace=wrap;html=1;strokeColor=none;fillColor=#1192E8;" parent="fpsseA4Z9fjPV2AbE0Nl-33" vertex="1">
          <mxGeometry width="7" height="37" as="geometry" />
        </mxCell>
        <mxCell id="fpsseA4Z9fjPV2AbE0Nl-35" value="Subnet: ACL&lt;br&gt;10.243.64.0/24" style="text;html=1;strokeColor=none;fillColor=none;align=left;verticalAlign=middle;whiteSpace=wrap;rounded=0;fontFamily=IBM Plex Sans;fontSource=fonts%2FIBMPlexSans-Regular.woff;fontSize=14;" parent="fpsseA4Z9fjPV2AbE0Nl-33" vertex="1">
          <mxGeometry x="51" y="8" width="163" height="20" as="geometry" />
        </mxCell>
        <mxCell id="fpsseA4Z9fjPV2AbE0Nl-36" value="" style="shape=image;aspect=fixed;image=data:image/svg+xml,PD94bWwgdmVyc2lvbj0iMS4wIiBlbmNvZGluZz0iVVRGLTgiPz4KPHN2ZyB3aWR0aD0iMjlweCIgaGVpZ2h0PSIyOXB4IiB2aWV3Qm94PSIwIDAgMjkgMjkiIHZlcnNpb249IjEuMSIgeG1sbnM9Imh0dHA6Ly93d3cudzMub3JnLzIwMDAvc3ZnIiB4bWxuczp4bGluaz0iaHR0cDovL3d3dy53My5vcmcvMTk5OS94bGluayI+CiAgICA8IS0tIEdlbmVyYXRvcjogU2tldGNoIDUzICg3MjUyMCkgLSBodHRwczovL3NrZXRjaGFwcC5jb20gLS0+CiAgICA8dGl0bGU+SUJNIFN1Ym5ldCA6IEFDTCBCbGFjazwvdGl0bGU+CiAgICA8ZGVzYz5DcmVhdGVkIHdpdGggU2tldGNoLjwvZGVzYz4KICAgIDxnIGlkPSJQYWdlLTEiIHN0cm9rZT0ibm9uZSIgc3Ryb2tlLXdpZHRoPSIxIiBmaWxsPSJub25lIiBmaWxsLXJ1bGU9ImV2ZW5vZGQiPgogICAgICAgIDxnIGlkPSJJQk0tU3VibmV0LTotQUNMLUJsYWNrIiB0cmFuc2Zvcm09InRyYW5zbGF0ZSgwLjc1MDAwMCwgMC4wNzQ5NTkpIiBmaWxsPSIjMDAwMDAwIj4KICAgICAgICAgICAgPHBhdGggZD0iTTI0LjAxNjEsMjYuMjIyMSBDMjIuOTEyMSwyNi4yMjIxIDIyLjAxNjEsMjUuMzI2MSAyMi4wMTYxLDI0LjIyMjEgQzIyLjAxNjEsMjMuMTE4MSAyMi45MTIxLDIyLjIyMjEgMjQuMDE2MSwyMi4yMjIxIEMyNS4xMjAxLDIyLjIyMjEgMjYuMDE2MSwyMy4xMTgxIDI2LjAxNjEsMjQuMjIyMSBDMjYuMDEzMSwyNS4zMjUxIDI1LjExOTEsMjYuMjE5MSAyNC4wMTYxLDI2LjIyMjEgTTQuMDE2MSwyNi4yMjIxIEMyLjkxMjEsMjYuMjIyMSAyLjAxNjEsMjUuMzI2MSAyLjAxNjEsMjQuMjIyMSBDMi4wMTYxLDIzLjExODEgMi45MTIxLDIyLjIyMjEgNC4wMTYxLDIyLjIyMjEgQzUuMTIwMSwyMi4yMjIxIDYuMDE2MSwyMy4xMTgxIDYuMDE2MSwyNC4yMjIxIEM2LjAxMzEsMjUuMzI1MSA1LjExOTEsMjYuMjE5MSA0LjAxNjEsMjYuMjIyMSBNNC4wMTYxLDYuMjIyMSBDMi45MTIxLDYuMjIyMSAyLjAxNjEsNS4zMjYxIDIuMDE2MSw0LjIyMjEgQzIuMDE2MSwzLjExODEgMi45MTIxLDIuMjIyMSA0LjAxNjEsMi4yMjIxIEM1LjEyMDEsMi4yMjIxIDYuMDE2MSwzLjExODEgNi4wMTYxLDQuMjIyMSBDNi4wMTMxLDUuMzI1MSA1LjExOTEsNi4yMTkxIDQuMDE2MSw2LjIyMjEgTTI0LjAxNjEsMi4yMjIxIEMyNS4xMjAxLDIuMjIyMSAyNi4wMTYxLDMuMTE4MSAyNi4wMTYxLDQuMjIyMSBDMjYuMDE2MSw1LjMyNjEgMjUuMTIwMSw2LjIyMjEgMjQuMDE2MSw2LjIyMjEgQzIyLjkxMjEsNi4yMjIxIDIyLjAxNjEsNS4zMjYxIDIyLjAxNjEsNC4yMjIxIEMyMi4wMTkxLDMuMTE4MSAyMi45MTMxLDIuMjI1MSAyNC4wMTYxLDIuMjIyMSBNMjQuMDE2MSwyMC4wMDAxIEMyMy4zMDUxLDE5Ljk5ODEgMjIuNjA5MSwyMC4yMDcxIDIyLjAxNjEsMjAuNjAwMSBMMTcuNDMwMSwxNi4wMDAxIEwxNi4wMTYxLDE3LjQxNDEgTDIwLjYxNjEsMjIuMDAwMSBDMjAuNDQwMSwyMi4zMTQxIDIwLjMwNjEsMjIuNjUxMSAyMC4yMTYxLDIzLjAwMDEgTDcuODc0MSwyMy4wMDAxIEM3Ljc3NDEsMjIuNjQ1MSA3LjYyMDEsMjIuMzA3MSA3LjQxNjEsMjIuMDAwMSBMMjIuMDE2MSw3LjQwMDEgQzIzLjgwNzEsOC41ODYxIDI2LjUzNzEsOC4wOTQxIDI3Ljc5NDEsNS4xOTgxIEMyNy45MTAxLDQuOTMyMSAyNy45OTIxLDQuNjQ0MSAyOC4wMTYxLDQuMzU1MSBDMjguMjIxMSwxLjk5NDEgMjYuMzcwMSwwLjAwOTEgMjQuMDQ4MSwwLjAwMDEgQzIyLjIxODEsLTAuMDA2OSAyMC42MTcxLDEuMjI4MSAyMC4xNTkxLDMuMDAwMSBMNy45MTYxLDMuMDAwMSBDNy40MzMxLDEuMjQwMSA1Ljg0MTEsMC4wMTUxIDQuMDE2MSwwLjAwMDEgQzEuNjc0MSwwLjAwMDEgLTAuMTk2OSwyLjAxMjEgMC4wMzYxLDQuNDAyMSBDMC4wNjcxLDQuNzIzMSAwLjE2MzEsNS4wNDExIDAuMjk5MSw1LjMzNTEgQzEuNTgyMSw4LjEwOTEgNC4yNTQxLDguNTY3MSA2LjAxNjEsNy40MDAxIEwxMC42MDIxLDEyLjAwMDEgTDEyLjAxNjEsMTAuNTg2MSBMNy40MTYxLDYuMDAwMSBDNy41OTIxLDUuNjg1MSA3LjcyNjEsNS4zNDkxIDcuODE2MSw1LjAwMDEgTDIwLjE1ODEsNS4wMDAxIEMyMC4yNTgxLDUuMzU1MSAyMC40MTIxLDUuNjkyMSAyMC42MTYxLDYuMDAwMSBMNi4wMTYxLDIwLjYwMDEgQzQuMjI0MSwxOS40MTMxIDEuNDk0MSwxOS45MDcxIDAuMjM3MSwyMi44MDUxIEMwLjEyMjEsMjMuMDcwMSAwLjA0MDEsMjMuMzU3MSAwLjAxNjEsMjMuNjQ1MSBDLTAuMTg3OSwyNi4wMDYxIDEuNjYzMSwyNy45OTExIDMuOTg0MSwyOC4wMDAxIEM1LjgxNDEsMjguMDA3MSA3LjQxNTEsMjYuNzcyMSA3Ljg3MzEsMjUuMDAwMSBMMjAuMTE2MSwyNS4wMDAxIEMyMC43MjkxLDI3LjQxMzEgMjMuNDEyMSwyOC43NTUxIDI1Ljc4NzEsMjcuNjEwMSBDMjcuMTAzMSwyNi45NzUxIDI3Ljk4NzEsMjUuNjA0MSAyOC4wMTgxLDI0LjE0MzEgQzI4LjA2ODEsMjEuNzk1MSAyNi4yMTIxLDIwLjAwNjEgMjQuMDE2MSwyMC4wMDAxIiBpZD0iRmlsbC0xIj48L3BhdGg+CiAgICAgICAgPC9nPgogICAgPC9nPgo8L3N2Zz4=;" parent="fpsseA4Z9fjPV2AbE0Nl-33" vertex="1">
          <mxGeometry x="20" y="7" width="20" height="20" as="geometry" />
        </mxCell>
        <mxCell id="fpsseA4Z9fjPV2AbE0Nl-42" value="" style="rounded=0;whiteSpace=wrap;html=1;fontFamily=IBM Plex Sans;fontSource=fonts%2FIBMPlexSans-Regular.woff;fontSize=14;spacingBottom=-28;spacingTop=0;labelPosition=-100;verticalLabelPosition=top;align=center;verticalAlign=bottom;spacingLeft=9;spacing=0;expand=0;recursiveResize=0;spacingRight=0;container=1;collapsible=0;" parent="G9iv7065l-6P10pQh_sO-1" vertex="1">
          <mxGeometry x="832" y="-1380" width="160" height="280" as="geometry">
            <mxRectangle width="670" as="alternateBounds" />
          </mxGeometry>
        </mxCell>
        <mxCell id="fpsseA4Z9fjPV2AbE0Nl-43" value="" style="rounded=0;whiteSpace=wrap;html=1;strokeColor=none;fillColor=#1192E8;" parent="fpsseA4Z9fjPV2AbE0Nl-42" vertex="1">
          <mxGeometry width="7" height="37" as="geometry" />
        </mxCell>
        <mxCell id="fpsseA4Z9fjPV2AbE0Nl-44" value="Subnet: ACL&lt;br&gt;10.243.128.0/24" style="text;html=1;strokeColor=none;fillColor=none;align=left;verticalAlign=middle;whiteSpace=wrap;rounded=0;fontFamily=IBM Plex Sans;fontSource=fonts%2FIBMPlexSans-Regular.woff;fontSize=14;" parent="fpsseA4Z9fjPV2AbE0Nl-42" vertex="1">
          <mxGeometry x="51" y="8" width="163" height="20" as="geometry" />
        </mxCell>
        <mxCell id="fpsseA4Z9fjPV2AbE0Nl-45" value="" style="shape=image;aspect=fixed;image=data:image/svg+xml,PD94bWwgdmVyc2lvbj0iMS4wIiBlbmNvZGluZz0iVVRGLTgiPz4KPHN2ZyB3aWR0aD0iMjlweCIgaGVpZ2h0PSIyOXB4IiB2aWV3Qm94PSIwIDAgMjkgMjkiIHZlcnNpb249IjEuMSIgeG1sbnM9Imh0dHA6Ly93d3cudzMub3JnLzIwMDAvc3ZnIiB4bWxuczp4bGluaz0iaHR0cDovL3d3dy53My5vcmcvMTk5OS94bGluayI+CiAgICA8IS0tIEdlbmVyYXRvcjogU2tldGNoIDUzICg3MjUyMCkgLSBodHRwczovL3NrZXRjaGFwcC5jb20gLS0+CiAgICA8dGl0bGU+SUJNIFN1Ym5ldCA6IEFDTCBCbGFjazwvdGl0bGU+CiAgICA8ZGVzYz5DcmVhdGVkIHdpdGggU2tldGNoLjwvZGVzYz4KICAgIDxnIGlkPSJQYWdlLTEiIHN0cm9rZT0ibm9uZSIgc3Ryb2tlLXdpZHRoPSIxIiBmaWxsPSJub25lIiBmaWxsLXJ1bGU9ImV2ZW5vZGQiPgogICAgICAgIDxnIGlkPSJJQk0tU3VibmV0LTotQUNMLUJsYWNrIiB0cmFuc2Zvcm09InRyYW5zbGF0ZSgwLjc1MDAwMCwgMC4wNzQ5NTkpIiBmaWxsPSIjMDAwMDAwIj4KICAgICAgICAgICAgPHBhdGggZD0iTTI0LjAxNjEsMjYuMjIyMSBDMjIuOTEyMSwyNi4yMjIxIDIyLjAxNjEsMjUuMzI2MSAyMi4wMTYxLDI0LjIyMjEgQzIyLjAxNjEsMjMuMTE4MSAyMi45MTIxLDIyLjIyMjEgMjQuMDE2MSwyMi4yMjIxIEMyNS4xMjAxLDIyLjIyMjEgMjYuMDE2MSwyMy4xMTgxIDI2LjAxNjEsMjQuMjIyMSBDMjYuMDEzMSwyNS4zMjUxIDI1LjExOTEsMjYuMjE5MSAyNC4wMTYxLDI2LjIyMjEgTTQuMDE2MSwyNi4yMjIxIEMyLjkxMjEsMjYuMjIyMSAyLjAxNjEsMjUuMzI2MSAyLjAxNjEsMjQuMjIyMSBDMi4wMTYxLDIzLjExODEgMi45MTIxLDIyLjIyMjEgNC4wMTYxLDIyLjIyMjEgQzUuMTIwMSwyMi4yMjIxIDYuMDE2MSwyMy4xMTgxIDYuMDE2MSwyNC4yMjIxIEM2LjAxMzEsMjUuMzI1MSA1LjExOTEsMjYuMjE5MSA0LjAxNjEsMjYuMjIyMSBNNC4wMTYxLDYuMjIyMSBDMi45MTIxLDYuMjIyMSAyLjAxNjEsNS4zMjYxIDIuMDE2MSw0LjIyMjEgQzIuMDE2MSwzLjExODEgMi45MTIxLDIuMjIyMSA0LjAxNjEsMi4yMjIxIEM1LjEyMDEsMi4yMjIxIDYuMDE2MSwzLjExODEgNi4wMTYxLDQuMjIyMSBDNi4wMTMxLDUuMzI1MSA1LjExOTEsNi4yMTkxIDQuMDE2MSw2LjIyMjEgTTI0LjAxNjEsMi4yMjIxIEMyNS4xMjAxLDIuMjIyMSAyNi4wMTYxLDMuMTE4MSAyNi4wMTYxLDQuMjIyMSBDMjYuMDE2MSw1LjMyNjEgMjUuMTIwMSw2LjIyMjEgMjQuMDE2MSw2LjIyMjEgQzIyLjkxMjEsNi4yMjIxIDIyLjAxNjEsNS4zMjYxIDIyLjAxNjEsNC4yMjIxIEMyMi4wMTkxLDMuMTE4MSAyMi45MTMxLDIuMjI1MSAyNC4wMTYxLDIuMjIyMSBNMjQuMDE2MSwyMC4wMDAxIEMyMy4zMDUxLDE5Ljk5ODEgMjIuNjA5MSwyMC4yMDcxIDIyLjAxNjEsMjAuNjAwMSBMMTcuNDMwMSwxNi4wMDAxIEwxNi4wMTYxLDE3LjQxNDEgTDIwLjYxNjEsMjIuMDAwMSBDMjAuNDQwMSwyMi4zMTQxIDIwLjMwNjEsMjIuNjUxMSAyMC4yMTYxLDIzLjAwMDEgTDcuODc0MSwyMy4wMDAxIEM3Ljc3NDEsMjIuNjQ1MSA3LjYyMDEsMjIuMzA3MSA3LjQxNjEsMjIuMDAwMSBMMjIuMDE2MSw3LjQwMDEgQzIzLjgwNzEsOC41ODYxIDI2LjUzNzEsOC4wOTQxIDI3Ljc5NDEsNS4xOTgxIEMyNy45MTAxLDQuOTMyMSAyNy45OTIxLDQuNjQ0MSAyOC4wMTYxLDQuMzU1MSBDMjguMjIxMSwxLjk5NDEgMjYuMzcwMSwwLjAwOTEgMjQuMDQ4MSwwLjAwMDEgQzIyLjIxODEsLTAuMDA2OSAyMC42MTcxLDEuMjI4MSAyMC4xNTkxLDMuMDAwMSBMNy45MTYxLDMuMDAwMSBDNy40MzMxLDEuMjQwMSA1Ljg0MTEsMC4wMTUxIDQuMDE2MSwwLjAwMDEgQzEuNjc0MSwwLjAwMDEgLTAuMTk2OSwyLjAxMjEgMC4wMzYxLDQuNDAyMSBDMC4wNjcxLDQuNzIzMSAwLjE2MzEsNS4wNDExIDAuMjk5MSw1LjMzNTEgQzEuNTgyMSw4LjEwOTEgNC4yNTQxLDguNTY3MSA2LjAxNjEsNy40MDAxIEwxMC42MDIxLDEyLjAwMDEgTDEyLjAxNjEsMTAuNTg2MSBMNy40MTYxLDYuMDAwMSBDNy41OTIxLDUuNjg1MSA3LjcyNjEsNS4zNDkxIDcuODE2MSw1LjAwMDEgTDIwLjE1ODEsNS4wMDAxIEMyMC4yNTgxLDUuMzU1MSAyMC40MTIxLDUuNjkyMSAyMC42MTYxLDYuMDAwMSBMNi4wMTYxLDIwLjYwMDEgQzQuMjI0MSwxOS40MTMxIDEuNDk0MSwxOS45MDcxIDAuMjM3MSwyMi44MDUxIEMwLjEyMjEsMjMuMDcwMSAwLjA0MDEsMjMuMzU3MSAwLjAxNjEsMjMuNjQ1MSBDLTAuMTg3OSwyNi4wMDYxIDEuNjYzMSwyNy45OTExIDMuOTg0MSwyOC4wMDAxIEM1LjgxNDEsMjguMDA3MSA3LjQxNTEsMjYuNzcyMSA3Ljg3MzEsMjUuMDAwMSBMMjAuMTE2MSwyNS4wMDAxIEMyMC43MjkxLDI3LjQxMzEgMjMuNDEyMSwyOC43NTUxIDI1Ljc4NzEsMjcuNjEwMSBDMjcuMTAzMSwyNi45NzUxIDI3Ljk4NzEsMjUuNjA0MSAyOC4wMTgxLDI0LjE0MzEgQzI4LjA2ODEsMjEuNzk1MSAyNi4yMTIxLDIwLjAwNjEgMjQuMDE2MSwyMC4wMDAxIiBpZD0iRmlsbC0xIj48L3BhdGg+CiAgICAgICAgPC9nPgogICAgPC9nPgo8L3N2Zz4=;" parent="fpsseA4Z9fjPV2AbE0Nl-42" vertex="1">
          <mxGeometry x="20" y="7" width="20" height="20" as="geometry" />
        </mxCell>
        <mxCell id="G9iv7065l-6P10pQh_sO-20" value="IKS Cluster" parent="0" />
        <UserObject label="" link="https://cloud.ibm.com/kubernetes/landing" linkTarget="_blank" id="fpsseA4Z9fjPV2AbE0Nl-31">
          <mxCell style="group;fillColor=#d5e8d4;opacity=50;" parent="G9iv7065l-6P10pQh_sO-20" vertex="1" connectable="0">
            <mxGeometry x="191" y="-1338" width="789" height="148" as="geometry" />
          </mxCell>
        </UserObject>
        <mxCell id="fpsseA4Z9fjPV2AbE0Nl-27" value="" style="rounded=0;whiteSpace=wrap;html=1;fontFamily=IBM Plex Sans;fontSource=fonts%2FIBMPlexSans-Regular.woff;fontSize=14;spacingBottom=-28;spacingTop=0;labelPosition=-100;verticalLabelPosition=top;align=center;verticalAlign=bottom;spacingLeft=9;spacing=0;expand=0;recursiveResize=0;spacingRight=0;container=0;collapsible=0;fillColor=none;strokeColor=#198038;" parent="fpsseA4Z9fjPV2AbE0Nl-31" vertex="1">
          <mxGeometry width="789" height="148" as="geometry">
            <mxRectangle width="670" as="alternateBounds" />
          </mxGeometry>
        </mxCell>
        <mxCell id="fpsseA4Z9fjPV2AbE0Nl-28" value="" style="rounded=0;whiteSpace=wrap;html=1;strokeColor=none;fillColor=#198038;" parent="fpsseA4Z9fjPV2AbE0Nl-31" vertex="1">
          <mxGeometry width="6.735365853658536" height="36.02631578947369" as="geometry" />
        </mxCell>
        <mxCell id="fpsseA4Z9fjPV2AbE0Nl-29" value="Cluster&lt;br&gt;OpenShift" style="text;html=1;strokeColor=none;fillColor=none;align=left;verticalAlign=middle;whiteSpace=wrap;rounded=0;fontFamily=IBM Plex Sans;fontSource=fonts%2FIBMPlexSans-Regular.woff;fontSize=14;" parent="fpsseA4Z9fjPV2AbE0Nl-31" vertex="1">
          <mxGeometry x="49.07195121951219" y="7.789473684210527" width="156.83780487804876" height="19.47368421052632" as="geometry" />
        </mxCell>
        <mxCell id="fpsseA4Z9fjPV2AbE0Nl-30" value="" style="shape=image;aspect=fixed;image=data:image/svg+xml,PD94bWwgdmVyc2lvbj0iMS4wIiBlbmNvZGluZz0iVVRGLTgiPz4KPHN2ZyB3aWR0aD0iMjdweCIgaGVpZ2h0PSIzMXB4IiB2aWV3Qm94PSIwIDAgMjcgMzEiIHZlcnNpb249IjEuMSIgeG1sbnM9Imh0dHA6Ly93d3cudzMub3JnLzIwMDAvc3ZnIiB4bWxuczp4bGluaz0iaHR0cDovL3d3dy53My5vcmcvMTk5OS94bGluayI+CiAgICA8dGl0bGU+R3JvdXAgODk8L3RpdGxlPgogICAgPGcgaWQ9IlBhZ2UtMSIgc3Ryb2tlPSJub25lIiBzdHJva2Utd2lkdGg9IjEiIGZpbGw9Im5vbmUiIGZpbGwtcnVsZT0iZXZlbm9kZCI+CiAgICAgICAgPGcgaWQ9InYyLTQ4eDQ4IiB0cmFuc2Zvcm09InRyYW5zbGF0ZSgtMjUyMy4wMDAwMDAsIC04NzYuMDAwMDAwKSIgZmlsbD0iIzAwMDAwMCIgZmlsbC1ydWxlPSJub256ZXJvIj4KICAgICAgICAgICAgPGcgaWQ9Ikdyb3VwLTg5IiB0cmFuc2Zvcm09InRyYW5zbGF0ZSgyNTIzLjI1MDAxMiwgODc2LjkzNjIwMykiPgogICAgICAgICAgICAgICAgPHBhdGggZD0iTTEzLjUwMzkwMDEsMC4xMzYyMzgwMDIgTDI1LjUwMzkwMDEsNy4xMzYyMzggTDI0LjQ5NjEwMDEsOC44NjM4MzggTDEzLDIuMTU3NzM4IEwyLDguNTc0MjM4IEwyLDIxLjQyNTgzOCBMMTMsMjcuODQyODM4IEwyNCwyMS40MjU4MzggTDI0LDE0LjAwMDAzOCBMMjYsMTQuMDAwMDM4IEwyNiwyMi4wMDAwMzggQzI2LDIyLjM1NTg0MTYgMjUuODExMTQ3NCwyMi42ODQ5MDc1IDI1LjUwMzkwMDEsMjIuODY0MzM4IEwxMy41MDM5MDAxLDI5Ljg2NDMzOCBDMTMuMzUwOTI2OSwyOS45NTM0MjcgMTMuMTc3MDI0MywzMC4wMDAwMzg4IDEzLDMwLjAwMDAzODggQzEyLjgyMjk3NTgsMzAuMDAwMDM4OCAxMi42NDkwNzMzLDI5Ljk1MzQyNyAxMi40OTYxMDAxLDI5Ljg2NDMzOCBMMC40OTYxMDAwNzQsMjIuODY0MzM4IEMwLjE4ODg1Mjc4NywyMi42ODQ5MDc1IDAsMjIuMzU1ODQxNiAwLDIyLjAwMDAzOCBMMCw4LjAwMDAzOCBDMCw3LjY0NDMzNjY0IDAuMTg4Nzk2OTM3LDcuMzE1MzY5OTYgMC40OTYxMDAwNzQsNy4xMzYyMzggTDEyLjQ5NjEwMDEsMC4xMzYyMzgwMDIgQzEyLjgwNzQ3NzIsLTAuMDQ1NDEyNjY3MiAxMy4xOTI1MjI5LC0wLjA0NTQxMjY2NzIgMTMuNTAzOTAwMSwwLjEzNjIzODAwMiBaIE0xMy41MTUsOC4xNDI3NjkzOSBMMTguNTE1LDExLjE0Mjc2OTQgQzE4LjgxNSwxMS4zMjM3Njk0IDE5LDExLjY0ODc2OTQgMTksMTEuOTk5NzY5NCBMMTksMTcuOTk5NzY5NCBDMTksMTguMzUwNzY5NCAxOC44MTUsMTguNjc2NzY5NCAxOC41MTUsMTguODU3NzY5NCBMMTMuNTE1LDIxLjg1Nzc2OTQgQzEzLjM1NiwyMS45NTI3Njk0IDEzLjE3OCwyMS45OTk3Njk0IDEzLDIxLjk5OTc2OTQgQzEyLjgyMiwyMS45OTk3Njk0IDEyLjY0NCwyMS45NTI3Njk0IDEyLjQ4NSwyMS44NTc3Njk0IEw3LjQ4NTAwMDA0LDE4Ljg1Nzc2OTQgQzcuMTg1MDAwMDQsMTguNjc2NzY5NCA3LjAwMDAwMDA0LDE4LjM1MDc2OTQgNy4wMDAwMDAwNCwxNy45OTk3Njk0IEw3LjAwMDAwMDA0LDExLjk5OTc2OTQgQzcuMDAwMDAwMDQsMTEuNjQ4NzY5NCA3LjE4NTAwMDA0LDExLjMyMzc2OTQgNy40ODUwMDAwNCwxMS4xNDI3Njk0IEwxMi40ODUsOC4xNDI3NjkzOSBDMTIuODAyLDcuOTUyNzY5MzkgMTMuMTk4LDcuOTUyNzY5MzkgMTMuNTE1LDguMTQyNzY5MzkgWiBNMTMsMTAuMTY1NzY5NCBMOS4wMDAwMDAwNCwxMi41NjY3Njk0IEw5LjAwMDAwMDA0LDE3LjQzMzc2OTQgTDEzLDE5LjgzMzc2OTQgTDE3LDE3LjQzMzc2OTQgTDE3LDEyLjU2Njc2OTQgTDEzLDEwLjE2NTc2OTQgWiIgaWQ9IlBhdGgtMiI+PC9wYXRoPgogICAgICAgICAgICA8L2c+CiAgICAgICAgPC9nPgogICAgPC9nPgo8L3N2Zz4=;" parent="fpsseA4Z9fjPV2AbE0Nl-31" vertex="1">
          <mxGeometry x="19.24390243902439" y="7.867368421052562" width="15.84659403080873" height="18.19650240693196" as="geometry" />
        </mxCell>
        <mxCell id="fpsseA4Z9fjPV2AbE0Nl-23" value="&lt;font style=&quot;font-size: 14px;&quot; data-font-src=&quot;fonts/IBMPlexSans-Regular.woff&quot; face=&quot;IBM Plex Sans&quot;&gt;Node&lt;/font&gt;" style="sketch=0;html=1;dashed=0;whitespace=wrap;fillColor=#2875E2;strokeColor=#ffffff;points=[[0.005,0.63,0],[0.1,0.2,0],[0.9,0.2,0],[0.5,0,0],[0.995,0.63,0],[0.72,0.99,0],[0.5,1,0],[0.28,0.99,0]];verticalLabelPosition=bottom;align=center;verticalAlign=top;shape=mxgraph.kubernetes.icon;prIcon=node;direction=west;spacingTop=-7;" parent="G9iv7065l-6P10pQh_sO-20" vertex="1">
          <mxGeometry x="340" y="-1268" width="48" height="50" as="geometry" />
        </mxCell>
        <mxCell id="fpsseA4Z9fjPV2AbE0Nl-24" value="&lt;font style=&quot;font-size: 14px;&quot; data-font-src=&quot;fonts/IBMPlexSans-Regular.woff&quot; face=&quot;IBM Plex Sans&quot;&gt;Node&lt;/font&gt;" style="sketch=0;html=1;dashed=0;whitespace=wrap;fillColor=#2875E2;strokeColor=#ffffff;points=[[0.005,0.63,0],[0.1,0.2,0],[0.9,0.2,0],[0.5,0,0],[0.995,0.63,0],[0.72,0.99,0],[0.5,1,0],[0.28,0.99,0]];verticalLabelPosition=bottom;align=center;verticalAlign=top;shape=mxgraph.kubernetes.icon;prIcon=node;spacingTop=-7;" parent="G9iv7065l-6P10pQh_sO-20" vertex="1">
          <mxGeometry x="412" y="-1268" width="50" height="48" as="geometry" />
        </mxCell>
        <mxCell id="fpsseA4Z9fjPV2AbE0Nl-39" value="&lt;font style=&quot;font-size: 14px;&quot; data-font-src=&quot;fonts/IBMPlexSans-Regular.woff&quot; face=&quot;IBM Plex Sans&quot;&gt;Node&lt;/font&gt;" style="sketch=0;html=1;dashed=0;whitespace=wrap;fillColor=#2875E2;strokeColor=#ffffff;points=[[0.005,0.63,0],[0.1,0.2,0],[0.9,0.2,0],[0.5,0,0],[0.995,0.63,0],[0.72,0.99,0],[0.5,1,0],[0.28,0.99,0]];verticalLabelPosition=bottom;align=center;verticalAlign=top;shape=mxgraph.kubernetes.icon;prIcon=node;direction=west;spacingTop=-7;" parent="G9iv7065l-6P10pQh_sO-20" vertex="1">
          <mxGeometry x="597" y="-1268" width="48" height="50" as="geometry" />
        </mxCell>
        <mxCell id="fpsseA4Z9fjPV2AbE0Nl-40" value="&lt;font style=&quot;font-size: 14px;&quot; data-font-src=&quot;fonts/IBMPlexSans-Regular.woff&quot; face=&quot;IBM Plex Sans&quot;&gt;Node&lt;/font&gt;" style="sketch=0;html=1;dashed=0;whitespace=wrap;fillColor=#2875E2;strokeColor=#ffffff;points=[[0.005,0.63,0],[0.1,0.2,0],[0.9,0.2,0],[0.5,0,0],[0.995,0.63,0],[0.72,0.99,0],[0.5,1,0],[0.28,0.99,0]];verticalLabelPosition=bottom;align=center;verticalAlign=top;shape=mxgraph.kubernetes.icon;prIcon=node;spacingTop=-7;" parent="G9iv7065l-6P10pQh_sO-20" vertex="1">
          <mxGeometry x="669" y="-1268" width="50" height="48" as="geometry" />
        </mxCell>
        <mxCell id="fpsseA4Z9fjPV2AbE0Nl-48" value="&lt;font style=&quot;font-size: 14px;&quot; data-font-src=&quot;fonts/IBMPlexSans-Regular.woff&quot; face=&quot;IBM Plex Sans&quot;&gt;Node&lt;/font&gt;" style="sketch=0;html=1;dashed=0;whitespace=wrap;fillColor=#2875E2;strokeColor=#ffffff;points=[[0.005,0.63,0],[0.1,0.2,0],[0.9,0.2,0],[0.5,0,0],[0.995,0.63,0],[0.72,0.99,0],[0.5,1,0],[0.28,0.99,0]];verticalLabelPosition=bottom;align=center;verticalAlign=top;shape=mxgraph.kubernetes.icon;prIcon=node;direction=west;spacingTop=-7;" parent="G9iv7065l-6P10pQh_sO-20" vertex="1">
          <mxGeometry x="854" y="-1268" width="48" height="50" as="geometry" />
        </mxCell>
        <mxCell id="fpsseA4Z9fjPV2AbE0Nl-49" value="&lt;font style=&quot;font-size: 14px;&quot; data-font-src=&quot;fonts/IBMPlexSans-Regular.woff&quot; face=&quot;IBM Plex Sans&quot;&gt;Node&lt;/font&gt;" style="sketch=0;html=1;dashed=0;whitespace=wrap;fillColor=#2875E2;strokeColor=#ffffff;points=[[0.005,0.63,0],[0.1,0.2,0],[0.9,0.2,0],[0.5,0,0],[0.995,0.63,0],[0.72,0.99,0],[0.5,1,0],[0.28,0.99,0]];verticalLabelPosition=bottom;align=center;verticalAlign=top;shape=mxgraph.kubernetes.icon;prIcon=node;spacingTop=-7;" parent="G9iv7065l-6P10pQh_sO-20" vertex="1">
          <mxGeometry x="926" y="-1268" width="50" height="48" as="geometry" />
        </mxCell>
        <mxCell id="xMRvmDxvFjKORFRv_BY5-46" value="VPC Public Gateway" parent="0" />
        <UserObject label="Public&#xa;Gateway&#xa;" link="https://cloud.ibm.com/vpc-ext/network/publicGateways" linkTarget="_blank" id="fpsseA4Z9fjPV2AbE0Nl-20">
          <mxCell style="shape=image;aspect=fixed;image=data:image/svg+xml,PHN2ZyBpZD0iTGF5ZXJfMSIgZGF0YS1uYW1lPSJMYXllciAxIiB4bWxucz0iaHR0cDovL3d3dy53My5vcmcvMjAwMC9zdmciIHZpZXdCb3g9IjAgMCA0OSA0OSI+PGRlZnM+PHN0eWxlPi5jbHMtMXtmaWxsOiMxMTkyZTg7fS5jbHMtMntmaWxsOiNmZmY7fS5jbHMtM3tmaWxsOm5vbmU7fTwvc3R5bGU+PC9kZWZzPjxyZWN0IGNsYXNzPSJjbHMtMSIgeD0iMC41IiB5PSIwLjUiIHdpZHRoPSI0OCIgaGVpZ2h0PSI0OCIgcng9IjgiLz48cGF0aCBjbGFzcz0iY2xzLTIiIGQ9Ik0zMy41MSwyNS4zOGExLjIzLDEuMjMsMCwwLDAsMC0xLjc2TDI5Ljg5LDIwbDEuODEtMS43OWExLjI1LDEuMjUsMCwxLDAtLjU4LTIuMDksMS4yMiwxLjIyLDAsMCwwLS4zMiwxLjIyTDI5LDE5LjEybC0zLjYzLTMuNjNhMS4yMywxLjIzLDAsMCwwLTEuNzYsMEwyMCwxOS4xMWwtMS43OS0xLjgyYTEuMjQsMS4yNCwwLDEsMC0yLjA5LjU5LDEuMjIsMS4yMiwwLDAsMCwxLjIyLjMyTDE5LjEyLDIwbC0zLjYzLDMuNjNhMS4yMywxLjIzLDAsMCwwLDAsMS43NkwxOS4xMiwyOSwxNy4zNCwzMC44YTEuMjIsMS4yMiwwLDAsMC0xLjIyLjMyLDEuMjQsMS4yNCwwLDEsMCwyLjA5LjU5TDIwLDI5Ljg5bDMuNjIsMy42MmExLjIzLDEuMjMsMCwwLDAsMS43NiwwTDI5LDI5Ljg4bDEuNzksMS43OGExLjIyLDEuMjIsMCwwLDAsLjMyLDEuMjIsMS4yNCwxLjI0LDAsMSwwLC41OC0yLjA5TDI5Ljg5LDI5Wm0tOSw3LjI0TDE2LjM4LDI0LjVsOC4xMi04LjEyLDguMTIsOC4xMloiLz48cmVjdCBjbGFzcz0iY2xzLTMiIHg9IjE0LjUiIHk9IjE0LjUiIHdpZHRoPSIyMCIgaGVpZ2h0PSIyMCIvPjxwYXRoIGNsYXNzPSJjbHMtMiIgZD0iTTI2LjM4LDIzLjI1SDIzLjI1VjIyYTEuMjUsMS4yNSwwLDAsMSwyLjUsMEgyN2EyLjUsMi41LDAsMCwwLTUsMHYxLjQyYTEuMjYsMS4yNiwwLDAsMC0uNjIsMS4wOHYzLjEyYTEuMjYsMS4yNiwwLDAsMCwxLjI0LDEuMjZoMy43NmExLjI2LDEuMjYsMCwwLDAsMS4yNC0xLjI2VjI0LjVBMS4yNSwxLjI1LDAsMCwwLDI2LjM4LDIzLjI1Wm0wLDQuMzdIMjIuNjJWMjQuNWgzLjc2WiIvPjwvc3ZnPg==;fontSize=14;fontFamily=IBM Plex Sans;fontSource=fonts%2FIBMPlexSans-Regular.woff;spacingTop=-7;labelPosition=center;verticalLabelPosition=bottom;align=center;verticalAlign=top;" parent="xMRvmDxvFjKORFRv_BY5-46" vertex="1">
            <mxGeometry x="337" y="-1183" width="48" height="48" as="geometry" />
          </mxCell>
        </UserObject>
        <UserObject label="Public&#xa;Gateway&#xa;" link="https://cloud.ibm.com/vpc-ext/network/publicGateways" linkTarget="_blank" id="fpsseA4Z9fjPV2AbE0Nl-46">
          <mxCell style="shape=image;aspect=fixed;image=data:image/svg+xml,PHN2ZyBpZD0iTGF5ZXJfMSIgZGF0YS1uYW1lPSJMYXllciAxIiB4bWxucz0iaHR0cDovL3d3dy53My5vcmcvMjAwMC9zdmciIHZpZXdCb3g9IjAgMCA0OSA0OSI+PGRlZnM+PHN0eWxlPi5jbHMtMXtmaWxsOiMxMTkyZTg7fS5jbHMtMntmaWxsOiNmZmY7fS5jbHMtM3tmaWxsOm5vbmU7fTwvc3R5bGU+PC9kZWZzPjxyZWN0IGNsYXNzPSJjbHMtMSIgeD0iMC41IiB5PSIwLjUiIHdpZHRoPSI0OCIgaGVpZ2h0PSI0OCIgcng9IjgiLz48cGF0aCBjbGFzcz0iY2xzLTIiIGQ9Ik0zMy41MSwyNS4zOGExLjIzLDEuMjMsMCwwLDAsMC0xLjc2TDI5Ljg5LDIwbDEuODEtMS43OWExLjI1LDEuMjUsMCwxLDAtLjU4LTIuMDksMS4yMiwxLjIyLDAsMCwwLS4zMiwxLjIyTDI5LDE5LjEybC0zLjYzLTMuNjNhMS4yMywxLjIzLDAsMCwwLTEuNzYsMEwyMCwxOS4xMWwtMS43OS0xLjgyYTEuMjQsMS4yNCwwLDEsMC0yLjA5LjU5LDEuMjIsMS4yMiwwLDAsMCwxLjIyLjMyTDE5LjEyLDIwbC0zLjYzLDMuNjNhMS4yMywxLjIzLDAsMCwwLDAsMS43NkwxOS4xMiwyOSwxNy4zNCwzMC44YTEuMjIsMS4yMiwwLDAsMC0xLjIyLjMyLDEuMjQsMS4yNCwwLDEsMCwyLjA5LjU5TDIwLDI5Ljg5bDMuNjIsMy42MmExLjIzLDEuMjMsMCwwLDAsMS43NiwwTDI5LDI5Ljg4bDEuNzksMS43OGExLjIyLDEuMjIsMCwwLDAsLjMyLDEuMjIsMS4yNCwxLjI0LDAsMSwwLC41OC0yLjA5TDI5Ljg5LDI5Wm0tOSw3LjI0TDE2LjM4LDI0LjVsOC4xMi04LjEyLDguMTIsOC4xMloiLz48cmVjdCBjbGFzcz0iY2xzLTMiIHg9IjE0LjUiIHk9IjE0LjUiIHdpZHRoPSIyMCIgaGVpZ2h0PSIyMCIvPjxwYXRoIGNsYXNzPSJjbHMtMiIgZD0iTTI2LjM4LDIzLjI1SDIzLjI1VjIyYTEuMjUsMS4yNSwwLDAsMSwyLjUsMEgyN2EyLjUsMi41LDAsMCwwLTUsMHYxLjQyYTEuMjYsMS4yNiwwLDAsMC0uNjIsMS4wOHYzLjEyYTEuMjYsMS4yNiwwLDAsMCwxLjI0LDEuMjZoMy43NmExLjI2LDEuMjYsMCwwLDAsMS4yNC0xLjI2VjI0LjVBMS4yNSwxLjI1LDAsMCwwLDI2LjM4LDIzLjI1Wm0wLDQuMzdIMjIuNjJWMjQuNWgzLjc2WiIvPjwvc3ZnPg==;fontSize=14;fontFamily=IBM Plex Sans;fontSource=fonts%2FIBMPlexSans-Regular.woff;spacingTop=-7;labelPosition=center;verticalLabelPosition=bottom;align=center;verticalAlign=top;" parent="xMRvmDxvFjKORFRv_BY5-46" vertex="1">
            <mxGeometry x="851" y="-1183" width="48" height="48" as="geometry" />
          </mxCell>
        </UserObject>
        <UserObject label="Public&#xa;Gateway&#xa;" link="https://cloud.ibm.com/vpc-ext/network/publicGateways" linkTarget="_blank" id="fpsseA4Z9fjPV2AbE0Nl-37">
          <mxCell style="shape=image;aspect=fixed;image=data:image/svg+xml,PHN2ZyBpZD0iTGF5ZXJfMSIgZGF0YS1uYW1lPSJMYXllciAxIiB4bWxucz0iaHR0cDovL3d3dy53My5vcmcvMjAwMC9zdmciIHZpZXdCb3g9IjAgMCA0OSA0OSI+PGRlZnM+PHN0eWxlPi5jbHMtMXtmaWxsOiMxMTkyZTg7fS5jbHMtMntmaWxsOiNmZmY7fS5jbHMtM3tmaWxsOm5vbmU7fTwvc3R5bGU+PC9kZWZzPjxyZWN0IGNsYXNzPSJjbHMtMSIgeD0iMC41IiB5PSIwLjUiIHdpZHRoPSI0OCIgaGVpZ2h0PSI0OCIgcng9IjgiLz48cGF0aCBjbGFzcz0iY2xzLTIiIGQ9Ik0zMy41MSwyNS4zOGExLjIzLDEuMjMsMCwwLDAsMC0xLjc2TDI5Ljg5LDIwbDEuODEtMS43OWExLjI1LDEuMjUsMCwxLDAtLjU4LTIuMDksMS4yMiwxLjIyLDAsMCwwLS4zMiwxLjIyTDI5LDE5LjEybC0zLjYzLTMuNjNhMS4yMywxLjIzLDAsMCwwLTEuNzYsMEwyMCwxOS4xMWwtMS43OS0xLjgyYTEuMjQsMS4yNCwwLDEsMC0yLjA5LjU5LDEuMjIsMS4yMiwwLDAsMCwxLjIyLjMyTDE5LjEyLDIwbC0zLjYzLDMuNjNhMS4yMywxLjIzLDAsMCwwLDAsMS43NkwxOS4xMiwyOSwxNy4zNCwzMC44YTEuMjIsMS4yMiwwLDAsMC0xLjIyLjMyLDEuMjQsMS4yNCwwLDEsMCwyLjA5LjU5TDIwLDI5Ljg5bDMuNjIsMy42MmExLjIzLDEuMjMsMCwwLDAsMS43NiwwTDI5LDI5Ljg4bDEuNzksMS43OGExLjIyLDEuMjIsMCwwLDAsLjMyLDEuMjIsMS4yNCwxLjI0LDAsMSwwLC41OC0yLjA5TDI5Ljg5LDI5Wm0tOSw3LjI0TDE2LjM4LDI0LjVsOC4xMi04LjEyLDguMTIsOC4xMloiLz48cmVjdCBjbGFzcz0iY2xzLTMiIHg9IjE0LjUiIHk9IjE0LjUiIHdpZHRoPSIyMCIgaGVpZ2h0PSIyMCIvPjxwYXRoIGNsYXNzPSJjbHMtMiIgZD0iTTI2LjM4LDIzLjI1SDIzLjI1VjIyYTEuMjUsMS4yNSwwLDAsMSwyLjUsMEgyN2EyLjUsMi41LDAsMCwwLTUsMHYxLjQyYTEuMjYsMS4yNiwwLDAsMC0uNjIsMS4wOHYzLjEyYTEuMjYsMS4yNiwwLDAsMCwxLjI0LDEuMjZoMy43NmExLjI2LDEuMjYsMCwwLDAsMS4yNC0xLjI2VjI0LjVBMS4yNSwxLjI1LDAsMCwwLDI2LjM4LDIzLjI1Wm0wLDQuMzdIMjIuNjJWMjQuNWgzLjc2WiIvPjwvc3ZnPg==;fontSize=14;fontFamily=IBM Plex Sans;fontSource=fonts%2FIBMPlexSans-Regular.woff;spacingTop=-7;labelPosition=center;verticalLabelPosition=bottom;align=center;verticalAlign=top;" parent="xMRvmDxvFjKORFRv_BY5-46" vertex="1">
            <mxGeometry x="594" y="-1183" width="48" height="48" as="geometry" />
          </mxCell>
        </UserObject>
        <mxCell id="LePszUchA78Cd8T5TKxg-0" value="IKS Ingress" parent="0" />
        <mxCell id="fpsseA4Z9fjPV2AbE0Nl-21" value="&lt;font style=&quot;font-size: 14px;&quot; data-font-src=&quot;fonts/IBMPlexSans-Regular.woff&quot; face=&quot;IBM Plex Sans&quot;&gt;Ingress&lt;/font&gt;" style="sketch=0;html=1;dashed=0;whitespace=wrap;fillColor=#2875E2;strokeColor=#ffffff;points=[[0.005,0.63,0],[0.1,0.2,0],[0.9,0.2,0],[0.5,0,0],[0.995,0.63,0],[0.72,0.99,0],[0.5,1,0],[0.28,0.99,0]];verticalLabelPosition=bottom;align=center;verticalAlign=top;shape=mxgraph.kubernetes.icon;prIcon=ing;labelPosition=center;spacingTop=-7;" parent="LePszUchA78Cd8T5TKxg-0" vertex="1">
          <mxGeometry x="376" y="-1332" width="50" height="48" as="geometry" />
        </mxCell>
        <mxCell id="fpsseA4Z9fjPV2AbE0Nl-47" value="&lt;font style=&quot;font-size: 14px;&quot; data-font-src=&quot;fonts/IBMPlexSans-Regular.woff&quot; face=&quot;IBM Plex Sans&quot;&gt;Ingress&lt;/font&gt;" style="sketch=0;html=1;dashed=0;whitespace=wrap;fillColor=#2875E2;strokeColor=#ffffff;points=[[0.005,0.63,0],[0.1,0.2,0],[0.9,0.2,0],[0.5,0,0],[0.995,0.63,0],[0.72,0.99,0],[0.5,1,0],[0.28,0.99,0]];verticalLabelPosition=bottom;align=center;verticalAlign=top;shape=mxgraph.kubernetes.icon;prIcon=ing;labelPosition=center;spacingTop=-7;" parent="LePszUchA78Cd8T5TKxg-0" vertex="1">
          <mxGeometry x="890" y="-1332" width="50" height="48" as="geometry" />
        </mxCell>
        <mxCell id="fpsseA4Z9fjPV2AbE0Nl-38" value="&lt;font style=&quot;font-size: 14px;&quot; data-font-src=&quot;fonts/IBMPlexSans-Regular.woff&quot; face=&quot;IBM Plex Sans&quot;&gt;Ingress&lt;/font&gt;" style="sketch=0;html=1;dashed=0;whitespace=wrap;fillColor=#2875E2;strokeColor=#ffffff;points=[[0.005,0.63,0],[0.1,0.2,0],[0.9,0.2,0],[0.5,0,0],[0.995,0.63,0],[0.72,0.99,0],[0.5,1,0],[0.28,0.99,0]];verticalLabelPosition=bottom;align=center;verticalAlign=top;shape=mxgraph.kubernetes.icon;prIcon=ing;labelPosition=center;spacingTop=-7;" parent="LePszUchA78Cd8T5TKxg-0" vertex="1">
          <mxGeometry x="633" y="-1332" width="50" height="48" as="geometry" />
        </mxCell>
        <mxCell id="CqgJpebpRuXrtnTW9I1T-1" value="VPC Security Group" parent="0" />
        <mxCell id="B7hwMd0WTHB7Fqr_FhUG-19" value="VPC Load Balancer" parent="0" />
        <UserObject label="Load&#xa;Balancer" link="https://cloud.ibm.com/vpc-ext/network/loadBalancers" linkTarget="_blank" id="pEGuMoAMFqIg68gzwtf1-51">
          <mxCell style="shape=image;aspect=fixed;image=data:image/svg+xml,PHN2ZyBpZD0iTGF5ZXJfMSIgZGF0YS1uYW1lPSJMYXllciAxIiB4bWxucz0iaHR0cDovL3d3dy53My5vcmcvMjAwMC9zdmciIHZpZXdCb3g9IjAgMCA0OSA0OSI+PGRlZnM+PHN0eWxlPi5jbHMtMXtmaWxsOiMxMTkyZTg7fS5jbHMtMntmaWxsOiNmZmY7fS5jbHMtM3tmaWxsOm5vbmU7fTwvc3R5bGU+PC9kZWZzPjxyZWN0IGNsYXNzPSJjbHMtMSIgeD0iMC41IiB5PSIwLjUiIHdpZHRoPSI0OCIgaGVpZ2h0PSI0OCIvPjxwYXRoIGNsYXNzPSJjbHMtMiIgZD0iTTMwLjc1LDI0LjVIMjcuNjJhMi41MSwyLjUxLDAsMCwxLTIuNS0yLjVIMjMuODhhMi41MSwyLjUxLDAsMCwxLTIuNSwyLjVIMTguMjVBMS4yNSwxLjI1LDAsMCwwLDE3LDI1Ljc1djIuNWgxLjI1di0yLjVoMy4xM2EzLjc3LDMuNzcsMCwwLDAsMi41LTF2My40NmgxLjI0VjI0Ljc5YTMuNzcsMy43NywwLDAsMCwyLjUsMWgzLjEzdjIuNUgzMnYtMi41QTEuMjUsMS4yNSwwLDAsMCwzMC43NSwyNC41WiIvPjxwYXRoIGNsYXNzPSJjbHMtMiIgZD0iTTE5LjUsMzMuMjVIMTUuNzVWMjkuNUgxOS41Wk0xNywzMmgxLjI1VjMwLjc1SDE3WiIvPjxwYXRoIGNsYXNzPSJjbHMtMiIgZD0iTTI2LjM4LDMzLjI1SDIyLjYyVjI5LjVoMy43NlpNMjMuODgsMzJoMS4yNFYzMC43NUgyMy44OFoiLz48cGF0aCBjbGFzcz0iY2xzLTIiIGQ9Ik0zMy4yNSwzMy4yNUgyOS41VjI5LjVoMy43NVpNMzAuNzUsMzJIMzJWMzAuNzVIMzAuNzVaIi8+PHBhdGggY2xhc3M9ImNscy0yIiBkPSJNMjQuNSwyMC43NWEyLjUsMi41LDAsMSwxLDIuNS0yLjVBMi41LDIuNSwwLDAsMSwyNC41LDIwLjc1Wm0wLTMuNzVhMS4yNSwxLjI1LDAsMSwwLDEuMjUsMS4yNUExLjI1LDEuMjUsMCwwLDAsMjQuNSwxN1oiLz48cmVjdCBjbGFzcz0iY2xzLTMiIHg9IjE0LjUiIHk9IjE0LjUiIHdpZHRoPSIyMCIgaGVpZ2h0PSIyMCIvPjwvc3ZnPg==;fontFamily=IBM Plex Sans;fontSource=fonts%2FIBMPlexSans-Regular.woff;fontSize=14;labelPosition=center;verticalLabelPosition=top;align=center;verticalAlign=bottom;spacingTop=-7;" parent="B7hwMd0WTHB7Fqr_FhUG-19" vertex="1">
            <mxGeometry x="503" y="-1492" width="48" height="48" as="geometry" />
          </mxCell>
        </UserObject>
        <mxCell id="TRjFG5NMPVC2NEs0p2y_-4" value="Network Ingress" parent="0" />
        <mxCell id="Ztp_hDvRX0_8dzycriiZ-0" style="edgeStyle=orthogonalEdgeStyle;rounded=1;orthogonalLoop=1;jettySize=auto;html=1;exitX=0.5;exitY=1;exitDx=0;exitDy=0;entryX=0.005;entryY=0.63;entryDx=0;entryDy=0;entryPerimeter=0;startArrow=classic;startFill=1;" parent="TRjFG5NMPVC2NEs0p2y_-4" source="pEGuMoAMFqIg68gzwtf1-51" target="fpsseA4Z9fjPV2AbE0Nl-38" edge="1">
          <mxGeometry relative="1" as="geometry" />
        </mxCell>
        <mxCell id="fpsseA4Z9fjPV2AbE0Nl-54" style="edgeStyle=orthogonalEdgeStyle;rounded=1;orthogonalLoop=1;jettySize=auto;html=1;exitX=0.5;exitY=1;exitDx=0;exitDy=0;entryX=0.995;entryY=0.63;entryDx=0;entryDy=0;entryPerimeter=0;startArrow=classic;startFill=1;" parent="TRjFG5NMPVC2NEs0p2y_-4" source="pEGuMoAMFqIg68gzwtf1-51" target="fpsseA4Z9fjPV2AbE0Nl-21" edge="1">
          <mxGeometry relative="1" as="geometry" />
        </mxCell>
        <mxCell id="fpsseA4Z9fjPV2AbE0Nl-52" style="edgeStyle=orthogonalEdgeStyle;rounded=1;orthogonalLoop=1;jettySize=auto;html=1;exitX=1;exitY=0.5;exitDx=0;exitDy=0;entryX=0.005;entryY=0.63;entryDx=0;entryDy=0;entryPerimeter=0;startArrow=classic;startFill=1;" parent="TRjFG5NMPVC2NEs0p2y_-4" target="fpsseA4Z9fjPV2AbE0Nl-47" edge="1">
          <mxGeometry relative="1" as="geometry">
            <Array as="points">
              <mxPoint x="780" y="-1468" />
              <mxPoint x="780" y="-1302" />
            </Array>
            <mxPoint x="547" y="-1468" as="sourcePoint" />
          </mxGeometry>
        </mxCell>
        <mxCell id="iMUtk0BgnNDtPifNUWYR-0" value="Network Egress" parent="0" />
        <mxCell id="xMRvmDxvFjKORFRv_BY5-44" value="VPC VPN" parent="0" />
        <mxCell id="G9iv7065l-6P10pQh_sO-28" value="Storage and DB Services" parent="0" />
        <mxCell id="j9GXgACKSNPuvCItniIa-4" value="" style="rounded=0;whiteSpace=wrap;html=1;fontFamily=IBM Plex Sans;fontSource=fonts%2FIBMPlexSans-Regular.woff;fontSize=14;spacingBottom=-28;spacingTop=0;labelPosition=-100;verticalLabelPosition=top;align=center;verticalAlign=bottom;spacingLeft=9;spacing=0;expand=0;recursiveResize=0;spacingRight=0;container=1;collapsible=0;" parent="G9iv7065l-6P10pQh_sO-28" vertex="1">
          <mxGeometry x="496" y="-1010" width="191" height="140" as="geometry">
            <mxRectangle width="670" as="alternateBounds" />
          </mxGeometry>
        </mxCell>
        <mxCell id="j9GXgACKSNPuvCItniIa-5" value="" style="rounded=0;whiteSpace=wrap;html=1;strokeColor=none;fillColor=#1192E8;" parent="j9GXgACKSNPuvCItniIa-4" vertex="1">
          <mxGeometry width="7" height="37" as="geometry" />
        </mxCell>
        <mxCell id="j9GXgACKSNPuvCItniIa-6" value="Storage and DB&lt;br&gt;Services" style="text;html=1;strokeColor=none;fillColor=none;align=left;verticalAlign=middle;whiteSpace=wrap;rounded=0;fontFamily=IBM Plex Sans;fontSource=fonts%2FIBMPlexSans-Regular.woff;fontSize=14;" parent="j9GXgACKSNPuvCItniIa-4" vertex="1">
          <mxGeometry x="51" y="8" width="209" height="20" as="geometry" />
        </mxCell>
        <mxCell id="j9GXgACKSNPuvCItniIa-7" value="" style="shape=image;aspect=fixed;image=data:image/svg+xml,PD94bWwgdmVyc2lvbj0iMS4wIiBlbmNvZGluZz0iVVRGLTgiPz4KPHN2ZyB3aWR0aD0iMzNweCIgaGVpZ2h0PSIyNnB4IiB2aWV3Qm94PSIwIDAgMzMgMjYiIHZlcnNpb249IjEuMSIgeG1sbnM9Imh0dHA6Ly93d3cudzMub3JnLzIwMDAvc3ZnIiB4bWxuczp4bGluaz0iaHR0cDovL3d3dy53My5vcmcvMTk5OS94bGluayI+CiAgICA8IS0tIEdlbmVyYXRvcjogU2tldGNoIDUzICg3MjUyMCkgLSBodHRwczovL3NrZXRjaGFwcC5jb20gLS0+CiAgICA8dGl0bGU+Q2xvdWQgU2VydmljZXMgQmxhY2s8L3RpdGxlPgogICAgPGRlc2M+Q3JlYXRlZCB3aXRoIFNrZXRjaC48L2Rlc2M+CiAgICA8ZyBpZD0iUGFnZS0xIiBzdHJva2U9Im5vbmUiIHN0cm9rZS13aWR0aD0iMSIgZmlsbD0ibm9uZSIgZmlsbC1ydWxlPSJldmVub2RkIj4KICAgICAgICA8ZyBpZD0iQ2xvdWQtU2VydmljZXMtQmxhY2siIHRyYW5zZm9ybT0idHJhbnNsYXRlKDAuMDYyNTAwLCAtMS4wMDAwMDApIiBmaWxsPSIjMDAwMDAwIj4KICAgICAgICAgICAgPGcgaWQ9Ikdyb3VwLTMiIHRyYW5zZm9ybT0idHJhbnNsYXRlKDAuMDAwMDAwLCAwLjAwMjAwMCkiPgogICAgICAgICAgICAgICAgPHBhdGggZD0iTTI1LjgyMzEsOS4xMjQgQzI0Ljc4NzEsMy43IDE5LjU1MTEsMC4xNDIgMTQuMTI2MSwxLjE3NyBDMTAuMDk4MSwxLjk0NiA2Ljk0ODEsNS4wOTYgNi4xNzkxLDkuMTI0IEMwLjA5MjEsMTAuMjExIC0yLjk1NzksMTguMzYzIDMuOTY0MSwyMy42MzIgQzQuMjg1MSwyMy44NzcgNC42ODkxLDI0IDUuMDkzMSwyNCBMOC4wMDExLDI0IEw4LjAwMTEsMjIgTDUuNDQ4MSwyMiBDNS4xMDQxLDIyIDQuNzYyMSwyMS44NzcgNC41MTExLDIxLjY0MiBDLTAuMzUzOSwxNy4wODYgMi41ODYxLDExLjMzIDcuMTI0MSwxMS4wMiBMNy45NjExLDEwLjk2MyBMOC4zNTYxLDcuMjk4IEM4LjQwNzEsNi44MzIgOC42MTMxLDYuMzg2IDguOTU3MSw2LjA2NyBDMTUuNjAxMSwtMC4wOTQgMjMuMjc2MSwzLjkzNyAyMy45NTIxLDEwLjEzIEwyNC4wNDIxLDEwLjk2MyBMMjYuOTI2MSwxMS4xNiBDMjcuMjY5MSwxMS4xODQgMjcuNjAxMSwxMS4zMyAyNy44MzUxLDExLjU4MiBDMzIuMzc5MSwxNi40NiAyOS4wNTAxLDIyLjAwMyAyNC41MDExLDIyIEwyNC4wMDExLDIyIEwyNC4wMDExLDI0IEwyNy4yMTUxLDI0IEMyNy42NjExLDI0IDI4LjEwMzEsMjMuODQ4IDI4LjQzNzEsMjMuNTUyIEMzNC45MTQxLDE3LjgxNiAzMS42NjgxLDEwLjE2OCAyNS44MjMxLDkuMTI0IiBpZD0iRmlsbC0xIj48L3BhdGg+CiAgICAgICAgICAgIDwvZz4KICAgICAgICAgICAgPHBhdGggZD0iTTE1LjU3NCwyMi44MjU3IEMxMy45MTcsMjIuODI1NyAxMi41NzQsMjEuNDgyNyAxMi41NzQsMTkuODI1NyBDMTIuNTc0LDE4LjE2ODcgMTMuOTE3LDE2LjgyNTcgMTUuNTc0LDE2LjgyNTcgQzE3LjIzMSwxNi44MjU3IDE4LjU3NCwxOC4xNjg3IDE4LjU3NCwxOS44MjU3IEMxOC41NzIsMjEuNDgxNyAxNy4yMywyMi44MjM3IDE1LjU3NCwyMi44MjU3IEwxNS41NzQsMjIuODI1NyBaIE0yMy4wMDEsMjEuMDAxNyBMMjMuMDAxLDE5LjAwMTcgTDIwLjksMTkuMDAxNyBDMjAuNzcxLDE4LjM3NTcgMjAuNTIzLDE3Ljc4MDcgMjAuMTY4LDE3LjI0ODcgTDIxLjY1OCwxNS43NTk3IEwyMC4yNDQsMTQuMzQ1NyBMMTguNzU0LDE1LjgzNDcgQzE4LjIyMiwxNS40ODA3IDE3LjYyNywxNS4yMzE3IDE3LjAwMSwxNS4xMDI3IEwxNy4wMDEsMTMuMDAxNyBMMTUuMDAxLDEzLjAwMTcgTDE1LjAwMSwxNS4xMDI3IEMxNC4zNzUsMTUuMjMxNyAxMy43OCwxNS40ODA3IDEzLjI0OCwxNS44MzQ3IEwxMS43NTgsMTQuMzQ0NyBMMTAuMzQ1LDE1Ljc1ODcgTDExLjgzNCwxNy4yNDg3IEMxMS40OCwxNy43ODA3IDExLjIzMSwxOC4zNzU3IDExLjEwMiwxOS4wMDE3IEw5LjAwMSwxOS4wMDE3IEw5LjAwMSwyMS4wMDE3IEwxMS4xMDIsMjEuMDAxNyBDMTEuMjMxLDIxLjYyNzcgMTEuNDgsMjIuMjIyNyAxMS44MzQsMjIuNzU0NyBMMTAuMzQ0LDI0LjI0NDcgTDExLjc1OCwyNS42NTg3IEwxMy4yNDgsMjQuMTY4NyBDMTMuNzgsMjQuNTIzNyAxNC4zNzUsMjQuNzcxNyAxNS4wMDEsMjQuOTAwNyBMMTUuMDAxLDI3LjAwMTcgTDE3LjAwMSwyNy4wMDE3IEwxNy4wMDEsMjQuOTAwNyBDMTcuNjI3LDI0Ljc3MTcgMTguMjIyLDI0LjUyMzcgMTguNzU0LDI0LjE2ODcgTDIwLjI0NCwyNS42NTg3IEwyMS42NTgsMjQuMjQ0NyBMMjAuMTY4LDIyLjc1NDcgQzIwLjUyMywyMi4yMjI3IDIwLjc3MSwyMS42Mjc3IDIwLjksMjEuMDAxNyBMMjMuMDAxLDIxLjAwMTcgWiIgaWQ9IkZpbGwtNCI+PC9wYXRoPgogICAgICAgIDwvZz4KICAgIDwvZz4KPC9zdmc+;" parent="j9GXgACKSNPuvCItniIa-4" vertex="1">
          <mxGeometry x="20" y="6.65" width="25" height="19.71" as="geometry" />
        </mxCell>
        <mxCell id="fpsseA4Z9fjPV2AbE0Nl-6" value="Posgres" style="shape=image;aspect=fixed;image=data:image/svg+xml,PHN2ZyBpZD0iTGF5ZXJfMSIgZGF0YS1uYW1lPSJMYXllciAxIiB4bWxucz0iaHR0cDovL3d3dy53My5vcmcvMjAwMC9zdmciIHZpZXdCb3g9IjAgMCA0OSA0OSI+PGRlZnM+PHN0eWxlPi5jbHMtMXtmaWxsOiMwZjYyZmU7fS5jbHMtMntmaWxsOm5vbmU7fS5jbHMtM3tmaWxsOiNmZmY7fTwvc3R5bGU+PC9kZWZzPjxyZWN0IGNsYXNzPSJjbHMtMSIgeD0iMC41IiB5PSIwLjUiIHdpZHRoPSI0OCIgaGVpZ2h0PSI0OCIvPjxyZWN0IGNsYXNzPSJjbHMtMiIgeD0iMTQuNSIgeT0iMTQuNSIgd2lkdGg9IjIwIiBoZWlnaHQ9IjIwIi8+PHBhdGggY2xhc3M9ImNscy0zIiBkPSJNMTUuOSwxOS40N0gxOGwyLjU3LDQuOWguMDZsMi41NC00LjloMi4wNnYxMGgtMS44VjIyLjNoLS4wNmwtLjc3LDEuNTktMi4wNiwzLjgtMi0zLjgtLjc4LTEuNTloLS4wNnY3LjJIMTUuOVoiLz48cGF0aCBjbGFzcz0iY2xzLTMiIGQ9Ik0zMC4zNCwzMi41NWMtMi41MywwLTMuNDktLjY2LTMuNDktMS43N2ExLjM5LDEuMzksMCwwLDEsMS4zNC0xLjQ0di0uMTZhMS4yMywxLjIzLDAsMCwxLTEtMS4yNWMwLS43Ny42Ny0xLjE2LDEuMzgtMS4zMnYtLjA2YTIuMjYsMi4yNiwwLDAsMS0xLjM2LTIuMThjMC0xLjUyLDEuMDgtMi41NCwzLjEtMi41NGE0LjE1LDQuMTUsMCwwLDEsMS4zMS4xOHYtLjI0YTEsMSwwLDAsMSwxLjA2LTEuMDloMS4xN3YxLjRoLTEuNnYuMjFhMi4yNCwyLjI0LDAsMCwxLDEuMTcsMi4wOGMwLDEuNTEtMS4wNywyLjUxLTMuMTEsMi41MWE0LjQ0LDQuNDQsMCwwLDEtMS4xNS0uMTMuNzkuNzksMCwwLDAtLjUzLjY4YzAsLjM3LjMyLjU2LDEsLjU2aDJjMS44NCwwLDIuNjMuNzksMi42MywyLjE0QzM0LjI4LDMxLjcsMzMuMjIsMzIuNTUsMzAuMzQsMzIuNTVabS45NC0zSDI4LjcyYS45Mi45MiwwLDAsMC0uMzkuNzdjMCwuNTguNDMuOTIsMS41OC45MmguOTJjMS4xOSwwLDEuNzMtLjMsMS43My0uOTNTMzIuMjEsMjkuNTksMzEuMjgsMjkuNTlabS40MS01LjExdi0uMjRjMC0uNzYtLjQ3LTEuMTUtMS4zNS0xLjE1UzI5LDIzLjQ4LDI5LDI0LjI0di4yNGMwLC43NS40OCwxLjE1LDEuMzUsMS4xNVMzMS42OSwyNS4yMywzMS42OSwyNC40OFoiLz48L3N2Zz4=;fontSize=14;fontFamily=IBM Plex Sans;fontSource=fonts%2FIBMPlexSans-Regular.woff;labelPosition=center;verticalLabelPosition=bottom;align=center;verticalAlign=top;spacingTop=-7;" parent="j9GXgACKSNPuvCItniIa-4" vertex="1">
          <mxGeometry x="33" y="50" width="48" height="48" as="geometry" />
        </mxCell>
        <UserObject label="Object &#xa;Storage" link="https://cloud.ibm.com/objectstorage" linkTarget="_blank" id="fpsseA4Z9fjPV2AbE0Nl-10">
          <mxCell style="shape=image;aspect=fixed;image=data:image/svg+xml,PHN2ZyBpZD0iTGF5ZXJfMSIgZGF0YS1uYW1lPSJMYXllciAxIiB4bWxucz0iaHR0cDovL3d3dy53My5vcmcvMjAwMC9zdmciIHZpZXdCb3g9IjAgMCA0OSA0OSI+PGRlZnM+PHN0eWxlPi5jbHMtMXtmaWxsOiMwZjYyZmU7fS5jbHMtMntmaWxsOiNmZmY7fS5jbHMtM3tmaWxsOm5vbmU7fTwvc3R5bGU+PC9kZWZzPjxyZWN0IGNsYXNzPSJjbHMtMSIgeD0iMC41IiB5PSIwLjUiIHdpZHRoPSI0OCIgaGVpZ2h0PSI0OCIgcng9IjgiLz48cGF0aCBjbGFzcz0iY2xzLTIiIGQ9Ik0zMiwyN0gzMC43NXYxLjI1SDMyVjMySDE3VjI4LjI1aDYuMjVWMjdIMTdhMS4yNSwxLjI1LDAsMCwwLTEuMjUsMS4yNVYzMkExLjI1LDEuMjUsMCwwLDAsMTcsMzMuMjVIMzJBMS4yNSwxLjI1LDAsMCwwLDMzLjI1LDMyVjI4LjI1QTEuMjUsMS4yNSwwLDAsMCwzMiwyN1oiLz48Y2lyY2xlIGNsYXNzPSJjbHMtMiIgY3g9IjE4Ljg4IiBjeT0iMzAuMTMiIHI9IjAuNjMiLz48cmVjdCBjbGFzcz0iY2xzLTMiIHg9IjE0LjUiIHk9IjE0LjUiIHdpZHRoPSIyMCIgaGVpZ2h0PSIyMCIvPjxwYXRoIGNsYXNzPSJjbHMtMiIgZD0iTTI3LjYyLDIzLjI1YTEuODgsMS44OCwwLDAsMC0xLjI3LjUxbC0yLjUtMS41YTIuMywyLjMsMCwwLDAsMC0uMjYsMi4zLDIuMywwLDAsMCwwLS4yNmwyLjUtMS41YTEuODcsMS44NywwLDEsMC0uNi0xLjM2LDEuMDcsMS4wNywwLDAsMCwwLC4yNWwtMi41MSwxLjVBMS44NiwxLjg2LDAsMCwwLDIyLDIwLjEyYTEuODgsMS44OCwwLDAsMCwwLDMuNzYsMS44NiwxLjg2LDAsMCwwLDEuMjctLjUxbDIuNTEsMS41YTEuMDcsMS4wNywwLDAsMCwwLC4yNSwxLjg4LDEuODgsMCwxLDAsMS44Ny0xLjg3Wm0wLTVhLjYzLjYzLDAsMSwxLS42Mi42M0EuNjMuNjMsMCwwLDEsMjcuNjIsMTguMjVaTTIyLDIyLjYyYS42Mi42MiwwLDEsMSwuNjItLjYyQS42Mi42MiwwLDAsMSwyMiwyMi42MlptNS42MiwzLjEzYS42My42MywwLDEsMSwuNjMtLjYzQS42My42MywwLDAsMSwyNy42MiwyNS43NVoiLz48L3N2Zz4=;fontFamily=IBM Plex Sans;fontSource=fonts%2FIBMPlexSans-Regular.woff;fontSize=14;labelPosition=center;verticalLabelPosition=bottom;align=center;verticalAlign=top;spacingTop=-7;" parent="j9GXgACKSNPuvCItniIa-4" vertex="1">
            <mxGeometry x="113" y="50" width="48" height="48" as="geometry" />
          </mxCell>
        </UserObject>
        <mxCell id="cObzhFuFZoSMjG5xO7K--3" value="Security Services" parent="0" />
        <mxCell id="G9iv7065l-6P10pQh_sO-25" value="DevOps Services" parent="0" />
        <mxCell id="ZaHfLt6XjcKyT0cSw7v2-1" value="Observability Services" parent="0" />
        <mxCell id="89oI7-9Ro_RFI9sCUMRu-1" value="VPE Virtual Private Endpoint" parent="0" />
        <mxCell id="j9GXgACKSNPuvCItniIa-8" value="" style="rounded=0;whiteSpace=wrap;html=1;fontFamily=IBM Plex Sans;fontSource=fonts%2FIBMPlexSans-Regular.woff;fontSize=14;spacingBottom=-28;spacingTop=0;labelPosition=-100;verticalLabelPosition=top;align=center;verticalAlign=bottom;spacingLeft=9;spacing=0;expand=0;recursiveResize=0;spacingRight=0;container=1;collapsible=0;" parent="89oI7-9Ro_RFI9sCUMRu-1" vertex="1">
          <mxGeometry x="170" y="-1066" width="906" height="45" as="geometry">
            <mxRectangle width="670" as="alternateBounds" />
          </mxGeometry>
        </mxCell>
        <mxCell id="j9GXgACKSNPuvCItniIa-9" value="" style="rounded=0;whiteSpace=wrap;html=1;strokeColor=none;fillColor=#1192E8;" parent="j9GXgACKSNPuvCItniIa-8" vertex="1">
          <mxGeometry width="7" height="37" as="geometry" />
        </mxCell>
        <mxCell id="j9GXgACKSNPuvCItniIa-10" value="VPE (Virtual Private Endpoint)" style="text;html=1;strokeColor=none;fillColor=none;align=left;verticalAlign=middle;whiteSpace=wrap;rounded=0;fontFamily=IBM Plex Sans;fontSource=fonts%2FIBMPlexSans-Regular.woff;fontSize=14;" parent="j9GXgACKSNPuvCItniIa-8" vertex="1">
          <mxGeometry x="51" y="8" width="209" height="20" as="geometry" />
        </mxCell>
        <mxCell id="j9GXgACKSNPuvCItniIa-11" value="" style="shape=image;aspect=fixed;image=data:image/svg+xml,PD94bWwgdmVyc2lvbj0iMS4wIiBlbmNvZGluZz0iVVRGLTgiPz4KPHN2ZyB3aWR0aD0iMjhweCIgaGVpZ2h0PSIyOHB4IiB2aWV3Qm94PSIwIDAgMjggMjgiIHZlcnNpb249IjEuMSIgeG1sbnM9Imh0dHA6Ly93d3cudzMub3JnLzIwMDAvc3ZnIiB4bWxuczp4bGluaz0iaHR0cDovL3d3dy53My5vcmcvMTk5OS94bGluayI+CiAgICA8IS0tIEdlbmVyYXRvcjogU2tldGNoIDUzICg3MjUyMCkgLSBodHRwczovL3NrZXRjaGFwcC5jb20gLS0+CiAgICA8dGl0bGU+VlBDIEVuZHBvaW50IEJsYWNrPC90aXRsZT4KICAgIDxkZXNjPkNyZWF0ZWQgd2l0aCBTa2V0Y2guPC9kZXNjPgogICAgPGRlZnM+CiAgICAgICAgPHBvbHlnb24gaWQ9InBhdGgtMSIgcG9pbnRzPSIwIDI4IDI4IDI4IDI4IDAgMCAwIj48L3BvbHlnb24+CiAgICA8L2RlZnM+CiAgICA8ZyBpZD0iUGFnZS0xIiBzdHJva2U9Im5vbmUiIHN0cm9rZS13aWR0aD0iMSIgZmlsbD0ibm9uZSIgZmlsbC1ydWxlPSJldmVub2RkIj4KICAgICAgICA8ZyBpZD0iVlBDLUVuZHBvaW50LUJsYWNrIj4KICAgICAgICAgICAgPHBhdGggZD0iTTE4LjAwMDEsMjUgTDUuMDAwMSwyNSBDMy44OTYxLDI0Ljk5NyAzLjAwMzEsMjQuMTA0IDMuMDAwMSwyMyBMMy4wMDAxLDEwIEw1LjAwMDEsMTAgTDUuMDAwMSwyMyBMMTguMDAwMSwyMyBMMTguMDAwMSwyNSBaIiBpZD0iRmlsbC0xIiBmaWxsPSIjMDAwMDAwIj48L3BhdGg+CiAgICAgICAgICAgIDxtYXNrIGlkPSJtYXNrLTIiIGZpbGw9IndoaXRlIj4KICAgICAgICAgICAgICAgIDx1c2UgeGxpbms6aHJlZj0iI3BhdGgtMSI+PC91c2U+CiAgICAgICAgICAgIDwvbWFzaz4KICAgICAgICAgICAgPGcgaWQ9IkNsaXAtNCI+PC9nPgogICAgICAgICAgICA8cGF0aCBkPSJNMjIsMjYgTDI2LDI2IEwyNiwyMiBMMjIsMjIgTDIyLDI2IFogTTE0LDE2IEMxMi44OTYsMTYgMTIsMTUuMTA0IDEyLDE0IEMxMiwxMi44OTYgMTIuODk2LDEyIDE0LDEyIEMxNS4xMDUsMTIgMTYsMTIuODk2IDE2LDE0IEMxNS45OTcsMTUuMTA0IDE1LjEwMywxNS45OTcgMTQsMTYgTDE0LDE2IFogTTIsNiBMNiw2IEw2LDIgTDIsMiBMMiw2IFogTTIxLjQsMjAgTDE3LjQsMTYgQzE3Ljc5MywxNS40MDcgMTguMDAyLDE0LjcxMSAxOCwxNCBDMTcuOTk0LDExLjc5NCAxNi4yMDcsMTAuMDA3IDE0LDEwIEMxMy4yODksOS45OTggMTIuNTkzLDEwLjIwNyAxMiwxMC42IEw4LDYuNiBMOCwwIEwwLDAgTDAsOCBMNi42LDggTDEwLjYsMTIgQzEwLjIwNywxMi41OTMgOS45OTksMTMuMjg5IDEwLDE0IEMxMC4wMDYsMTYuMjA2IDExLjc5NCwxNy45OTMgMTQsMTggQzE0LjcxMSwxOC4wMDIgMTUuNDA3LDE3Ljc5MyAxNiwxNy40IEwyMCwyMS40IEwyMCwyOCBMMjgsMjggTDI4LDIwIEwyMS40LDIwIFoiIGlkPSJGaWxsLTMiIGZpbGw9IiMwMDAwMDAiIG1hc2s9InVybCgjbWFzay0yKSI+PC9wYXRoPgogICAgICAgICAgICA8cGF0aCBkPSJNMjMuMDAwMSwxOCBMMjUuMDAwMSwxOCBMMjUuMDAwMSw1IEMyNC45OTcxLDMuODk2IDI0LjEwMzEsMy4wMDMgMjMuMDAwMSwzIEwxMC4wMDAxLDMgTDEwLjAwMDEsNSBMMjMuMDAwMSw1IEwyMy4wMDAxLDE4IFoiIGlkPSJGaWxsLTUiIGZpbGw9IiMwMDAwMDAiIG1hc2s9InVybCgjbWFzay0yKSI+PC9wYXRoPgogICAgICAgIDwvZz4KICAgIDwvZz4KPC9zdmc+;" parent="j9GXgACKSNPuvCItniIa-8" vertex="1">
          <mxGeometry x="18" y="6" width="20" height="20" as="geometry" />
        </mxCell>
        <mxCell id="kGd52fJAne1qB7EtDlJO-0" value="VPC&#xa;Endpoints" style="shape=image;aspect=fixed;image=data:image/svg+xml,PHN2ZyBpZD0iTGF5ZXJfMSIgZGF0YS1uYW1lPSJMYXllciAxIiB4bWxucz0iaHR0cDovL3d3dy53My5vcmcvMjAwMC9zdmciIHZpZXdCb3g9IjAgMCA0OSA0OSI+PGRlZnM+PHN0eWxlPi5jbHMtMXtmaWxsOiMxMTkyZTg7fS5jbHMtMntmaWxsOiNmZmY7fS5jbHMtM3tmaWxsOm5vbmU7fTwvc3R5bGU+PC9kZWZzPjxyZWN0IGNsYXNzPSJjbHMtMSIgeD0iMC41IiB5PSIwLjUiIHdpZHRoPSI0OCIgaGVpZ2h0PSI0OCIvPjxwYXRoIGlkPSJ2cGNfZ3JhZGllbnRfYm90dG9tIiBkYXRhLW5hbWU9InZwYyBncmFkaWVudCBib3R0b20iIGNsYXNzPSJjbHMtMiIgZD0iTTI3LDMxLjM4SDE4Ljg4YTEuMjcsMS4yNywwLDAsMS0xLjI2LTEuMjVWMjJoMS4yNnY4LjEzSDI3WiIvPjxwYXRoIGlkPSJ2cGNfZ3JhZGllbnRfdG9wIiBkYXRhLW5hbWU9InZwYyBncmFkaWVudCB0b3AiIGNsYXNzPSJjbHMtMiIgZD0iTTMwLjEyLDI3aDEuMjZWMTguODhhMS4yNiwxLjI2LDAsMCwwLTEuMjYtMS4yNUgyMnYxLjI1aDguMTJaIi8+PHBhdGggaWQ9ImVuZHBvaW50cyIgY2xhc3M9ImNscy0yIiBkPSJNMjkuMTIsMjguMjVsLTIuNS0yLjVBMi4yNiwyLjI2LDAsMCwwLDI3LDI0LjUsMi41MSwyLjUxLDAsMCwwLDI0LjUsMjJhMi4xOSwyLjE5LDAsMCwwLTEuMjUuMzhsLTIuNS0yLjVWMTUuNzVoLTV2NWg0LjEzbDIuNSwyLjVBMi4yNiwyLjI2LDAsMCwwLDIyLDI0LjUsMi41MSwyLjUxLDAsMCwwLDI0LjUsMjdhMi4yNiwyLjI2LDAsMCwwLDEuMjUtLjM4bDIuNSwyLjV2NC4xM2g1di01Wk0xOS41LDE5LjVIMTdWMTdoMi41Wm01LDYuMjVhMS4yNSwxLjI1LDAsMSwxLDEuMjUtMS4yNUExLjI1LDEuMjUsMCwwLDEsMjQuNSwyNS43NVpNMzIsMzJIMjkuNVYyOS41SDMyWiIvPjxyZWN0IGNsYXNzPSJjbHMtMyIgeD0iMTQuNSIgeT0iMTQuNSIgd2lkdGg9IjIwIiBoZWlnaHQ9IjIwIi8+PC9zdmc+;fontSize=14;fontFamily=IBM Plex Sans;fontSource=fonts%2FIBMPlexSans-Regular.woff;spacingTop=-7;labelPosition=center;verticalLabelPosition=bottom;align=center;verticalAlign=top;" parent="89oI7-9Ro_RFI9sCUMRu-1" vertex="1">
          <mxGeometry x="927" y="-1182" width="48" height="48" as="geometry" />
        </mxCell>
        <mxCell id="kGd52fJAne1qB7EtDlJO-3" value="VPC&#xa;Endpoints" style="shape=image;aspect=fixed;image=data:image/svg+xml,PHN2ZyBpZD0iTGF5ZXJfMSIgZGF0YS1uYW1lPSJMYXllciAxIiB4bWxucz0iaHR0cDovL3d3dy53My5vcmcvMjAwMC9zdmciIHZpZXdCb3g9IjAgMCA0OSA0OSI+PGRlZnM+PHN0eWxlPi5jbHMtMXtmaWxsOiMxMTkyZTg7fS5jbHMtMntmaWxsOiNmZmY7fS5jbHMtM3tmaWxsOm5vbmU7fTwvc3R5bGU+PC9kZWZzPjxyZWN0IGNsYXNzPSJjbHMtMSIgeD0iMC41IiB5PSIwLjUiIHdpZHRoPSI0OCIgaGVpZ2h0PSI0OCIvPjxwYXRoIGlkPSJ2cGNfZ3JhZGllbnRfYm90dG9tIiBkYXRhLW5hbWU9InZwYyBncmFkaWVudCBib3R0b20iIGNsYXNzPSJjbHMtMiIgZD0iTTI3LDMxLjM4SDE4Ljg4YTEuMjcsMS4yNywwLDAsMS0xLjI2LTEuMjVWMjJoMS4yNnY4LjEzSDI3WiIvPjxwYXRoIGlkPSJ2cGNfZ3JhZGllbnRfdG9wIiBkYXRhLW5hbWU9InZwYyBncmFkaWVudCB0b3AiIGNsYXNzPSJjbHMtMiIgZD0iTTMwLjEyLDI3aDEuMjZWMTguODhhMS4yNiwxLjI2LDAsMCwwLTEuMjYtMS4yNUgyMnYxLjI1aDguMTJaIi8+PHBhdGggaWQ9ImVuZHBvaW50cyIgY2xhc3M9ImNscy0yIiBkPSJNMjkuMTIsMjguMjVsLTIuNS0yLjVBMi4yNiwyLjI2LDAsMCwwLDI3LDI0LjUsMi41MSwyLjUxLDAsMCwwLDI0LjUsMjJhMi4xOSwyLjE5LDAsMCwwLTEuMjUuMzhsLTIuNS0yLjVWMTUuNzVoLTV2NWg0LjEzbDIuNSwyLjVBMi4yNiwyLjI2LDAsMCwwLDIyLDI0LjUsMi41MSwyLjUxLDAsMCwwLDI0LjUsMjdhMi4yNiwyLjI2LDAsMCwwLDEuMjUtLjM4bDIuNSwyLjV2NC4xM2g1di01Wk0xOS41LDE5LjVIMTdWMTdoMi41Wm01LDYuMjVhMS4yNSwxLjI1LDAsMSwxLDEuMjUtMS4yNUExLjI1LDEuMjUsMCwwLDEsMjQuNSwyNS43NVpNMzIsMzJIMjkuNVYyOS41SDMyWiIvPjxyZWN0IGNsYXNzPSJjbHMtMyIgeD0iMTQuNSIgeT0iMTQuNSIgd2lkdGg9IjIwIiBoZWlnaHQ9IjIwIi8+PC9zdmc+;fontSize=14;fontFamily=IBM Plex Sans;fontSource=fonts%2FIBMPlexSans-Regular.woff;spacingTop=-7;labelPosition=center;verticalLabelPosition=bottom;align=center;verticalAlign=top;" parent="89oI7-9Ro_RFI9sCUMRu-1" vertex="1">
          <mxGeometry x="419" y="-1181" width="48" height="48" as="geometry" />
        </mxCell>
        <mxCell id="kGd52fJAne1qB7EtDlJO-4" value="VPC&#xa;Endpoints" style="shape=image;aspect=fixed;image=data:image/svg+xml,PHN2ZyBpZD0iTGF5ZXJfMSIgZGF0YS1uYW1lPSJMYXllciAxIiB4bWxucz0iaHR0cDovL3d3dy53My5vcmcvMjAwMC9zdmciIHZpZXdCb3g9IjAgMCA0OSA0OSI+PGRlZnM+PHN0eWxlPi5jbHMtMXtmaWxsOiMxMTkyZTg7fS5jbHMtMntmaWxsOiNmZmY7fS5jbHMtM3tmaWxsOm5vbmU7fTwvc3R5bGU+PC9kZWZzPjxyZWN0IGNsYXNzPSJjbHMtMSIgeD0iMC41IiB5PSIwLjUiIHdpZHRoPSI0OCIgaGVpZ2h0PSI0OCIvPjxwYXRoIGlkPSJ2cGNfZ3JhZGllbnRfYm90dG9tIiBkYXRhLW5hbWU9InZwYyBncmFkaWVudCBib3R0b20iIGNsYXNzPSJjbHMtMiIgZD0iTTI3LDMxLjM4SDE4Ljg4YTEuMjcsMS4yNywwLDAsMS0xLjI2LTEuMjVWMjJoMS4yNnY4LjEzSDI3WiIvPjxwYXRoIGlkPSJ2cGNfZ3JhZGllbnRfdG9wIiBkYXRhLW5hbWU9InZwYyBncmFkaWVudCB0b3AiIGNsYXNzPSJjbHMtMiIgZD0iTTMwLjEyLDI3aDEuMjZWMTguODhhMS4yNiwxLjI2LDAsMCwwLTEuMjYtMS4yNUgyMnYxLjI1aDguMTJaIi8+PHBhdGggaWQ9ImVuZHBvaW50cyIgY2xhc3M9ImNscy0yIiBkPSJNMjkuMTIsMjguMjVsLTIuNS0yLjVBMi4yNiwyLjI2LDAsMCwwLDI3LDI0LjUsMi41MSwyLjUxLDAsMCwwLDI0LjUsMjJhMi4xOSwyLjE5LDAsMCwwLTEuMjUuMzhsLTIuNS0yLjVWMTUuNzVoLTV2NWg0LjEzbDIuNSwyLjVBMi4yNiwyLjI2LDAsMCwwLDIyLDI0LjUsMi41MSwyLjUxLDAsMCwwLDI0LjUsMjdhMi4yNiwyLjI2LDAsMCwwLDEuMjUtLjM4bDIuNSwyLjV2NC4xM2g1di01Wk0xOS41LDE5LjVIMTdWMTdoMi41Wm01LDYuMjVhMS4yNSwxLjI1LDAsMSwxLDEuMjUtMS4yNUExLjI1LDEuMjUsMCwwLDEsMjQuNSwyNS43NVpNMzIsMzJIMjkuNVYyOS41SDMyWiIvPjxyZWN0IGNsYXNzPSJjbHMtMyIgeD0iMTQuNSIgeT0iMTQuNSIgd2lkdGg9IjIwIiBoZWlnaHQ9IjIwIi8+PC9zdmc+;fontSize=14;fontFamily=IBM Plex Sans;fontSource=fonts%2FIBMPlexSans-Regular.woff;spacingTop=-7;labelPosition=center;verticalLabelPosition=bottom;align=center;verticalAlign=top;" parent="89oI7-9Ro_RFI9sCUMRu-1" vertex="1">
          <mxGeometry x="675" y="-1181" width="48" height="48" as="geometry" />
        </mxCell>
        <mxCell id="1bxI58r3Ol2beNM3FLAg-2" value="Network Enterprise" parent="0" />
        <mxCell id="P32h8oOhM-ZrKA0UN1nY-3" style="edgeStyle=orthogonalEdgeStyle;rounded=0;orthogonalLoop=1;jettySize=auto;html=1;exitX=0;exitY=0.5;exitDx=0;exitDy=0;entryX=1.009;entryY=0.22;entryDx=0;entryDy=0;entryPerimeter=0;fontFamily=IBM Plex Sans;fontSource=fonts%2FIBMPlexSans-Regular.woff;fontSize=14;startArrow=oval;startFill=1;strokeColor=#198038;" parent="1bxI58r3Ol2beNM3FLAg-2" edge="1">
          <mxGeometry relative="1" as="geometry" />
        </mxCell>
        <mxCell id="wUqrar834bqJ0CxrwcXr-10" value="Public Network" parent="0" />
        <mxCell id="pEGuMoAMFqIg68gzwtf1-18" value="" style="rounded=0;whiteSpace=wrap;html=1;fontFamily=IBM Plex Sans;fontSource=fonts%2FIBMPlexSans-Regular.woff;fontSize=14;spacingBottom=-28;spacingTop=0;labelPosition=-100;verticalLabelPosition=top;align=center;verticalAlign=bottom;spacingLeft=9;spacing=0;expand=0;recursiveResize=0;spacingRight=0;container=1;collapsible=0;strokeColor=#666666;fillColor=#f5f5f5;fontColor=#333333;" parent="wUqrar834bqJ0CxrwcXr-10" vertex="1">
          <mxGeometry x="-271" y="-1640" width="259" height="800" as="geometry">
            <mxRectangle width="670" as="alternateBounds" />
          </mxGeometry>
        </mxCell>
        <mxCell id="pEGuMoAMFqIg68gzwtf1-19" value="" style="rounded=0;whiteSpace=wrap;html=1;strokeColor=none;fillColor=#878d96;" parent="pEGuMoAMFqIg68gzwtf1-18" vertex="1">
          <mxGeometry width="7" height="37" as="geometry" />
        </mxCell>
        <mxCell id="pEGuMoAMFqIg68gzwtf1-20" value="Public&lt;br&gt;Network" style="text;html=1;strokeColor=none;fillColor=none;align=left;verticalAlign=middle;whiteSpace=wrap;rounded=0;fontFamily=IBM Plex Sans;fontSource=fonts%2FIBMPlexSans-Regular.woff;fontSize=14;" parent="pEGuMoAMFqIg68gzwtf1-18" vertex="1">
          <mxGeometry x="51" y="8" width="163" height="20" as="geometry" />
        </mxCell>
        <mxCell id="pEGuMoAMFqIg68gzwtf1-21" value="" style="shape=image;aspect=fixed;image=data:image/svg+xml,PD94bWwgdmVyc2lvbj0iMS4wIiBlbmNvZGluZz0iVVRGLTgiPz4KPHN2ZyB3aWR0aD0iMjlweCIgaGVpZ2h0PSIyNnB4IiB2aWV3Qm94PSIwIDAgMjkgMjYiIHZlcnNpb249IjEuMSIgeG1sbnM9Imh0dHA6Ly93d3cudzMub3JnLzIwMDAvc3ZnIiB4bWxuczp4bGluaz0iaHR0cDovL3d3dy53My5vcmcvMTk5OS94bGluayI+CiAgICA8IS0tIEdlbmVyYXRvcjogU2tldGNoIDUzICg3MjUyMCkgLSBodHRwczovL3NrZXRjaGFwcC5jb20gLS0+CiAgICA8dGl0bGU+UHVibGljIE5ldHdvcmsgQmxhY2s8L3RpdGxlPgogICAgPGRlc2M+Q3JlYXRlZCB3aXRoIFNrZXRjaC48L2Rlc2M+CiAgICA8ZyBpZD0iUGFnZS0xIiBzdHJva2U9Im5vbmUiIHN0cm9rZS13aWR0aD0iMSIgZmlsbD0ibm9uZSIgZmlsbC1ydWxlPSJldmVub2RkIj4KICAgICAgICA8ZyBpZD0iUHVibGljLU5ldHdvcmstQmxhY2siIHRyYW5zZm9ybT0idHJhbnNsYXRlKDAuOTAxMTA2LCAtMC4xNzQyMzMpIiBmaWxsPSIjMDAwMDAwIj4KICAgICAgICAgICAgPGcgaWQ9IkludGVybmV0IiB0cmFuc2Zvcm09InRyYW5zbGF0ZSgxMS44Njc1NTksIDEwLjExMTEyMykiPgogICAgICAgICAgICAgICAgPHBhdGggZD0iTTkuOTQwMzIwMTEsMTQuMjczNTIwNyBDMTAuOTEwMDkwMywxMi40MzQ5NjI3IDExLjQ0ODI4NzQsMTAuMzk5NTE3MSAxMS41MTQyOTI3LDguMzIxNzYwMzkgTDE0Ljg5OTE4MDEsOC4zMjE3NjAzOSBDMTQuNjU3MTYwNywxMS4xNDg3MDU1IDEyLjY3NzU2NTcsMTMuNTI0ODk2NCA5Ljk0MDMyMDExLDE0LjI3MzUyMDcgTDkuOTQwMzIwMTEsMTQuMjczNTIwNyBaIE0xLjM4NzgzODAzLDguMzIxNzYwMzkgTDQuNzcyNzI1NCw4LjMyMTc2MDM5IEM0LjgzMTk2MDkyLDEwLjM5NzgyNDYgNS4zNjIyNTk5NSwxMi40MzMyNzAzIDYuMzI0MTMyMTEsMTQuMjczNTIwNyBDMy41OTU5MTI4OSwxMy41MTY5OTg0IDEuNjI3MDM2NzMsMTEuMTQzMDY0IDEuMzg3ODM4MDMsOC4zMjE3NjAzOSBMMS4zODc4MzgwMyw4LjMyMTc2MDM5IFogTTYuNDA2NDk3NywxLjU1MTk4NTY1IEM1LjQwMTc1MDMsMy40NzA2NTI2NSA0Ljg0NjYyODc3LDUuNTkyOTc3MDMgNC43ODM0NDQyMSw3Ljc1NzYxMjUgTDEuMjU0MTM0OTgsNy43NTc2MTI1IEMxLjUwNjg3MzIzLDQuODA5OTM5NzUgMy41NzA1MjYyMywyLjMzMjc2NjM0IDYuNDI0NTUwNDMsMS41NTE5ODU2NSBMNi40MDY0OTc3LDEuNTUxOTg1NjUgWiBNNS44NzI4MTM3OSw3LjE5MzQ2NDYgQzUuOTI5MjI4NTgsNC45OTYxMDg1NSA2LjU3MTc5MzAzLDIuODUzNDc0ODUgNy43MzQ1MDE4NCwwLjk4NzgzNzc2IEM3Ljk4NjExMTgsMC45NTk2MzAzNjUgOC4yMzk0MTQyMSwwLjk1OTYzMDM2NSA4LjQ5MDQ2MDAyLDAuOTg3ODM3NzYgQzkuNjY1NTgwMDksMi44NTAwODk5NiAxMC4zMTk5OTE2LDQuOTkyNzIzNjcgMTAuMzg1OTk2OSw3LjE5MzQ2NDYgTDUuODcyODEzNzksNy4xOTM0NjQ2IFogTTguMTI5NDA1MzcsMTQuNTI3Mzg3MiBDOC4wMDM2MDAzOSwxNC41MzU4NDk1IDcuODc3MjMxMjYsMTQuNTM1ODQ5NSA3Ljc1MTQyNjI4LDE0LjUyNzM4NzIgQzYuNTgyNTExODQsMTIuNjYzNDQyNiA1LjkzNDMwNTkxLDEwLjUyMDgwODkgNS44NzI4MTM3OSw4LjMyMTc2MDM5IEwxMC4zODU5OTY5LDguMzIxNzYwMzkgQzEwLjMzMDE0NjMsMTAuNTE5NjgwNiA5LjY4NzAxNzcxLDEyLjY2MjMxNDMgOC41MjQzMDg5LDE0LjUyNzM4NzIgQzguMzkyODYyNDQsMTQuNTM2NDEzNiA4LjI2MDg1MTgzLDE0LjUzNjQxMzYgOC4xMjk0MDUzNywxNC41MjczODcyIEw4LjEyOTQwNTM3LDE0LjUyNzM4NzIgWiBNMTQuODk5MTgwMSw3LjE5MzQ2NDYgTDExLjUxNDI5MjcsNy4xOTM0NjQ2IEMxMS40NDgyODc0LDUuMTE1NzA3OTEgMTAuOTEwMDkwMywzLjA4MDI2MjMgOS45NDAzMjAxMSwxLjI0MTcwNDMxIEMxMi42Nzc1NjU3LDEuOTkwMzI4NTcgMTQuNjU3MTYwNyw0LjM2NjUxOTUgMTQuODk5MTgwMSw3LjE5MzQ2NDYgTDE0Ljg5OTE4MDEsNy4xOTM0NjQ2IFogTTguMTI5NDA1MzcsMC4xMzcxMDI3MzQgQzMuNzY3NDEzODUsMC4xMzcxMDI3MzQgMC4yMzEzMzQ4NDIsMy42NzMxODE3NCAwLjIzMTMzNDg0Miw4LjAzNTE3MzI2IEMwLjIzMTMzNDg0MiwxMi4zOTcxNjQ4IDMuNzY3NDEzODUsMTUuOTMzMjQzOCA4LjEyOTQwNTM3LDE1LjkzMzI0MzggQzEyLjQ5MTM5NjksMTUuOTMzMjQzOCAxNi4wMjc0NzU5LDEyLjM5NzE2NDggMTYuMDI3NDc1OSw4LjAzNTE3MzI2IEMxNi4wMjc0NzU5LDMuNjczMTgxNzQgMTIuNDkxMzk2OSwwLjEzNzEwMjczNCA4LjEyOTQwNTM3LDAuMTM3MTAyNzM0IEw4LjEyOTQwNTM3LDAuMTM3MTAyNzM0IFoiIGlkPSJGaWxsLTEiPjwvcGF0aD4KICAgICAgICAgICAgPC9nPgogICAgICAgICAgICA8ZyBpZD0iQ2xhc3NpYy1JbmZyYXN0cnVjdHVyZS1CbGFjay1Db3B5Ij4KICAgICAgICAgICAgICAgIDxnIGlkPSJHcm91cC02IiB0cmFuc2Zvcm09InRyYW5zbGF0ZSgwLjAwMDAwMCwgMC45OTg0MDApIj4KICAgICAgICAgICAgICAgICAgICA8cGF0aCBkPSJNMTIuMDAwMDIxMiwyMi45OTgwNDIyIEw3LjczNzAyMTE4LDIyLjk5ODA0MjIgQzQuMTQ2MDIxMTgsMjIuOTk4MDQyMiAwLjg3OTAyMTE4MiwyMC41NzkwNDIyIDAuMTU5MDIxMTgyLDE3LjA2MTA0MjIgQy0wLjcxMjk3ODgxOCwxMi43OTQwNDIyIDIuMTAwMDIxMTgsOC44NTEwNDIyMiA2LjE3ODAyMTE4LDguMTIyMDQyMjIgQzcuMjE2MDIxMTgsMi42OTgwNDIyMiAxMi40NTUwMjEyLC0wLjg1Nzk1Nzc4MyAxNy44NzkwMjEyLDAuMTgwMDQyMjE3IEMyMi41OTEwMjEyLDEuMDgxMDQyMjIgMjUuOTk5MDIxMiw1LjIwMTA0MjIyIDI2LjAwMDAyMTIsOS45OTgwNDIyMiBMMjQuMDAwMDIxMiw5Ljk5ODA0MjIyIEMyNC4wMDEwMjEyLDUuMTAwMDQyMjIgMTkuNTk5MDIxMiwxLjIyOTA0MjIyIDE0LjUzNDAyMTIsMi4xMjgwNDIyMiBDMTAuOTk5MDIxMiwyLjc1NjA0MjIyIDguNDA2MDIxMTgsNS44MjYwNDIyMiA4LjAyMTAyMTE4LDkuMzk2MDQyMjIgTDcuOTU5MDIxMTgsOS45NjEwNDIyMiBMNy4zMTMwMjExOCwxMC4wMDUwNDIyIEM0Ljc0MDAyMTE4LDEwLjE3OTA0MjIgMi40NzcwMjExOCwxMi4wMjIwNDIyIDIuMDcwMDIxMTgsMTQuNTY5MDQyMiBDMS41MTIwMjExOCwxOC4wNTcwNDIyIDQuMTgyMDIxMTgsMjEuMDAzMDQyMiA3LjUwMDAyMTE4LDIwLjk5ODA0MjIgTDEyLjAwMDAyMTIsMjAuOTk4MDQyMiBMMTIuMDAwMDIxMiwyMi45OTgwNDIyIFoiIGlkPSJGaWxsLTQiPjwvcGF0aD4KICAgICAgICAgICAgICAgIDwvZz4KICAgICAgICAgICAgPC9nPgogICAgICAgIDwvZz4KICAgIDwvZz4KPC9zdmc+;" parent="pEGuMoAMFqIg68gzwtf1-18" vertex="1">
          <mxGeometry x="19" y="6.5" width="22" height="19.73" as="geometry" />
        </mxCell>
        <mxCell id="pEGuMoAMFqIg68gzwtf1-22" value="&#xa;Decision Center Route&#xa;https://INGRES/decisioncenter&#xa;&#xa;Decision Server Console Route&#xa;https://INGRES/res&#xa;&#xa;Decision Server Runtime Route&#xa;https://INGRES/DecisionService&#xa;&#xa;Decision Runner Route&#xa;https://INGRES/DecisionRunner" style="shape=image;aspect=fixed;image=data:image/svg+xml,PHN2ZyBpZD0iTGF5ZXJfMSIgZGF0YS1uYW1lPSJMYXllciAxIiB4bWxucz0iaHR0cDovL3d3dy53My5vcmcvMjAwMC9zdmciIHZpZXdCb3g9IjAgMCA0OSA0OSI+PGRlZnM+PHN0eWxlPi5jbHMtMXtmaWxsOm5vbmU7fS5jbHMtMntmaWxsOiNmZmY7ZmlsbC1ydWxlOmV2ZW5vZGQ7fTwvc3R5bGU+PC9kZWZzPjxyZWN0IHg9IjAuNSIgeT0iMC41IiB3aWR0aD0iNDgiIGhlaWdodD0iNDgiIHJ4PSIyNCIvPjxyZWN0IGNsYXNzPSJjbHMtMSIgeD0iMTQuNSIgeT0iMTQuNSIgd2lkdGg9IjIwIiBoZWlnaHQ9IjIwIi8+PHBhdGggaWQ9IkZpbGwtMyIgY2xhc3M9ImNscy0yIiBkPSJNMzAuOCwzMy44N0gyOVYyOS41OUEyLjYzLDIuNjMsMCwwLDAsMjYuMywyN0gyMi43QTIuNjMsMi42MywwLDAsMCwyMCwyOS41OXY0LjI4SDE4LjJWMjkuNTlhNC40MSw0LjQxLDAsMCwxLDQuNS00LjI4aDMuNmE0LjQxLDQuNDEsMCwwLDEsNC41LDQuMjhaIi8+PHBhdGggaWQ9IkZpbGwtNSIgY2xhc3M9ImNscy0yIiBkPSJNMjQuNSwxNS4wNUE0LjM5LDQuMzksMCwwLDAsMjAsMTkuMzNhNC41MSw0LjUxLDAsMCwwLDksMCw0LjM5LDQuMzksMCwwLDAtNC41LTQuMjhtMCwxLjcxYTIuNTcsMi41NywwLDEsMS0yLjcsMi41NywyLjY0LDIuNjQsMCwwLDEsMi43LTIuNTciLz48L3N2Zz4=;fontFamily=IBM Plex Sans;fontSource=fonts%2FIBMPlexSans-Regular.woff;fontSize=14;labelPosition=center;verticalLabelPosition=bottom;align=left;verticalAlign=top;spacingTop=-7;" parent="pEGuMoAMFqIg68gzwtf1-18" vertex="1">
          <mxGeometry x="40.999999999999545" y="148" width="48" height="48" as="geometry" />
        </mxCell>
        <mxCell id="7D2IMiQIu3hf2uJzpMOT-0" style="edgeStyle=orthogonalEdgeStyle;rounded=1;orthogonalLoop=1;jettySize=auto;html=1;entryX=0;entryY=0.5;entryDx=0;entryDy=0;startArrow=classic;startFill=1;endArrow=none;endFill=0;" parent="wUqrar834bqJ0CxrwcXr-10" source="fpsseA4Z9fjPV2AbE0Nl-0" target="fpsseA4Z9fjPV2AbE0Nl-20" edge="1">
          <mxGeometry relative="1" as="geometry">
            <Array as="points">
              <mxPoint x="80" y="-1159" />
            </Array>
          </mxGeometry>
        </mxCell>
        <mxCell id="z8UGiRp5lIFIxkYsoh28-0" style="edgeStyle=orthogonalEdgeStyle;rounded=0;orthogonalLoop=1;jettySize=auto;html=1;exitX=1;exitY=0.5;exitDx=0;exitDy=0;" edge="1" parent="wUqrar834bqJ0CxrwcXr-10" source="pEGuMoAMFqIg68gzwtf1-22" target="pEGuMoAMFqIg68gzwtf1-51">
          <mxGeometry relative="1" as="geometry" />
        </mxCell>
      </root>
    </mxGraphModel>
  </diagram>
</mxfile>
